{"glyphs":{"0":{"ha":815,"x_min":63,"x_max":753,"o":"m 413 -21 q 281 3 339 -21 q 182 70 224 26 q 114 176 140 114 q 75 313 88 238 q 63 474 63 388 q 75 631 63 557 q 114 767 88 706 q 181 873 140 828 q 280 942 222 918 q 410 967 338 967 q 538 942 482 967 q 635 873 594 918 q 701 767 675 828 q 740 631 728 706 q 753 472 753 556 q 740 313 753 388 q 701 176 728 238 q 635 71 675 115 q 540 3 594 26 q 413 -21 485 -21 m 407 106 q 514 134 472 106 q 579 207 556 163 q 613 301 603 251 q 626 394 624 350 q 628 465 628 439 l 628 474 q 603 673 628 590 q 531 799 579 756 q 408 842 482 842 q 285 799 335 842 q 212 674 236 756 q 188 472 188 592 q 212 274 188 356 q 285 149 236 192 q 407 106 335 106 z "},"1":{"ha":544,"x_min":58,"x_max":476,"o":"m 415 -15 q 367 -1 381 -15 q 354 47 354 14 l 354 894 q 368 942 354 929 q 417 956 382 956 q 463 941 450 956 q 476 892 476 926 l 476 46 q 463 -1 476 13 q 415 -15 450 -15 m 165 607 q 121 585 139 585 q 81 611 103 586 q 60 656 58 636 q 89 700 61 676 l 357 933 q 400 953 381 956 q 442 928 419 951 q 463 884 464 904 q 432 839 461 864 l 165 607 z "},"2":{"ha":831,"x_min":64,"x_max":771,"o":"m 125 -4 q 83 16 101 -4 q 64 61 64 36 q 65 100 64 81 q 74 139 65 119 q 106 175 82 158 q 255 278 182 231 q 391 371 328 326 q 501 460 454 415 q 576 552 549 504 q 603 657 603 600 q 580 755 603 714 q 511 819 557 796 q 397 842 465 842 q 308 827 347 842 q 243 785 269 813 q 203 717 217 757 q 189 625 189 676 q 185 590 189 604 q 169 569 182 576 q 125 563 156 563 q 81 572 94 563 q 66 599 68 582 q 64 636 64 615 q 86 769 64 708 q 151 874 108 829 q 256 942 194 918 q 396 967 317 967 q 572 929 497 967 q 688 820 646 892 q 729 644 729 749 q 715 554 729 597 q 674 472 701 511 q 610 395 647 432 q 527 322 574 358 q 426 249 481 286 q 313 175 372 213 l 225 122 l 708 122 q 742 118 728 122 q 763 100 756 114 q 771 58 771 86 q 763 18 771 32 q 740 0 754 4 q 706 -4 726 -4 l 125 -4 z "},"3":{"ha":815,"x_min":63,"x_max":753,"o":"m 407 -19 q 274 2 335 -19 q 166 62 213 24 q 93 149 119 100 q 63 250 67 197 q 128 299 63 299 q 163 293 151 299 q 179 274 174 288 q 190 238 185 261 q 236 165 206 196 q 310 116 267 133 q 408 99 354 99 q 523 122 474 99 q 600 187 572 146 q 628 279 628 228 q 601 368 628 329 q 527 428 574 407 q 421 449 481 449 q 381 453 397 449 q 356 470 364 457 q 349 511 349 483 q 356 550 349 538 q 381 567 364 563 q 422 571 397 571 q 516 588 478 571 q 574 634 554 606 q 593 696 593 663 q 572 777 593 742 q 510 832 550 813 q 419 851 471 851 q 341 840 375 851 q 280 806 307 828 q 229 749 253 783 q 192 713 210 718 q 140 728 174 708 q 112 758 118 743 q 115 796 106 774 q 136 831 122 810 q 174 876 150 853 q 231 921 197 900 q 309 955 264 942 q 414 968 354 968 q 542 947 485 968 q 639 888 600 925 q 699 802 678 850 q 719 701 719 754 q 702 618 719 657 q 656 552 685 579 q 596 510 626 525 q 663 472 633 497 q 712 414 692 446 q 742 347 732 382 q 753 282 753 313 q 709 128 753 196 q 588 20 665 60 q 407 -19 510 -19 z "},"4":{"ha":756,"x_min":60,"x_max":689,"o":"m 625 -14 q 584 -6 597 -14 q 567 16 571 1 q 563 49 563 31 l 563 293 l 122 293 q 82 301 96 293 q 64 324 68 310 q 60 357 60 339 q 60 373 60 365 q 64 388 61 381 l 215 910 q 242 959 226 951 q 290 960 258 967 q 335 938 321 954 q 340 897 349 922 l 200 410 l 563 410 l 563 901 q 567 930 563 918 q 586 949 572 942 q 628 956 600 956 q 667 948 654 956 q 685 926 681 940 q 689 893 689 913 l 689 47 q 684 14 689 28 q 666 -7 679 0 q 625 -14 653 -14 z "},"5":{"ha":717,"x_min":60,"x_max":656,"o":"m 351 -21 q 265 -13 303 -21 q 195 7 226 -6 q 138 35 164 19 q 92 65 113 50 q 69 88 78 78 q 60 111 60 97 q 65 132 60 121 q 82 158 69 143 q 106 181 94 175 q 128 188 118 188 q 147 183 136 188 q 176 163 158 179 q 213 136 193 150 q 264 114 233 122 q 342 106 294 106 q 440 128 397 106 q 506 192 482 150 q 529 290 529 233 q 505 388 529 346 q 439 453 481 429 q 347 478 397 478 q 300 472 322 478 q 259 456 278 467 q 226 432 240 446 q 209 417 217 422 q 190 410 201 413 q 165 408 178 406 q 131 418 153 410 q 94 439 106 429 q 83 467 83 449 l 143 892 q 150 922 146 907 q 167 947 154 936 q 206 957 181 957 l 567 956 q 598 951 585 956 q 618 933 611 947 q 625 892 625 919 q 618 854 625 867 q 599 838 611 842 q 568 833 586 833 l 261 833 l 222 560 q 260 582 239 574 q 304 596 282 590 q 347 601 326 601 l 357 601 q 470 578 417 601 q 565 513 524 554 q 631 417 606 471 q 656 301 656 363 q 615 135 656 207 q 506 21 575 63 q 351 -21 438 -21 z "},"6":{"ha":744,"x_min":63,"x_max":682,"o":"m 382 -18 q 210 26 282 -18 q 101 155 139 69 q 63 365 63 240 q 87 565 63 474 q 158 730 111 657 q 269 855 204 803 q 417 934 335 907 q 596 961 500 961 q 626 956 614 961 q 644 938 638 951 q 651 897 651 925 q 644 858 651 871 q 622 840 636 844 q 589 836 608 836 q 457 818 517 836 q 349 766 397 800 q 267 685 301 732 q 216 581 233 638 q 197 458 199 524 l 175 440 q 219 503 188 474 q 295 549 250 532 q 394 565 340 565 q 547 528 482 565 q 647 428 611 492 q 682 283 682 365 q 646 126 682 194 q 542 20 610 58 q 382 -18 475 -18 m 376 97 q 477 119 436 97 q 540 182 518 142 q 561 275 561 222 q 540 366 561 326 q 481 428 519 406 q 386 450 442 450 q 284 428 328 450 q 218 368 240 407 q 196 279 196 329 q 217 183 196 224 q 278 120 238 143 q 376 97 319 97 z "},"7":{"ha":769,"x_min":60,"x_max":710,"o":"m 276 -14 q 236 -9 250 -14 q 218 6 222 -4 q 214 31 214 15 q 240 196 214 114 q 308 355 265 278 q 396 503 350 432 q 483 635 442 574 q 548 746 524 696 q 568 832 572 796 l 121 832 q 88 836 101 832 q 67 854 74 840 q 60 894 60 868 q 66 935 60 922 q 85 951 72 947 q 113 956 97 956 l 649 956 q 688 946 675 956 q 706 919 701 936 q 710 882 710 903 q 683 756 710 821 q 615 624 657 692 q 524 483 572 556 q 435 337 476 411 q 367 185 393 263 q 340 28 340 108 q 335 5 340 14 q 317 -9 331 -4 q 276 -14 303 -14 z "},"8":{"ha":776,"x_min":63,"x_max":714,"o":"m 393 -21 q 222 16 296 -21 q 105 119 147 53 q 63 272 63 185 q 72 340 63 307 q 97 402 82 374 q 132 453 113 431 q 172 490 151 475 q 208 511 192 504 q 172 537 192 518 q 135 582 153 556 q 106 640 117 608 q 94 708 94 672 q 133 845 94 786 q 238 938 171 904 q 393 972 306 972 q 543 938 478 972 q 645 844 608 904 q 682 707 682 785 q 675 653 682 679 q 657 605 668 628 q 631 563 646 582 q 602 531 617 544 q 574 511 588 517 q 610 489 590 504 q 647 451 629 474 q 681 401 665 429 q 706 340 697 372 q 714 272 714 307 q 690 151 714 206 q 622 59 665 97 q 519 0 578 21 q 393 -21 460 -21 m 390 90 q 495 113 450 90 q 565 176 540 136 q 589 271 589 217 q 565 367 589 326 q 494 430 540 407 q 388 453 449 453 q 283 430 328 453 q 213 367 238 407 q 188 271 188 326 q 213 176 188 217 q 283 113 238 136 q 390 90 329 90 m 390 556 q 478 574 442 556 q 536 628 515 593 q 557 708 557 663 q 536 788 557 754 q 478 839 515 821 q 389 857 440 857 q 301 839 339 857 q 243 788 264 821 q 222 708 222 754 q 243 628 222 663 q 302 574 264 593 q 390 556 340 556 z "},"9":{"ha":744,"x_min":63,"x_max":682,"o":"m 149 -12 q 119 -8 132 -12 q 100 10 107 -3 q 93 50 93 24 q 101 91 93 78 q 122 108 108 104 q 156 113 136 113 q 288 131 228 113 q 395 183 347 149 q 477 263 443 217 q 528 367 511 310 q 547 489 546 425 l 569 508 q 526 447 557 475 q 451 401 496 418 q 350 385 406 385 q 199 421 264 385 q 98 521 133 457 q 63 665 63 585 q 99 822 63 754 q 203 928 136 890 q 363 967 271 967 q 534 922 463 967 q 644 793 606 878 q 682 583 682 708 q 658 383 682 475 q 587 219 633 292 q 475 94 540 146 q 327 15 410 42 q 149 -12 244 -12 m 358 499 q 462 520 419 499 q 527 581 504 542 q 550 669 550 619 q 528 765 550 725 q 467 828 507 806 q 368 851 426 851 q 267 829 308 851 q 205 767 226 807 q 183 674 183 728 q 204 583 183 622 q 265 521 225 543 q 358 499 304 499 z "},"A":{"ha":978,"x_min":17,"x_max":961,"o":"m 949 75 q 960 40 960 54 q 951 13 961 25 q 921 -8 942 1 q 869 -15 888 -24 q 835 25 850 -7 l 488 764 l 143 26 q 109 -14 128 -6 q 56 -7 90 -22 q 26 14 35 1 q 19 44 17 26 q 32 86 21 63 l 431 918 q 455 945 439 935 q 489 956 471 956 q 513 951 501 956 q 532 939 524 947 q 546 917 540 931 l 949 75 m 226 263 l 274 369 l 704 369 l 750 263 l 226 263 z "},"Á":{"ha":978,"x_min":17,"x_max":961,"o":"m 949 75 q 960 40 960 54 q 951 13 961 25 q 921 -8 942 1 q 869 -15 888 -24 q 835 25 850 -7 l 488 764 l 143 26 q 109 -14 128 -6 q 56 -7 90 -22 q 26 14 35 1 q 19 44 17 26 q 32 86 21 63 l 431 918 q 455 945 439 935 q 489 956 471 956 q 513 951 501 956 q 532 939 524 947 q 546 917 540 931 l 949 75 m 226 263 l 274 369 l 704 369 l 750 263 l 226 263 m 431 1018 q 396 1022 408 1014 q 375 1057 383 1031 q 372 1101 365 1086 q 404 1125 378 1117 l 626 1200 q 660 1195 647 1204 q 681 1160 672 1186 q 683 1116 690 1131 q 649 1092 675 1101 l 431 1018 z "},"Â":{"ha":978,"x_min":17,"x_max":961,"o":"m 949 75 q 960 40 960 54 q 951 13 961 25 q 921 -8 942 1 q 869 -15 888 -24 q 835 25 850 -7 l 488 764 l 143 26 q 109 -14 128 -6 q 56 -7 90 -22 q 26 14 35 1 q 19 44 17 26 q 32 86 21 63 l 431 918 q 455 945 439 935 q 489 956 471 956 q 513 951 501 956 q 532 939 524 947 q 546 917 540 931 l 949 75 m 226 263 l 274 369 l 704 369 l 750 263 l 226 263 m 485 1213 q 497 1211 492 1213 q 507 1207 501 1210 l 656 1138 q 690 1110 683 1128 q 683 1065 697 1092 q 656 1033 671 1042 q 625 1033 642 1025 l 485 1104 l 346 1035 q 315 1035 329 1026 q 288 1068 300 1044 q 281 1110 274 1094 q 315 1138 288 1126 l 463 1207 q 473 1211 468 1210 q 485 1213 478 1213 z "},"Ä":{"ha":978,"x_min":17,"x_max":961,"o":"m 949 75 q 960 40 960 54 q 951 13 961 25 q 921 -8 942 1 q 869 -15 888 -24 q 835 25 850 -7 l 488 764 l 143 26 q 109 -14 128 -6 q 56 -7 90 -22 q 26 14 35 1 q 19 44 17 26 q 32 86 21 63 l 431 918 q 455 945 439 935 q 489 956 471 956 q 513 951 501 956 q 532 939 524 947 q 546 917 540 931 l 949 75 m 226 263 l 274 369 l 704 369 l 750 263 l 226 263 m 590 1058 q 542 1068 556 1058 q 525 1094 528 1078 q 522 1128 522 1111 q 525 1160 522 1144 q 542 1185 528 1175 q 590 1194 557 1194 q 639 1185 625 1194 q 656 1159 653 1175 q 658 1126 658 1143 q 656 1094 658 1111 q 639 1068 653 1078 q 590 1058 625 1058 m 388 1058 q 339 1068 353 1058 q 322 1094 325 1078 q 319 1128 319 1111 q 322 1160 319 1144 q 340 1185 325 1175 q 389 1194 354 1194 q 436 1185 422 1194 q 453 1159 450 1175 q 456 1126 456 1143 q 453 1094 456 1111 q 436 1068 450 1078 q 388 1058 422 1058 z "},"À":{"ha":978,"x_min":17,"x_max":961,"o":"m 949 75 q 960 40 960 54 q 951 13 961 25 q 921 -8 942 1 q 869 -15 888 -24 q 835 25 850 -7 l 488 764 l 143 26 q 109 -14 128 -6 q 56 -7 90 -22 q 26 14 35 1 q 19 44 17 26 q 32 86 21 63 l 431 918 q 455 945 439 935 q 489 956 471 956 q 513 951 501 956 q 532 939 524 947 q 546 917 540 931 l 949 75 m 226 263 l 274 369 l 704 369 l 750 263 l 226 263 m 515 1035 l 306 1106 q 273 1130 279 1115 q 275 1174 267 1144 q 299 1212 285 1204 q 340 1211 314 1219 l 551 1139 q 585 1115 579 1131 q 581 1071 590 1099 q 557 1033 571 1040 q 515 1035 543 1026 z "},"Å":{"ha":978,"x_min":17,"x_max":961,"o":"m 949 75 q 960 40 960 54 q 951 13 961 25 q 921 -8 942 1 q 869 -15 888 -24 q 835 25 850 -7 l 488 764 l 143 26 q 109 -14 128 -6 q 56 -7 90 -22 q 26 14 35 1 q 19 44 17 26 q 32 86 21 63 l 431 918 q 455 945 439 935 q 489 956 471 956 q 513 951 501 956 q 532 939 524 947 q 546 917 540 931 l 949 75 m 226 263 l 274 369 l 704 369 l 750 263 l 226 263 m 485 1032 q 409 1053 443 1032 q 354 1108 375 1074 q 333 1185 333 1143 q 353 1260 333 1225 q 408 1315 374 1294 q 483 1336 442 1336 q 561 1316 526 1336 q 617 1262 596 1296 q 638 1185 638 1228 q 617 1108 638 1143 q 561 1053 596 1074 q 485 1032 526 1032 m 485 1107 q 539 1131 517 1107 q 561 1186 561 1154 q 540 1240 561 1218 q 483 1261 518 1261 q 430 1239 451 1261 q 408 1186 408 1217 q 430 1130 408 1153 q 485 1107 451 1107 z "},"Ã":{"ha":978,"x_min":17,"x_max":961,"o":"m 949 75 q 960 40 960 54 q 951 13 961 25 q 921 -8 942 1 q 869 -15 888 -24 q 835 25 850 -7 l 488 764 l 143 26 q 109 -14 128 -6 q 56 -7 90 -22 q 26 14 35 1 q 19 44 17 26 q 32 86 21 63 l 431 918 q 455 945 439 935 q 489 956 471 956 q 513 951 501 956 q 532 939 524 947 q 546 917 540 931 l 949 75 m 226 263 l 274 369 l 704 369 l 750 263 l 226 263 m 408 1183 q 467 1167 444 1183 q 510 1135 490 1151 q 549 1119 529 1119 q 572 1128 561 1119 q 592 1147 582 1136 q 613 1164 603 1157 q 635 1176 621 1175 q 665 1169 650 1178 q 690 1146 682 1158 q 692 1118 697 1133 q 667 1067 688 1090 q 617 1028 646 1043 q 553 1014 588 1014 q 502 1030 526 1014 q 456 1063 478 1046 q 413 1079 435 1079 q 374 1067 392 1079 q 349 1040 357 1056 q 327 1025 342 1029 q 293 1033 313 1021 q 269 1063 274 1046 q 274 1097 264 1079 q 308 1140 286 1119 q 358 1172 331 1160 q 408 1183 385 1183 z "},"Æ":{"ha":1567,"x_min":36,"x_max":1500,"o":"m 878 -14 q 848 -5 863 -14 q 824 19 833 4 q 815 51 815 35 l 815 801 l 150 4 q 122 -19 136 -14 q 92 -18 107 -25 q 61 6 78 -11 q 40 40 44 26 q 42 67 36 54 q 64 96 49 79 l 774 936 q 796 952 783 949 q 826 956 808 956 l 1438 956 q 1471 951 1457 956 q 1492 934 1485 947 q 1500 893 1500 921 q 1493 853 1500 867 q 1474 835 1486 839 q 1444 831 1461 831 l 942 831 l 942 538 l 1281 538 q 1314 533 1300 538 q 1335 515 1328 528 q 1343 474 1343 501 q 1335 433 1343 447 q 1314 415 1328 419 q 1279 411 1300 411 l 942 411 l 942 113 l 1446 113 q 1474 108 1463 113 q 1493 90 1486 103 q 1500 49 1500 76 q 1492 8 1500 22 q 1469 -10 1483 -6 q 1436 -14 1456 -14 l 878 -14 m 314 258 l 393 364 l 843 364 l 843 258 l 314 258 z "},"B":{"ha":886,"x_min":78,"x_max":822,"o":"m 138 -14 q 99 -5 113 -14 q 82 22 86 4 q 78 60 78 39 l 78 885 q 83 922 78 906 q 101 947 88 938 q 139 956 114 956 l 526 956 q 663 921 604 956 q 756 826 722 886 q 788 696 789 767 q 779 625 789 660 q 751 560 769 590 q 704 511 732 531 q 768 450 742 488 q 808 367 794 413 q 822 271 822 321 q 800 159 821 211 q 740 68 779 107 q 650 8 701 29 q 540 -14 599 -14 l 138 -14 m 203 106 l 526 106 q 619 126 581 106 q 679 188 658 147 q 700 286 700 228 q 686 367 700 336 q 649 413 672 397 q 598 436 625 429 q 545 444 571 443 q 499 444 519 444 l 414 444 q 374 458 386 444 q 361 503 361 472 q 374 544 361 532 q 415 557 388 557 l 500 557 q 550 558 522 557 q 605 569 578 560 q 649 606 632 579 q 667 683 667 633 q 625 798 667 761 q 488 835 583 835 l 203 835 l 203 106 z "},"C":{"ha":926,"x_min":69,"x_max":860,"o":"m 554 -17 q 408 6 479 -17 q 276 69 338 28 q 169 173 215 111 q 96 312 122 235 q 69 482 69 389 q 96 647 69 571 q 168 781 122 722 q 276 880 214 839 q 409 942 338 921 q 556 964 481 964 q 675 950 625 964 q 757 920 725 936 q 800 896 789 904 q 838 869 819 885 q 857 833 856 854 q 855 808 860 818 q 843 788 850 799 q 820 763 832 771 q 794 756 808 756 q 769 764 781 756 q 740 783 758 772 q 707 801 732 789 q 643 826 682 814 q 549 838 604 838 q 413 812 478 838 q 300 739 349 786 q 224 625 251 692 q 196 475 196 558 q 224 323 196 390 q 301 208 251 256 q 414 136 350 161 q 549 111 478 111 q 641 122 601 111 q 706 147 681 133 q 742 167 732 160 q 769 183 757 175 q 794 192 781 192 q 820 184 808 192 q 843 160 832 176 q 855 138 850 150 q 857 113 860 126 q 838 77 856 92 q 800 50 819 63 q 756 27 788 44 q 675 -3 725 10 q 554 -17 625 -17 z "},"Ç":{"ha":926,"x_min":69,"x_max":860,"o":"m 554 -17 q 408 6 479 -17 q 276 69 338 28 q 169 173 215 111 q 96 312 122 235 q 69 482 69 389 q 96 647 69 571 q 168 781 122 722 q 276 880 214 839 q 409 942 338 921 q 556 964 481 964 q 675 950 625 964 q 757 920 725 936 q 800 896 789 904 q 838 869 819 885 q 857 833 856 854 q 855 808 860 818 q 843 788 850 799 q 820 763 832 771 q 794 756 808 756 q 769 764 781 756 q 740 783 758 772 q 707 801 732 789 q 643 826 682 814 q 549 838 604 838 q 413 812 478 838 q 300 739 349 786 q 224 625 251 692 q 196 475 196 558 q 224 323 196 390 q 301 208 251 256 q 414 136 350 161 q 549 111 478 111 q 641 122 601 111 q 706 147 681 133 q 742 167 732 160 q 769 183 757 175 q 794 192 781 192 q 820 184 808 192 q 843 160 832 176 q 855 138 850 150 q 857 113 860 126 q 838 77 856 92 q 800 50 819 63 q 756 27 788 44 q 675 -3 725 10 q 554 -17 625 -17 m 511 -226 q 450 -212 481 -226 q 417 -179 419 -197 q 428 -151 417 -165 q 446 -131 439 -136 q 460 -126 453 -126 q 484 -136 469 -126 q 514 -146 499 -146 q 550 -131 533 -146 q 567 -93 567 -115 q 551 -54 567 -69 q 513 -39 535 -39 q 478 -49 492 -39 q 457 -60 465 -60 q 442 -53 450 -60 q 426 -33 435 -46 q 419 -16 421 -22 q 417 -4 417 -10 q 435 17 419 7 q 472 35 450 28 q 513 42 493 42 q 578 24 549 42 q 628 -22 608 7 q 647 -92 647 -51 q 629 -160 647 -129 q 581 -208 611 -190 q 511 -226 550 -226 z "},"D":{"ha":961,"x_min":90,"x_max":881,"o":"m 151 -14 q 115 -6 128 -14 q 96 17 101 3 q 90 50 90 32 l 90 894 q 95 926 90 913 q 114 949 100 940 q 153 957 128 957 l 426 956 q 613 922 529 956 q 757 825 697 888 q 849 674 817 763 q 881 476 881 585 q 849 274 881 364 q 756 119 817 183 q 611 21 696 56 q 422 -14 526 -14 l 151 -14 m 215 113 l 426 113 q 601 156 528 113 q 715 280 675 200 q 756 469 756 360 q 715 661 756 581 q 601 785 675 742 q 425 829 526 829 l 215 829 l 215 113 z "},"Ð":{"ha":1026,"x_min":33,"x_max":947,"o":"m 218 -14 q 181 -6 194 -14 q 163 17 168 3 q 157 50 157 32 l 157 894 q 162 926 157 913 q 181 949 167 940 q 219 957 194 957 l 493 956 q 680 922 596 956 q 824 825 764 888 q 915 674 883 763 q 947 476 947 585 q 915 274 947 364 q 823 119 883 183 q 678 21 763 56 q 489 -14 593 -14 l 218 -14 m 282 113 l 493 113 q 668 156 594 113 q 782 280 742 200 q 822 469 822 360 q 782 661 822 581 q 667 785 742 742 q 492 829 593 829 l 282 829 l 282 113 m 92 421 q 62 425 75 421 q 41 442 49 429 q 33 481 33 454 q 41 519 33 507 q 61 536 49 532 q 90 540 74 540 l 454 540 q 483 536 471 540 q 503 519 496 532 q 510 481 510 507 q 503 442 510 454 q 483 425 496 429 q 451 421 469 421 l 92 421 z "},"E":{"ha":865,"x_min":106,"x_max":792,"o":"m 168 -14 q 127 -6 140 -14 q 110 16 114 1 q 106 50 106 31 l 106 893 q 120 942 106 929 q 172 956 135 956 l 731 956 q 764 951 750 956 q 785 933 778 947 q 792 892 792 919 q 784 851 792 864 q 763 833 776 838 q 729 829 749 829 l 231 829 l 231 542 l 578 542 q 610 538 597 542 q 631 521 624 533 q 638 482 638 508 q 631 444 638 457 q 610 428 624 432 q 575 425 596 425 l 231 425 l 231 111 l 731 111 q 764 107 750 111 q 785 90 778 103 q 792 49 792 76 q 784 8 792 21 q 763 -10 776 -6 q 729 -14 749 -14 l 168 -14 z "},"É":{"ha":865,"x_min":106,"x_max":792,"o":"m 168 -14 q 127 -6 140 -14 q 110 16 114 1 q 106 50 106 31 l 106 893 q 120 942 106 929 q 172 956 135 956 l 731 956 q 764 951 750 956 q 785 933 778 947 q 792 892 792 919 q 784 851 792 864 q 763 833 776 838 q 729 829 749 829 l 231 829 l 231 542 l 578 542 q 610 538 597 542 q 631 521 624 533 q 638 482 638 508 q 631 444 638 457 q 610 428 624 432 q 575 425 596 425 l 231 425 l 231 111 l 731 111 q 764 107 750 111 q 785 90 778 103 q 792 49 792 76 q 784 8 792 21 q 763 -10 776 -6 q 729 -14 749 -14 l 168 -14 m 404 1028 q 369 1032 382 1024 q 349 1067 357 1040 q 345 1111 339 1096 q 378 1135 351 1126 l 600 1210 q 633 1205 621 1214 q 654 1169 646 1196 q 656 1126 664 1140 q 622 1101 649 1111 l 404 1028 z "},"Ê":{"ha":865,"x_min":106,"x_max":792,"o":"m 168 -14 q 127 -6 140 -14 q 110 16 114 1 q 106 50 106 31 l 106 893 q 120 942 106 929 q 172 956 135 956 l 731 956 q 764 951 750 956 q 785 933 778 947 q 792 892 792 919 q 784 851 792 864 q 763 833 776 838 q 729 829 749 829 l 231 829 l 231 542 l 578 542 q 610 538 597 542 q 631 521 624 533 q 638 482 638 508 q 631 444 638 457 q 610 428 624 432 q 575 425 596 425 l 231 425 l 231 111 l 731 111 q 764 107 750 111 q 785 90 778 103 q 792 49 792 76 q 784 8 792 21 q 763 -10 776 -6 q 729 -14 749 -14 l 168 -14 m 439 1213 q 451 1211 446 1213 q 461 1207 456 1210 l 610 1138 q 644 1110 638 1128 q 638 1065 651 1092 q 610 1033 625 1042 q 579 1033 596 1025 l 439 1104 l 300 1035 q 269 1035 283 1026 q 242 1068 254 1044 q 235 1110 228 1094 q 269 1138 242 1126 l 417 1207 q 427 1211 422 1210 q 439 1213 432 1213 z "},"Ë":{"ha":865,"x_min":106,"x_max":792,"o":"m 168 -14 q 127 -6 140 -14 q 110 16 114 1 q 106 50 106 31 l 106 893 q 120 942 106 929 q 172 956 135 956 l 731 956 q 764 951 750 956 q 785 933 778 947 q 792 892 792 919 q 784 851 792 864 q 763 833 776 838 q 729 829 749 829 l 231 829 l 231 542 l 578 542 q 610 538 597 542 q 631 521 624 533 q 638 482 638 508 q 631 444 638 457 q 610 428 624 432 q 575 425 596 425 l 231 425 l 231 111 l 731 111 q 764 107 750 111 q 785 90 778 103 q 792 49 792 76 q 784 8 792 21 q 763 -10 776 -6 q 729 -14 749 -14 l 168 -14 m 544 1058 q 496 1068 510 1058 q 479 1094 482 1078 q 476 1128 476 1111 q 479 1160 476 1144 q 497 1185 482 1175 q 544 1194 511 1194 q 593 1185 579 1194 q 610 1159 607 1175 q 613 1126 613 1143 q 610 1094 613 1111 q 593 1068 607 1078 q 544 1058 579 1058 m 342 1058 q 293 1068 307 1058 q 276 1094 279 1078 q 274 1128 274 1111 q 276 1160 274 1144 q 294 1185 279 1175 q 343 1194 308 1194 q 390 1185 376 1194 q 407 1159 404 1175 q 410 1126 410 1143 q 407 1094 410 1111 q 390 1068 404 1078 q 342 1058 376 1058 z "},"È":{"ha":865,"x_min":106,"x_max":792,"o":"m 168 -14 q 127 -6 140 -14 q 110 16 114 1 q 106 50 106 31 l 106 893 q 120 942 106 929 q 172 956 135 956 l 731 956 q 764 951 750 956 q 785 933 778 947 q 792 892 792 919 q 784 851 792 864 q 763 833 776 838 q 729 829 749 829 l 231 829 l 231 542 l 578 542 q 610 538 597 542 q 631 521 624 533 q 638 482 638 508 q 631 444 638 457 q 610 428 624 432 q 575 425 596 425 l 231 425 l 231 111 l 731 111 q 764 107 750 111 q 785 90 778 103 q 792 49 792 76 q 784 8 792 21 q 763 -10 776 -6 q 729 -14 749 -14 l 168 -14 m 443 1035 l 233 1106 q 201 1130 207 1115 q 203 1174 194 1144 q 227 1212 213 1204 q 268 1211 242 1219 l 479 1139 q 513 1115 507 1131 q 508 1071 518 1099 q 485 1033 499 1040 q 443 1035 471 1026 z "},"F":{"ha":876,"x_min":106,"x_max":790,"o":"m 168 -14 q 127 -6 140 -14 q 110 16 114 1 q 106 50 106 31 l 106 893 q 120 942 106 929 q 172 956 135 956 l 731 956 q 763 951 750 956 q 783 933 776 947 q 790 892 790 919 q 783 851 790 864 q 761 833 775 838 q 728 829 747 829 l 231 829 l 231 542 l 576 542 q 609 538 596 542 q 629 521 622 533 q 636 482 636 508 q 629 444 636 457 q 609 428 622 432 q 575 425 596 425 l 231 425 l 231 49 q 226 15 231 29 q 209 -6 222 1 q 168 -14 196 -14 z "},"G":{"ha":983,"x_min":78,"x_max":889,"o":"m 549 -17 q 354 19 440 -17 q 206 120 268 54 q 111 279 144 186 q 78 486 78 372 q 112 682 78 594 q 210 832 146 769 q 363 930 274 894 q 563 967 451 965 q 651 958 606 967 q 738 935 696 950 q 813 899 779 919 q 853 867 836 883 q 871 835 869 851 q 868 814 872 826 q 857 790 864 801 q 833 766 846 774 q 807 758 819 758 q 788 765 801 758 q 753 786 774 772 q 698 813 729 800 q 631 832 667 825 q 556 839 594 839 q 369 796 449 839 q 248 672 290 753 q 204 482 206 592 q 249 285 206 368 q 370 156 292 201 q 554 110 449 110 q 625 115 589 110 q 697 131 661 121 q 763 157 732 142 l 763 425 l 519 425 q 488 429 501 425 q 469 446 475 433 q 463 483 463 458 q 469 521 463 508 q 489 538 476 533 q 519 542 501 542 l 821 542 q 863 532 849 542 q 883 508 876 522 q 889 472 889 493 l 889 131 q 865 84 889 108 q 796 39 840 60 q 724 10 764 22 q 640 -10 685 -3 q 549 -17 596 -17 z "},"H":{"ha":954,"x_min":101,"x_max":853,"o":"m 789 -14 q 749 -6 763 -14 q 732 16 736 1 q 728 50 728 31 l 728 893 q 732 926 728 913 q 750 948 736 940 q 790 956 764 956 q 831 948 818 956 q 849 926 844 940 q 853 892 853 913 l 853 49 q 848 15 853 29 q 830 -6 843 1 q 789 -14 817 -14 m 164 -14 q 123 -6 136 -14 q 106 16 110 1 q 101 50 101 31 l 101 893 q 106 926 101 913 q 124 948 111 940 q 165 956 138 956 q 205 948 192 956 q 222 926 218 940 q 226 892 226 913 l 226 49 q 222 15 226 29 q 204 -6 218 1 q 164 -14 190 -14 m 169 425 l 169 542 l 750 542 l 749 425 l 169 425 z "},"I":{"ha":301,"x_min":88,"x_max":213,"o":"m 150 -14 q 109 -6 122 -14 q 92 16 96 1 q 88 50 88 31 l 88 893 q 92 926 88 913 q 110 948 97 940 q 151 956 124 956 q 192 948 179 956 q 209 926 206 940 q 213 892 213 913 l 213 49 q 208 15 213 29 q 191 -6 204 1 q 150 -14 178 -14 z "},"Í":{"ha":301,"x_min":26,"x_max":351,"o":"m 150 -14 q 109 -6 122 -14 q 92 16 96 1 q 88 50 88 31 l 88 893 q 92 926 88 913 q 110 948 97 940 q 151 956 124 956 q 192 948 179 956 q 209 926 206 940 q 213 892 213 913 l 213 49 q 208 15 213 29 q 191 -6 204 1 q 150 -14 178 -14 m 92 1018 q 57 1022 69 1014 q 36 1057 44 1031 q 33 1101 26 1086 q 65 1125 39 1117 l 288 1200 q 321 1195 308 1204 q 342 1160 333 1186 q 344 1116 351 1131 q 310 1092 336 1101 l 92 1018 z "},"Î":{"ha":301,"x_min":-65,"x_max":358,"o":"m 150 -14 q 109 -6 122 -14 q 92 16 96 1 q 88 50 88 31 l 88 893 q 92 926 88 913 q 110 948 97 940 q 151 956 124 956 q 192 948 179 956 q 209 926 206 940 q 213 892 213 913 l 213 49 q 208 15 213 29 q 191 -6 204 1 q 150 -14 178 -14 m 146 1213 q 158 1211 153 1213 q 168 1207 163 1210 l 317 1138 q 351 1110 344 1128 q 344 1065 358 1092 q 317 1033 332 1042 q 286 1033 303 1025 l 146 1104 l 7 1035 q -24 1035 -10 1026 q -51 1068 -39 1044 q -58 1110 -65 1094 q -24 1138 -51 1126 l 124 1207 q 134 1211 129 1210 q 146 1213 139 1213 z "},"Ï":{"ha":301,"x_min":-19,"x_max":319,"o":"m 150 -14 q 109 -6 122 -14 q 92 16 96 1 q 88 50 88 31 l 88 893 q 92 926 88 913 q 110 948 97 940 q 151 956 124 956 q 192 948 179 956 q 209 926 206 940 q 213 892 213 913 l 213 49 q 208 15 213 29 q 191 -6 204 1 q 150 -14 178 -14 m 251 1058 q 203 1068 217 1058 q 186 1094 189 1078 q 183 1128 183 1111 q 186 1160 183 1144 q 203 1185 189 1175 q 251 1194 218 1194 q 300 1185 286 1194 q 317 1159 314 1175 q 319 1126 319 1143 q 317 1094 319 1111 q 300 1068 314 1078 q 251 1058 286 1058 m 49 1058 q 0 1068 14 1058 q -17 1094 -14 1078 q -19 1128 -19 1111 q -17 1160 -19 1144 q 1 1185 -14 1175 q 50 1194 15 1194 q 97 1185 83 1194 q 114 1159 111 1175 q 117 1126 117 1143 q 114 1094 117 1111 q 97 1068 111 1078 q 49 1058 83 1058 z "},"Ì":{"ha":301,"x_min":-99,"x_max":225,"o":"m 150 -14 q 109 -6 122 -14 q 92 16 96 1 q 88 50 88 31 l 88 893 q 92 926 88 913 q 110 948 97 940 q 151 956 124 956 q 192 948 179 956 q 209 926 206 940 q 213 892 213 913 l 213 49 q 208 15 213 29 q 191 -6 204 1 q 150 -14 178 -14 m 150 1035 l -60 1106 q -92 1130 -86 1115 q -90 1174 -99 1144 q -66 1212 -81 1204 q -25 1211 -51 1219 l 186 1139 q 219 1115 214 1131 q 215 1071 225 1099 q 192 1033 206 1040 q 150 1035 178 1026 z "},"J":{"ha":757,"x_min":57,"x_max":649,"o":"m 340 -18 q 262 -8 300 -18 q 192 17 224 1 q 135 50 160 32 q 93 85 110 68 q 67 113 78 100 q 57 136 57 125 q 65 162 57 149 q 83 185 74 175 q 109 205 99 200 q 129 210 119 210 q 160 197 149 210 q 196 163 172 185 q 232 139 210 153 q 283 115 254 125 q 346 104 313 104 q 425 121 392 104 q 480 168 458 138 q 513 240 501 199 q 524 328 524 281 l 524 882 q 528 921 524 904 q 547 947 532 938 q 589 956 561 956 q 628 948 615 956 q 644 926 640 940 q 649 892 649 911 l 649 317 q 628 182 649 243 q 569 76 608 121 q 473 7 531 32 q 340 -18 415 -18 z "},"K":{"ha":821,"x_min":96,"x_max":753,"o":"m 158 -14 q 117 -6 131 -14 q 100 15 104 1 q 96 49 96 29 l 96 894 q 101 927 96 913 q 119 949 106 942 q 160 956 132 956 q 201 948 188 956 q 218 926 214 940 q 222 893 222 913 l 222 557 l 632 936 q 663 958 649 953 q 690 958 676 964 q 721 936 704 953 q 747 891 747 910 q 721 849 746 872 l 307 472 l 726 93 q 753 49 753 68 q 726 4 753 29 q 694 -18 708 -12 q 667 -18 681 -24 q 638 6 654 -12 l 222 388 l 222 47 q 218 14 222 28 q 200 -7 214 0 q 158 -14 186 -14 z "},"L":{"ha":775,"x_min":90,"x_max":739,"o":"m 156 -14 q 114 -6 128 -14 q 95 15 100 1 q 90 49 90 29 l 90 892 q 94 926 90 913 q 112 948 99 940 q 153 956 125 956 q 194 948 181 956 q 211 926 207 940 q 215 893 215 913 l 215 103 l 681 103 q 711 99 699 103 q 731 82 724 94 q 739 44 739 69 q 732 8 739 21 q 713 -10 725 -6 q 682 -14 700 -14 l 156 -14 z "},"Ł":{"ha":853,"x_min":17,"x_max":818,"o":"m 94 328 q 51 326 67 318 q 25 364 35 333 q 24 410 17 394 q 60 433 31 425 l 429 556 q 472 556 458 564 q 496 518 486 549 q 497 474 504 489 q 461 450 489 458 l 94 328 m 235 -14 q 193 -6 207 -14 q 175 15 179 1 q 171 49 171 29 l 171 892 q 174 926 171 913 q 192 948 178 940 q 232 956 206 956 q 273 948 260 956 q 291 926 286 940 q 296 893 296 913 l 296 103 l 760 103 q 791 99 778 103 q 811 82 804 94 q 818 44 818 69 q 811 8 818 21 q 792 -10 804 -6 q 763 -14 781 -14 l 235 -14 z "},"M":{"ha":1146,"x_min":96,"x_max":1050,"o":"m 158 -14 q 120 -6 133 -14 q 101 17 107 3 q 96 50 96 32 l 96 894 q 101 926 96 913 q 121 947 107 939 q 161 956 135 956 q 194 953 182 956 q 215 945 207 950 q 231 931 222 940 l 593 406 l 550 406 l 917 935 q 933 949 925 944 q 955 954 942 953 q 986 956 968 956 q 1026 947 1013 956 q 1044 924 1039 939 q 1050 892 1050 910 l 1050 47 q 1044 17 1050 31 q 1025 -6 1039 3 q 985 -14 1011 -14 q 947 -6 960 -14 q 928 17 933 3 q 924 50 924 32 l 924 747 l 626 310 q 615 297 622 303 q 598 286 608 290 q 572 282 588 282 q 547 286 556 282 q 531 297 538 290 q 517 311 524 303 l 221 746 l 221 47 q 216 17 221 31 q 198 -6 211 3 q 158 -14 185 -14 z "},"N":{"ha":983,"x_min":90,"x_max":872,"o":"m 150 -14 q 113 -6 126 -14 q 95 17 100 3 q 90 51 90 32 l 90 897 q 96 928 90 915 q 116 948 101 940 q 157 956 131 956 q 200 950 188 956 q 225 931 213 944 l 747 192 l 747 897 q 752 928 747 915 q 771 948 757 940 q 811 956 785 956 q 849 947 836 956 q 867 924 863 939 q 872 892 872 910 l 872 50 q 866 17 872 32 q 845 -6 860 3 q 804 -14 831 -14 q 767 -8 782 -14 q 740 13 753 -3 l 215 746 l 215 50 q 210 17 215 32 q 190 -6 204 3 q 150 -14 176 -14 z "},"Ñ":{"ha":983,"x_min":90,"x_max":872,"o":"m 150 -14 q 113 -6 126 -14 q 95 17 100 3 q 90 51 90 32 l 90 897 q 96 928 90 915 q 116 948 101 940 q 157 956 131 956 q 200 950 188 956 q 225 931 213 944 l 747 192 l 747 897 q 752 928 747 915 q 771 948 757 940 q 811 956 785 956 q 849 947 836 956 q 867 924 863 939 q 872 892 872 910 l 872 50 q 866 17 872 32 q 845 -6 860 3 q 804 -14 831 -14 q 767 -8 782 -14 q 740 13 753 -3 l 215 746 l 215 50 q 210 17 215 32 q 190 -6 204 3 q 150 -14 176 -14 m 415 1183 q 474 1167 451 1183 q 517 1135 497 1151 q 556 1119 536 1119 q 578 1128 568 1119 q 599 1147 589 1136 q 619 1164 610 1157 q 642 1176 628 1175 q 672 1169 657 1178 q 697 1146 689 1158 q 699 1118 704 1133 q 674 1067 694 1090 q 624 1028 653 1043 q 560 1014 594 1014 q 509 1030 533 1014 q 463 1063 485 1046 q 419 1079 442 1079 q 381 1067 399 1079 q 356 1040 364 1056 q 334 1025 349 1029 q 300 1033 319 1021 q 276 1063 281 1046 q 281 1097 271 1079 q 315 1140 293 1119 q 365 1172 338 1160 q 415 1183 392 1183 z "},"O":{"ha":1017,"x_min":36,"x_max":981,"o":"m 515 -24 q 330 14 417 -24 q 177 119 243 51 q 74 274 111 186 q 36 463 36 361 q 72 656 36 565 q 173 815 108 747 q 322 922 238 883 q 503 961 407 961 q 690 924 603 961 q 841 819 776 886 q 943 661 906 751 q 981 468 981 571 q 944 278 981 367 q 843 122 907 190 q 695 15 779 53 q 515 -24 611 -24 m 507 103 q 642 131 579 103 q 753 209 706 158 q 827 326 800 260 q 854 469 854 392 q 827 610 854 544 q 752 727 800 676 q 642 807 704 778 q 508 836 579 836 q 375 807 438 836 q 265 728 313 778 q 190 611 217 678 q 163 468 163 544 q 190 326 163 393 q 265 210 217 260 q 374 131 313 160 q 507 103 436 103 z "},"Ó":{"ha":1017,"x_min":36,"x_max":981,"o":"m 515 -24 q 330 14 417 -24 q 177 119 243 51 q 74 274 111 186 q 36 463 36 361 q 72 656 36 565 q 173 815 108 747 q 322 922 238 883 q 503 961 407 961 q 690 924 603 961 q 841 819 776 886 q 943 661 906 751 q 981 468 981 571 q 944 278 981 367 q 843 122 907 190 q 695 15 779 53 q 515 -24 611 -24 m 507 103 q 642 131 579 103 q 753 209 706 158 q 827 326 800 260 q 854 469 854 392 q 827 610 854 544 q 752 727 800 676 q 642 807 704 778 q 508 836 579 836 q 375 807 438 836 q 265 728 313 778 q 190 611 217 678 q 163 468 163 544 q 190 326 163 393 q 265 210 217 260 q 374 131 313 160 q 507 103 436 103 m 454 1018 q 419 1022 432 1014 q 399 1057 407 1031 q 395 1101 389 1086 q 428 1125 401 1117 l 650 1200 q 683 1195 671 1204 q 704 1160 696 1186 q 706 1116 714 1131 q 672 1092 699 1101 l 454 1018 z "},"Ô":{"ha":1017,"x_min":36,"x_max":981,"o":"m 515 -24 q 330 14 417 -24 q 177 119 243 51 q 74 274 111 186 q 36 463 36 361 q 72 656 36 565 q 173 815 108 747 q 322 922 238 883 q 503 961 407 961 q 690 924 603 961 q 841 819 776 886 q 943 661 906 751 q 981 468 981 571 q 944 278 981 367 q 843 122 907 190 q 695 15 779 53 q 515 -24 611 -24 m 507 103 q 642 131 579 103 q 753 209 706 158 q 827 326 800 260 q 854 469 854 392 q 827 610 854 544 q 752 727 800 676 q 642 807 704 778 q 508 836 579 836 q 375 807 438 836 q 265 728 313 778 q 190 611 217 678 q 163 468 163 544 q 190 326 163 393 q 265 210 217 260 q 374 131 313 160 q 507 103 436 103 m 508 1213 q 520 1211 515 1213 q 531 1207 525 1210 l 679 1138 q 714 1110 707 1128 q 707 1065 721 1092 q 680 1033 694 1042 q 649 1033 665 1025 l 508 1104 l 369 1035 q 338 1035 353 1026 q 311 1068 324 1044 q 304 1110 297 1094 q 339 1138 311 1126 l 486 1207 q 497 1211 492 1210 q 508 1213 501 1213 z "},"Ö":{"ha":1017,"x_min":36,"x_max":981,"o":"m 515 -24 q 330 14 417 -24 q 177 119 243 51 q 74 274 111 186 q 36 463 36 361 q 72 656 36 565 q 173 815 108 747 q 322 922 238 883 q 503 961 407 961 q 690 924 603 961 q 841 819 776 886 q 943 661 906 751 q 981 468 981 571 q 944 278 981 367 q 843 122 907 190 q 695 15 779 53 q 515 -24 611 -24 m 507 103 q 642 131 579 103 q 753 209 706 158 q 827 326 800 260 q 854 469 854 392 q 827 610 854 544 q 752 727 800 676 q 642 807 704 778 q 508 836 579 836 q 375 807 438 836 q 265 728 313 778 q 190 611 217 678 q 163 468 163 544 q 190 326 163 393 q 265 210 217 260 q 374 131 313 160 q 507 103 436 103 m 614 1058 q 565 1068 579 1058 q 549 1094 551 1078 q 546 1128 546 1111 q 549 1160 546 1144 q 566 1185 551 1175 q 614 1194 581 1194 q 663 1185 649 1194 q 679 1159 676 1175 q 682 1126 682 1143 q 679 1094 682 1111 q 663 1068 676 1078 q 614 1058 649 1058 m 411 1058 q 363 1068 376 1058 q 346 1094 349 1078 q 343 1128 343 1111 q 346 1160 343 1144 q 363 1185 349 1175 q 413 1194 378 1194 q 460 1185 446 1194 q 476 1159 474 1175 q 479 1126 479 1143 q 476 1094 479 1111 q 460 1068 474 1078 q 411 1058 446 1058 z "},"Ò":{"ha":1017,"x_min":36,"x_max":981,"o":"m 515 -24 q 330 14 417 -24 q 177 119 243 51 q 74 274 111 186 q 36 463 36 361 q 72 656 36 565 q 173 815 108 747 q 322 922 238 883 q 503 961 407 961 q 690 924 603 961 q 841 819 776 886 q 943 661 906 751 q 981 468 981 571 q 944 278 981 367 q 843 122 907 190 q 695 15 779 53 q 515 -24 611 -24 m 507 103 q 642 131 579 103 q 753 209 706 158 q 827 326 800 260 q 854 469 854 392 q 827 610 854 544 q 752 727 800 676 q 642 807 704 778 q 508 836 579 836 q 375 807 438 836 q 265 728 313 778 q 190 611 217 678 q 163 468 163 544 q 190 326 163 393 q 265 210 217 260 q 374 131 313 160 q 507 103 436 103 m 513 1035 l 303 1106 q 270 1130 276 1115 q 272 1174 264 1144 q 297 1212 282 1204 q 338 1211 311 1219 l 549 1139 q 582 1115 576 1131 q 578 1071 588 1099 q 554 1033 568 1040 q 513 1035 540 1026 z "},"Ø":{"ha":1024,"x_min":40,"x_max":983,"o":"m 519 -24 q 333 14 419 -24 q 180 119 246 51 q 77 274 114 186 q 40 463 40 361 q 76 656 40 565 q 176 815 113 747 q 325 922 240 883 q 507 961 410 961 q 692 924 606 961 q 844 819 779 886 q 947 661 910 751 q 983 468 983 571 q 947 278 983 367 q 847 122 911 190 q 698 15 782 53 q 519 -24 614 -24 m 511 103 q 647 131 583 103 q 757 209 710 158 q 831 326 804 260 q 857 469 857 392 q 831 610 857 544 q 756 727 804 676 q 646 807 708 778 q 513 836 583 836 q 378 807 442 836 q 267 728 315 778 q 192 611 219 678 q 165 468 165 544 q 193 326 165 393 q 268 210 221 260 q 378 131 315 160 q 511 103 440 103 m 264 -43 q 228 -11 233 -28 q 236 36 222 6 l 674 954 q 706 991 689 985 q 754 981 724 997 q 791 948 786 965 q 781 900 796 931 l 346 -17 q 315 -51 332 -46 q 264 -43 297 -57 z "},"Õ":{"ha":1017,"x_min":36,"x_max":981,"o":"m 515 -24 q 330 14 417 -24 q 177 119 243 51 q 74 274 111 186 q 36 463 36 361 q 72 656 36 565 q 173 815 108 747 q 322 922 238 883 q 503 961 407 961 q 690 924 603 961 q 841 819 776 886 q 943 661 906 751 q 981 468 981 571 q 944 278 981 367 q 843 122 907 190 q 695 15 779 53 q 515 -24 611 -24 m 507 103 q 642 131 579 103 q 753 209 706 158 q 827 326 800 260 q 854 469 854 392 q 827 610 854 544 q 752 727 800 676 q 642 807 704 778 q 508 836 579 836 q 375 807 438 836 q 265 728 313 778 q 190 611 217 678 q 163 468 163 544 q 190 326 163 393 q 265 210 217 260 q 374 131 313 160 q 507 103 436 103 m 432 1183 q 491 1167 468 1183 q 533 1135 514 1151 q 572 1119 553 1119 q 595 1128 585 1119 q 616 1147 606 1136 q 636 1164 626 1157 q 659 1176 644 1175 q 689 1169 674 1178 q 713 1146 706 1158 q 715 1118 721 1133 q 690 1067 711 1090 q 640 1028 669 1043 q 576 1014 611 1014 q 526 1030 550 1014 q 480 1063 501 1046 q 436 1079 458 1079 q 398 1067 415 1079 q 372 1040 381 1056 q 351 1025 365 1029 q 317 1033 336 1021 q 292 1063 297 1046 q 297 1097 288 1079 q 332 1140 310 1119 q 381 1172 354 1160 q 432 1183 408 1183 z "},"Œ":{"ha":1476,"x_min":63,"x_max":1414,"o":"m 494 -14 q 319 23 399 -12 q 183 123 240 58 q 94 275 125 188 q 63 468 63 363 q 94 663 63 574 q 183 817 125 751 q 319 919 240 883 q 493 956 397 956 l 1351 956 q 1385 951 1371 956 q 1406 933 1399 947 q 1414 892 1414 919 q 1406 851 1414 864 q 1383 835 1397 839 q 1350 831 1369 831 l 853 831 l 853 538 l 1196 538 q 1229 533 1215 538 q 1250 515 1243 529 q 1257 474 1257 501 q 1249 433 1257 446 q 1227 415 1242 419 q 1193 411 1213 411 l 853 411 l 853 108 l 1351 108 q 1385 105 1371 108 q 1406 89 1399 101 q 1414 47 1414 76 q 1406 7 1414 21 q 1383 -10 1397 -7 q 1350 -14 1369 -14 l 494 -14 m 490 108 l 726 108 l 726 831 l 490 831 q 333 784 401 831 q 227 657 265 738 q 189 472 189 576 q 227 283 189 365 q 333 156 265 201 q 490 108 401 110 z "},"P":{"ha":835,"x_min":96,"x_max":774,"o":"m 157 -14 q 117 -6 131 -14 q 100 16 104 1 q 96 50 96 31 l 96 893 q 101 925 96 911 q 119 947 106 939 q 158 956 133 956 l 463 956 q 585 935 529 956 q 684 874 642 915 q 750 775 726 833 q 774 640 774 717 q 750 507 774 565 q 683 409 726 449 q 584 349 640 369 q 461 328 528 328 l 222 328 l 222 49 q 217 15 222 29 q 199 -6 213 1 q 157 -14 186 -14 m 222 454 l 463 454 q 560 476 518 454 q 625 540 601 497 q 649 643 649 582 q 626 743 649 701 q 562 807 604 785 q 461 829 519 829 l 222 829 l 222 454 z "},"Þ":{"ha":824,"x_min":92,"x_max":771,"o":"m 154 -14 q 113 -6 126 -14 q 96 16 100 1 q 92 50 92 31 l 92 893 q 97 926 92 913 q 115 948 101 940 q 156 956 128 956 q 197 948 183 956 q 214 926 210 940 q 218 892 218 913 l 218 789 l 458 789 q 574 766 518 789 q 674 701 629 743 q 744 601 718 658 q 771 474 771 543 q 744 347 771 404 q 674 247 718 289 q 573 183 629 206 q 457 161 517 161 l 218 161 l 218 49 q 214 15 218 29 q 196 -6 210 1 q 154 -14 182 -14 m 218 288 l 458 288 q 551 311 508 288 q 619 378 593 335 q 646 475 646 421 q 620 571 646 528 q 552 638 594 614 q 457 663 510 663 l 218 663 l 218 288 z "},"Q":{"ha":1126,"x_min":36,"x_max":1092,"o":"m 1056 111 q 1088 73 1085 92 q 1071 25 1092 54 q 1044 -3 1057 4 q 1017 -7 1032 -11 q 985 10 1003 -3 l 832 113 q 688 13 769 50 q 515 -24 607 -24 q 330 14 417 -24 q 177 119 243 51 q 74 274 111 186 q 36 463 36 363 q 72 656 36 565 q 173 815 108 747 q 322 922 238 883 q 503 961 407 961 q 690 924 603 961 q 841 819 776 886 q 943 661 906 751 q 981 468 981 571 q 962 332 981 397 q 908 211 943 267 l 1056 111 m 507 103 q 642 131 579 103 q 753 209 706 158 q 827 326 800 260 q 854 469 854 393 q 827 610 854 544 q 752 727 800 676 q 642 807 704 778 q 508 836 579 836 q 374 807 438 836 q 263 728 311 778 q 189 611 215 678 q 163 468 163 544 q 190 326 163 393 q 265 210 217 260 q 374 131 313 160 q 507 103 436 103 z "},"R":{"ha":867,"x_min":106,"x_max":803,"o":"m 167 -14 q 126 -6 140 -14 q 109 16 113 1 q 106 50 106 31 l 106 894 q 110 926 106 913 q 128 947 115 939 q 168 956 142 956 l 475 956 q 599 935 543 956 q 697 876 656 915 q 762 778 739 838 q 785 642 785 719 q 769 541 785 593 q 723 443 754 489 q 643 367 692 397 q 525 332 594 336 l 231 332 l 231 49 q 226 15 231 29 q 208 -6 221 1 q 167 -14 194 -14 m 763 1 q 713 -11 733 -18 q 675 22 693 -4 l 453 378 l 590 399 l 782 93 q 799 56 796 71 q 794 28 803 40 q 763 1 785 15 m 231 454 l 506 454 q 565 466 538 454 q 614 501 593 478 q 647 560 635 525 q 660 643 660 594 q 638 744 660 703 q 575 808 617 786 q 472 829 533 829 l 231 829 l 231 454 z "},"S":{"ha":769,"x_min":56,"x_max":713,"o":"m 376 -28 q 277 -15 324 -28 q 192 19 231 -3 q 125 67 154 40 q 79 119 96 93 q 60 156 64 142 q 62 185 56 171 q 88 215 68 199 q 126 231 110 232 q 158 218 143 231 q 188 185 172 206 q 272 116 222 138 q 371 94 322 94 q 482 111 433 94 q 559 162 531 128 q 588 250 588 196 q 565 325 588 294 q 506 377 543 356 q 422 415 468 399 q 329 446 376 431 q 256 474 292 458 q 188 510 219 490 q 131 558 156 531 q 94 624 107 586 q 81 711 81 661 q 117 846 81 788 q 221 937 154 904 q 375 969 288 969 q 469 960 426 969 q 546 934 513 950 q 603 901 579 918 q 639 868 626 883 q 667 824 664 842 q 646 779 669 806 q 603 753 624 754 q 557 772 582 751 q 502 819 531 803 q 442 842 474 836 q 374 849 411 849 q 306 840 338 849 q 252 813 275 831 q 217 769 229 794 q 204 710 204 743 q 224 646 204 672 q 278 601 244 619 q 353 567 311 582 q 440 539 394 553 q 539 502 490 524 q 626 449 588 481 q 689 371 665 418 q 713 254 713 324 q 685 132 713 185 q 611 44 658 79 q 503 -10 564 8 q 376 -28 443 -28 z "},"Š":{"ha":769,"x_min":56,"x_max":713,"o":"m 376 -28 q 277 -15 324 -28 q 192 19 231 -3 q 125 67 154 40 q 79 119 96 93 q 60 156 64 142 q 62 185 56 171 q 88 215 68 199 q 126 231 110 232 q 158 218 143 231 q 188 185 172 206 q 272 116 222 138 q 371 94 322 94 q 482 111 433 94 q 559 162 531 128 q 588 250 588 196 q 565 325 588 294 q 506 377 543 356 q 422 415 468 399 q 329 446 376 431 q 256 474 292 458 q 188 510 219 490 q 131 558 156 531 q 94 624 107 586 q 81 711 81 661 q 117 846 81 788 q 221 937 154 904 q 375 969 288 969 q 469 960 426 969 q 546 934 513 950 q 603 901 579 918 q 639 868 626 883 q 667 824 664 842 q 646 779 669 806 q 603 753 624 754 q 557 772 582 751 q 502 819 531 803 q 442 842 474 836 q 374 849 411 849 q 306 840 338 849 q 252 813 275 831 q 217 769 229 794 q 204 710 204 743 q 224 646 204 672 q 278 601 244 619 q 353 567 311 582 q 440 539 394 553 q 539 502 490 524 q 626 449 588 481 q 689 371 665 418 q 713 254 713 324 q 685 132 713 185 q 611 44 658 79 q 503 -10 564 8 q 376 -28 443 -28 m 379 1138 l 504 1204 q 528 1212 517 1210 q 553 1206 540 1214 q 576 1176 565 1199 q 585 1132 592 1149 q 549 1104 578 1115 l 400 1035 q 391 1031 396 1032 q 379 1029 386 1029 q 367 1031 372 1029 q 357 1035 361 1032 l 208 1104 q 175 1132 182 1115 q 181 1174 168 1149 q 205 1205 193 1197 q 228 1212 217 1213 q 250 1206 239 1211 l 379 1138 z "},"T":{"ha":922,"x_min":53,"x_max":871,"o":"m 815 956 q 845 951 833 956 q 864 935 857 947 q 871 897 871 924 q 863 860 871 872 q 843 844 856 847 q 813 840 831 840 l 525 840 l 525 47 q 520 15 525 29 q 502 -6 515 1 q 463 -14 489 -14 q 422 -6 435 -14 q 405 16 408 1 q 401 49 401 31 l 401 840 l 110 840 q 79 844 92 840 q 60 860 67 847 q 53 897 53 872 q 59 935 53 924 q 78 951 65 947 q 108 956 92 956 l 815 956 z "},"U":{"ha":990,"x_min":100,"x_max":890,"o":"m 493 -18 q 327 15 400 -18 q 203 106 254 47 q 126 247 153 165 q 100 424 100 328 l 100 893 q 105 926 100 913 q 123 948 110 940 q 164 956 136 956 q 206 948 192 956 q 224 926 219 940 q 228 892 228 913 l 228 424 q 258 260 228 331 q 349 148 289 189 q 497 107 408 107 q 640 146 581 107 q 732 256 700 185 q 764 425 764 326 l 764 901 q 769 930 764 918 q 788 949 774 942 q 829 956 801 956 q 869 948 856 956 q 886 926 882 940 q 890 892 890 913 l 890 421 q 864 244 890 324 q 787 105 838 164 q 662 14 736 46 q 493 -18 588 -18 z "},"Ú":{"ha":990,"x_min":100,"x_max":890,"o":"m 493 -18 q 327 15 400 -18 q 203 106 254 47 q 126 247 153 165 q 100 424 100 328 l 100 893 q 105 926 100 913 q 123 948 110 940 q 164 956 136 956 q 206 948 192 956 q 224 926 219 940 q 228 892 228 913 l 228 424 q 258 260 228 331 q 349 148 289 189 q 497 107 408 107 q 640 146 581 107 q 732 256 700 185 q 764 425 764 326 l 764 901 q 769 930 764 918 q 788 949 774 942 q 829 956 801 956 q 869 948 856 956 q 886 926 882 940 q 890 892 890 913 l 890 421 q 864 244 890 324 q 787 105 838 164 q 662 14 736 46 q 493 -18 588 -18 m 439 1018 q 404 1022 417 1014 q 383 1057 392 1031 q 380 1101 374 1086 q 413 1125 386 1117 l 635 1200 q 668 1195 656 1204 q 689 1160 681 1186 q 691 1116 699 1131 q 657 1092 683 1101 l 439 1018 z "},"Û":{"ha":990,"x_min":100,"x_max":890,"o":"m 493 -18 q 327 15 400 -18 q 203 106 254 47 q 126 247 153 165 q 100 424 100 328 l 100 893 q 105 926 100 913 q 123 948 110 940 q 164 956 136 956 q 206 948 192 956 q 224 926 219 940 q 228 892 228 913 l 228 424 q 258 260 228 331 q 349 148 289 189 q 497 107 408 107 q 640 146 581 107 q 732 256 700 185 q 764 425 764 326 l 764 901 q 769 930 764 918 q 788 949 774 942 q 829 956 801 956 q 869 948 856 956 q 886 926 882 940 q 890 892 890 913 l 890 421 q 864 244 890 324 q 787 105 838 164 q 662 14 736 46 q 493 -18 588 -18 m 493 1213 q 505 1211 500 1213 q 515 1207 510 1210 l 664 1138 q 699 1110 692 1128 q 692 1065 706 1092 q 665 1033 679 1042 q 633 1033 650 1025 l 493 1104 l 354 1035 q 323 1035 338 1026 q 296 1068 308 1044 q 289 1110 282 1094 q 324 1138 296 1126 l 471 1207 q 481 1211 476 1210 q 493 1213 486 1213 z "},"Ü":{"ha":990,"x_min":100,"x_max":890,"o":"m 493 -18 q 327 15 400 -18 q 203 106 254 47 q 126 247 153 165 q 100 424 100 328 l 100 893 q 105 926 100 913 q 123 948 110 940 q 164 956 136 956 q 206 948 192 956 q 224 926 219 940 q 228 892 228 913 l 228 424 q 258 260 228 331 q 349 148 289 189 q 497 107 408 107 q 640 146 581 107 q 732 256 700 185 q 764 425 764 326 l 764 901 q 769 930 764 918 q 788 949 774 942 q 829 956 801 956 q 869 948 856 956 q 886 926 882 940 q 890 892 890 913 l 890 421 q 864 244 890 324 q 787 105 838 164 q 662 14 736 46 q 493 -18 588 -18 m 599 1058 q 550 1068 564 1058 q 533 1094 536 1078 q 531 1128 531 1111 q 533 1160 531 1144 q 551 1185 536 1175 q 599 1194 565 1194 q 647 1185 633 1194 q 664 1159 661 1175 q 667 1126 667 1143 q 664 1094 667 1111 q 647 1068 661 1078 q 599 1058 633 1058 m 396 1058 q 347 1068 361 1058 q 331 1094 333 1078 q 328 1128 328 1111 q 331 1160 328 1144 q 348 1185 333 1175 q 397 1194 363 1194 q 444 1185 431 1194 q 461 1159 458 1175 q 464 1126 464 1143 q 461 1094 464 1111 q 444 1068 458 1078 q 396 1058 431 1058 z "},"Ù":{"ha":990,"x_min":100,"x_max":890,"o":"m 493 -18 q 327 15 400 -18 q 203 106 254 47 q 126 247 153 165 q 100 424 100 328 l 100 893 q 105 926 100 913 q 123 948 110 940 q 164 956 136 956 q 206 948 192 956 q 224 926 219 940 q 228 892 228 913 l 228 424 q 258 260 228 331 q 349 148 289 189 q 497 107 408 107 q 640 146 581 107 q 732 256 700 185 q 764 425 764 326 l 764 901 q 769 930 764 918 q 788 949 774 942 q 829 956 801 956 q 869 948 856 956 q 886 926 882 940 q 890 892 890 913 l 890 421 q 864 244 890 324 q 787 105 838 164 q 662 14 736 46 q 493 -18 588 -18 m 497 1035 l 288 1106 q 255 1130 261 1115 q 257 1174 249 1144 q 281 1212 267 1204 q 322 1211 296 1219 l 533 1139 q 567 1115 561 1131 q 563 1071 572 1099 q 539 1033 553 1040 q 497 1035 525 1026 z "},"V":{"ha":1006,"x_min":72,"x_max":929,"o":"m 503 -14 q 462 -6 478 -14 q 438 19 446 1 l 86 878 q 81 925 72 911 q 121 954 90 939 q 155 965 140 964 q 181 956 169 965 q 201 926 193 947 l 503 161 l 803 914 q 822 949 811 936 q 849 965 832 963 q 890 953 865 967 q 929 913 929 935 q 918 865 929 892 l 568 21 q 544 -5 561 4 q 503 -14 528 -14 z "},"W":{"ha":1340,"x_min":38,"x_max":1299,"o":"m 390 -8 q 358 -2 369 -8 q 340 15 346 4 q 332 35 335 25 l 49 872 q 45 923 38 906 q 88 951 53 940 q 124 958 110 958 q 149 947 139 957 q 167 914 160 936 l 396 215 l 606 908 q 616 932 610 921 q 635 949 622 943 q 668 956 647 956 q 704 949 692 956 q 723 933 717 942 q 731 914 729 924 l 944 211 l 1172 911 q 1190 947 1181 935 q 1216 960 1200 958 q 1256 953 1232 961 q 1289 936 1279 946 q 1299 911 1299 926 q 1292 872 1299 896 l 1008 33 q 999 14 1006 24 q 981 -2 993 4 q 949 -8 969 -8 q 917 -1 929 -8 q 898 17 904 6 q 888 39 892 29 l 669 740 l 451 39 q 442 17 449 29 q 423 -1 435 6 q 390 -8 411 -8 z "},"X":{"ha":964,"x_min":85,"x_max":881,"o":"m 851 -8 q 818 -27 832 -22 q 792 -24 804 -32 q 764 1 779 -17 l 107 854 q 85 901 85 882 q 114 943 86 921 q 146 964 132 960 q 173 961 160 968 q 201 935 186 954 l 858 79 q 880 33 881 53 q 851 -8 879 14 m 114 -8 q 85 33 86 14 q 107 79 85 53 l 764 935 q 792 961 779 954 q 819 964 804 968 q 851 943 833 960 q 880 901 879 921 q 858 854 881 882 l 201 1 q 173 -24 186 -17 q 146 -27 160 -32 q 114 -8 132 -22 z "},"Y":{"ha":886,"x_min":36,"x_max":851,"o":"m 815 951 q 848 913 844 931 q 833 869 851 894 l 507 374 l 507 47 q 503 15 507 29 q 485 -8 499 0 q 444 -15 472 -15 q 403 -8 417 -15 q 385 15 390 0 q 381 50 381 31 l 381 375 l 53 867 q 40 910 36 892 q 74 950 44 929 q 109 967 94 964 q 136 963 124 971 q 160 936 149 956 l 443 492 l 728 936 q 752 963 740 956 q 779 967 764 969 q 815 951 794 965 z "},"Ý":{"ha":886,"x_min":36,"x_max":851,"o":"m 815 951 q 848 913 844 931 q 833 869 851 894 l 507 374 l 507 47 q 503 15 507 29 q 485 -8 499 0 q 444 -15 472 -15 q 403 -8 417 -15 q 385 15 390 0 q 381 50 381 31 l 381 375 l 53 867 q 40 910 36 892 q 74 950 44 929 q 109 967 94 964 q 136 963 124 971 q 160 936 149 956 l 443 492 l 728 936 q 752 963 740 956 q 779 967 764 969 q 815 951 794 965 m 389 1018 q 354 1022 367 1014 q 333 1057 342 1031 q 330 1101 324 1086 q 363 1125 336 1117 l 585 1200 q 618 1195 606 1204 q 639 1160 631 1186 q 641 1116 649 1131 q 607 1092 633 1101 l 389 1018 z "},"Ÿ":{"ha":886,"x_min":36,"x_max":851,"o":"m 815 951 q 848 913 844 931 q 833 869 851 894 l 507 374 l 507 47 q 503 15 507 29 q 485 -8 499 0 q 444 -15 472 -15 q 403 -8 417 -15 q 385 15 390 0 q 381 50 381 31 l 381 375 l 53 867 q 40 910 36 892 q 74 950 44 929 q 109 967 94 964 q 136 963 124 971 q 160 936 149 956 l 443 492 l 728 936 q 752 963 740 956 q 779 967 764 969 q 815 951 794 965 m 549 1058 q 500 1068 514 1058 q 483 1094 486 1078 q 481 1128 481 1111 q 483 1160 481 1144 q 501 1185 486 1175 q 549 1194 515 1194 q 597 1185 583 1194 q 614 1159 611 1175 q 617 1126 617 1143 q 614 1094 617 1111 q 597 1068 611 1078 q 549 1058 583 1058 m 346 1058 q 297 1068 311 1058 q 281 1094 283 1078 q 278 1128 278 1111 q 281 1160 278 1144 q 298 1185 283 1175 q 347 1194 313 1194 q 394 1185 381 1194 q 411 1159 408 1175 q 414 1126 414 1143 q 411 1094 414 1111 q 394 1068 408 1078 q 346 1058 381 1058 z "},"Z":{"ha":799,"x_min":42,"x_max":757,"o":"m 103 -15 q 58 1 75 -15 q 42 47 42 17 q 44 67 42 57 q 51 82 47 76 l 563 835 l 110 835 q 74 838 90 835 q 50 854 58 842 q 42 892 42 867 q 49 934 42 921 q 72 951 57 947 q 106 956 86 956 l 675 956 q 720 937 704 956 q 736 896 736 918 q 732 869 736 881 q 721 849 728 857 l 218 106 l 696 106 q 729 101 715 106 q 750 85 743 97 q 757 47 757 72 q 749 6 757 19 q 728 -11 742 -7 q 693 -15 714 -15 l 103 -15 z "},"Ž":{"ha":799,"x_min":42,"x_max":757,"o":"m 103 -15 q 58 1 75 -15 q 42 47 42 17 q 44 67 42 57 q 51 82 47 76 l 563 835 l 110 835 q 74 838 90 835 q 50 854 58 842 q 42 892 42 867 q 49 934 42 921 q 72 951 57 947 q 106 956 86 956 l 675 956 q 720 937 704 956 q 736 896 736 918 q 732 869 736 881 q 721 849 728 857 l 218 106 l 696 106 q 729 101 715 106 q 750 85 743 97 q 757 47 757 72 q 749 6 757 19 q 728 -11 742 -7 q 693 -15 714 -15 l 103 -15 m 400 1138 l 525 1204 q 549 1212 538 1210 q 574 1206 561 1214 q 597 1176 586 1199 q 606 1132 613 1149 q 569 1104 599 1115 l 421 1035 q 412 1031 417 1032 q 400 1029 407 1029 q 388 1031 393 1029 q 378 1035 382 1032 l 229 1104 q 196 1132 203 1115 q 201 1174 189 1149 q 226 1205 214 1197 q 249 1212 238 1213 q 271 1206 260 1211 l 400 1138 z "},"a":{"ha":797,"x_min":53,"x_max":719,"o":"m 660 -12 q 616 0 629 -12 q 600 39 603 13 l 606 108 q 563 58 592 86 q 486 8 533 29 q 371 -14 439 -14 q 247 13 304 -14 q 145 86 189 39 q 77 194 101 133 q 53 325 53 256 q 77 453 53 393 q 146 560 101 514 q 248 632 190 606 q 371 658 306 658 q 475 642 432 658 q 549 601 518 626 q 604 543 581 575 l 601 601 q 615 645 600 632 q 661 658 629 658 q 699 650 688 658 q 715 626 711 642 q 719 589 719 611 l 719 53 q 715 18 719 33 q 699 -5 711 3 q 660 -12 686 -12 m 392 103 q 494 132 447 103 q 567 210 540 161 q 594 324 594 260 q 566 438 594 389 q 491 516 538 488 q 389 544 444 544 q 276 515 324 544 q 200 435 228 485 q 172 321 172 385 q 200 209 172 258 q 277 131 228 160 q 392 103 326 103 z "},"á":{"ha":797,"x_min":53,"x_max":719,"o":"m 660 -12 q 616 0 629 -12 q 600 39 603 13 l 606 108 q 563 58 592 86 q 486 8 533 29 q 371 -14 439 -14 q 247 13 304 -14 q 145 86 189 39 q 77 194 101 133 q 53 325 53 256 q 77 453 53 393 q 146 560 101 514 q 248 632 190 606 q 371 658 306 658 q 475 642 432 658 q 549 601 518 626 q 604 543 581 575 l 601 601 q 615 645 600 632 q 661 658 629 658 q 699 650 688 658 q 715 626 711 642 q 719 589 719 611 l 719 53 q 715 18 719 33 q 699 -5 711 3 q 660 -12 686 -12 m 392 103 q 494 132 447 103 q 567 210 540 161 q 594 324 594 260 q 566 438 594 389 q 491 516 538 488 q 389 544 444 544 q 276 515 324 544 q 200 435 228 485 q 172 321 172 385 q 200 209 172 258 q 277 131 228 160 q 392 103 326 103 m 358 750 q 324 754 336 746 q 303 789 311 763 q 299 833 293 818 q 332 857 306 849 l 554 932 q 588 927 575 936 q 608 892 600 918 q 610 848 618 863 q 576 824 603 833 l 358 750 z "},"â":{"ha":797,"x_min":53,"x_max":719,"o":"m 660 -12 q 616 0 629 -12 q 600 39 603 13 l 606 108 q 563 58 592 86 q 486 8 533 29 q 371 -14 439 -14 q 247 13 304 -14 q 145 86 189 39 q 77 194 101 133 q 53 325 53 256 q 77 453 53 393 q 146 560 101 514 q 248 632 190 606 q 371 658 306 658 q 475 642 432 658 q 549 601 518 626 q 604 543 581 575 l 601 601 q 615 645 600 632 q 661 658 629 658 q 699 650 688 658 q 715 626 711 642 q 719 589 719 611 l 719 53 q 715 18 719 33 q 699 -5 711 3 q 660 -12 686 -12 m 392 103 q 494 132 447 103 q 567 210 540 161 q 594 324 594 260 q 566 438 594 389 q 491 516 538 488 q 389 544 444 544 q 276 515 324 544 q 200 435 228 485 q 172 321 172 385 q 200 209 172 258 q 277 131 228 160 q 392 103 326 103 m 390 935 q 402 933 397 935 q 413 929 407 932 l 561 860 q 596 832 589 850 q 589 788 603 814 q 562 756 576 764 q 531 756 547 747 l 390 826 l 251 757 q 220 758 235 749 q 193 790 206 767 q 186 833 179 817 q 221 860 193 849 l 368 929 q 378 933 374 932 q 390 935 383 935 z "},"ä":{"ha":797,"x_min":53,"x_max":719,"o":"m 660 -12 q 616 0 629 -12 q 600 39 603 13 l 606 108 q 563 58 592 86 q 486 8 533 29 q 371 -14 439 -14 q 247 13 304 -14 q 145 86 189 39 q 77 194 101 133 q 53 325 53 256 q 77 453 53 393 q 146 560 101 514 q 248 632 190 606 q 371 658 306 658 q 475 642 432 658 q 549 601 518 626 q 604 543 581 575 l 601 601 q 615 645 600 632 q 661 658 629 658 q 699 650 688 658 q 715 626 711 642 q 719 589 719 611 l 719 53 q 715 18 719 33 q 699 -5 711 3 q 660 -12 686 -12 m 392 103 q 494 132 447 103 q 567 210 540 161 q 594 324 594 260 q 566 438 594 389 q 491 516 538 488 q 389 544 444 544 q 276 515 324 544 q 200 435 228 485 q 172 321 172 385 q 200 209 172 258 q 277 131 228 160 q 392 103 326 103 m 499 781 q 450 790 464 781 q 433 817 436 800 q 431 850 431 833 q 433 882 431 867 q 451 907 436 897 q 499 917 465 917 q 547 907 533 917 q 564 881 561 897 q 567 849 567 865 q 564 817 567 833 q 547 790 561 800 q 499 781 533 781 m 296 781 q 247 790 261 781 q 231 817 233 800 q 228 850 228 833 q 231 882 228 867 q 248 907 233 897 q 297 917 263 917 q 344 907 331 917 q 361 881 358 897 q 364 849 364 865 q 361 817 364 833 q 344 790 358 800 q 296 781 331 781 z "},"à":{"ha":797,"x_min":53,"x_max":719,"o":"m 660 -12 q 616 0 629 -12 q 600 39 603 13 l 606 108 q 563 58 592 86 q 486 8 533 29 q 371 -14 439 -14 q 247 13 304 -14 q 145 86 189 39 q 77 194 101 133 q 53 325 53 256 q 77 453 53 393 q 146 560 101 514 q 248 632 190 606 q 371 658 306 658 q 475 642 432 658 q 549 601 518 626 q 604 543 581 575 l 601 601 q 615 645 600 632 q 661 658 629 658 q 699 650 688 658 q 715 626 711 642 q 719 589 719 611 l 719 53 q 715 18 719 33 q 699 -5 711 3 q 660 -12 686 -12 m 392 103 q 494 132 447 103 q 567 210 540 161 q 594 324 594 260 q 566 438 594 389 q 491 516 538 488 q 389 544 444 544 q 276 515 324 544 q 200 435 228 485 q 172 321 172 385 q 200 209 172 258 q 277 131 228 160 q 392 103 326 103 m 422 757 l 213 828 q 180 852 186 838 q 182 896 174 867 q 206 934 192 926 q 247 933 221 942 l 458 861 q 492 837 486 853 q 488 793 497 821 q 464 756 478 763 q 422 757 450 749 z "},"å":{"ha":797,"x_min":53,"x_max":719,"o":"m 660 -12 q 616 0 629 -12 q 600 39 603 13 l 606 108 q 563 58 592 86 q 486 8 533 29 q 371 -14 439 -14 q 247 13 304 -14 q 145 86 189 39 q 77 194 101 133 q 53 325 53 256 q 77 453 53 393 q 146 560 101 514 q 248 632 190 606 q 371 658 306 658 q 475 642 432 658 q 549 601 518 626 q 604 543 581 575 l 601 601 q 615 645 600 632 q 661 658 629 658 q 699 650 688 658 q 715 626 711 642 q 719 589 719 611 l 719 53 q 715 18 719 33 q 699 -5 711 3 q 660 -12 686 -12 m 392 103 q 494 132 447 103 q 567 210 540 161 q 594 324 594 260 q 566 438 594 389 q 491 516 538 488 q 389 544 444 544 q 276 515 324 544 q 200 435 228 485 q 172 321 172 385 q 200 209 172 258 q 277 131 228 160 q 392 103 326 103 m 392 724 q 316 744 350 724 q 261 800 282 765 q 240 876 240 835 q 260 951 240 917 q 315 1007 281 986 q 390 1028 349 1028 q 468 1008 433 1028 q 524 953 503 988 q 544 876 544 919 q 524 800 544 835 q 468 744 503 765 q 392 724 433 724 m 392 799 q 446 822 424 799 q 468 878 468 846 q 447 931 468 910 q 390 953 425 953 q 337 931 358 953 q 315 878 315 908 q 337 822 315 844 q 392 799 358 799 z "},"ã":{"ha":797,"x_min":53,"x_max":719,"o":"m 660 -12 q 616 0 629 -12 q 600 39 603 13 l 606 108 q 563 58 592 86 q 486 8 533 29 q 371 -14 439 -14 q 247 13 304 -14 q 145 86 189 39 q 77 194 101 133 q 53 325 53 256 q 77 453 53 393 q 146 560 101 514 q 248 632 190 606 q 371 658 306 658 q 475 642 432 658 q 549 601 518 626 q 604 543 581 575 l 601 601 q 615 645 600 632 q 661 658 629 658 q 699 650 688 658 q 715 626 711 642 q 719 589 719 611 l 719 53 q 715 18 719 33 q 699 -5 711 3 q 660 -12 686 -12 m 392 103 q 494 132 447 103 q 567 210 540 161 q 594 324 594 260 q 566 438 594 389 q 491 516 538 488 q 389 544 444 544 q 276 515 324 544 q 200 435 228 485 q 172 321 172 385 q 200 209 172 258 q 277 131 228 160 q 392 103 326 103 m 307 933 q 366 917 343 933 q 408 885 389 901 q 447 869 428 869 q 470 878 460 869 q 491 897 481 886 q 511 914 501 907 q 534 926 519 925 q 564 919 549 928 q 588 896 581 908 q 590 868 596 883 q 565 817 586 840 q 515 778 544 793 q 451 764 486 764 q 401 780 425 764 q 355 813 376 796 q 311 829 333 829 q 273 817 290 829 q 247 790 256 806 q 226 775 240 779 q 192 783 211 771 q 167 813 172 796 q 172 847 163 829 q 207 890 185 869 q 256 922 229 910 q 307 933 283 933 z "},"æ":{"ha":1228,"x_min":42,"x_max":1188,"o":"m 360 658 q 454 644 408 658 q 539 599 500 629 q 604 518 578 568 q 678 594 635 563 q 775 642 721 625 q 890 658 829 658 q 1013 638 958 658 q 1107 581 1068 617 q 1167 501 1146 546 q 1188 413 1188 457 q 1154 312 1188 342 q 1072 282 1121 282 l 672 282 q 692 202 672 238 q 744 142 711 167 q 816 103 776 117 q 896 90 856 90 q 975 97 943 90 q 1028 112 1007 103 q 1066 129 1050 121 q 1096 142 1082 138 q 1120 140 1108 144 q 1139 122 1132 136 q 1149 101 1146 111 q 1153 81 1153 92 q 1117 37 1153 60 q 1023 -3 1082 14 q 894 -19 964 -19 q 772 -1 828 -19 q 673 51 717 17 q 600 133 629 86 q 538 57 576 92 q 436 1 499 22 q 279 -19 374 -19 q 106 30 171 -19 q 42 163 42 79 q 72 260 42 219 q 161 325 103 301 q 300 349 219 349 q 354 347 326 349 q 408 340 382 344 q 459 328 435 335 q 505 315 483 322 q 543 300 526 308 q 525 432 542 376 q 470 517 508 488 q 365 547 432 547 q 317 543 342 547 q 268 531 292 539 q 224 513 244 524 q 190 486 204 501 q 138 454 161 456 q 93 478 114 453 q 74 524 69 504 q 107 571 78 544 q 179 619 142 600 q 261 649 217 639 q 360 658 306 658 m 672 367 l 1019 367 q 1058 374 1044 367 q 1071 410 1071 381 q 1047 480 1071 449 q 983 531 1024 511 q 890 550 943 550 q 783 526 833 550 q 703 461 733 503 q 672 367 672 419 m 311 75 q 390 85 351 75 q 460 113 428 94 q 515 158 492 132 q 546 215 538 183 q 488 239 524 228 q 411 257 453 250 q 331 264 369 264 q 226 251 265 264 q 171 218 188 239 q 154 171 154 197 q 192 101 154 126 q 311 75 229 75 z "},"b":{"ha":808,"x_min":81,"x_max":740,"o":"m 431 -14 q 307 11 363 -14 q 213 82 251 36 q 152 189 174 128 q 132 324 131 250 q 153 458 132 396 q 213 565 174 519 q 308 635 253 610 q 431 660 363 660 q 551 635 494 660 q 649 565 607 610 q 716 458 692 519 q 740 325 740 397 q 716 190 740 251 q 649 82 692 128 q 551 11 607 36 q 431 -14 494 -14 m 413 104 q 518 132 471 104 q 592 209 565 160 q 619 322 619 258 q 592 437 619 388 q 519 514 565 486 q 413 542 472 542 q 308 514 354 542 q 234 437 261 486 q 207 322 207 388 q 234 209 207 258 q 308 132 261 160 q 413 104 354 104 m 142 -15 q 102 -8 115 -15 q 85 15 89 0 q 81 47 81 29 l 81 904 q 85 939 81 925 q 102 960 89 953 q 142 968 115 968 q 181 960 168 968 q 197 938 193 951 q 201 904 201 924 l 201 35 q 185 -3 199 8 q 142 -15 172 -15 z "},"c":{"ha":706,"x_min":56,"x_max":657,"o":"m 404 -17 q 269 7 332 -17 q 158 75 206 31 q 83 181 110 119 q 56 322 56 243 q 83 463 56 401 q 157 569 110 525 q 267 638 204 614 q 401 661 331 661 q 494 647 449 661 q 576 609 540 632 q 626 561 611 586 q 647 531 640 543 q 647 504 653 519 q 632 484 642 493 q 613 469 622 475 q 563 464 588 450 q 528 492 547 479 q 489 517 510 506 q 447 534 468 528 q 401 540 425 540 q 286 513 336 540 q 209 437 236 486 q 182 322 182 388 q 209 208 182 257 q 285 132 236 160 q 399 104 335 104 q 455 112 428 104 q 506 133 482 119 q 544 161 529 146 q 568 178 558 171 q 592 185 578 185 q 615 176 603 185 q 642 149 628 167 q 655 122 653 136 q 650 96 657 108 q 628 71 643 83 q 569 28 606 49 q 489 -4 532 8 q 404 -17 446 -17 z "},"ç":{"ha":715,"x_min":56,"x_max":657,"o":"m 404 -17 q 269 7 332 -17 q 158 75 206 31 q 83 181 110 119 q 56 322 56 243 q 83 463 56 401 q 157 569 110 525 q 267 638 204 614 q 401 661 331 661 q 494 647 449 661 q 576 609 540 632 q 626 561 611 586 q 647 531 640 543 q 647 504 653 519 q 632 484 642 493 q 613 469 622 475 q 563 464 588 450 q 528 492 547 479 q 489 517 510 506 q 447 534 468 528 q 401 540 425 540 q 286 513 336 540 q 209 437 236 486 q 182 322 182 388 q 209 208 182 257 q 285 132 236 160 q 399 104 335 104 q 455 112 428 104 q 506 133 482 119 q 544 161 529 146 q 568 178 558 171 q 592 185 578 185 q 615 176 603 185 q 642 149 628 167 q 655 122 653 136 q 650 96 657 108 q 628 71 643 83 q 569 28 606 49 q 489 -4 532 8 q 404 -17 446 -17 m 383 -247 q 322 -233 353 -247 q 289 -200 292 -218 q 300 -172 289 -186 q 318 -152 311 -157 q 332 -147 325 -147 q 356 -157 342 -147 q 386 -167 371 -167 q 422 -151 406 -167 q 439 -114 439 -136 q 423 -75 439 -90 q 385 -60 407 -60 q 351 -70 364 -60 q 329 -81 338 -81 q 315 -74 322 -81 q 299 -54 307 -67 q 291 -37 293 -43 q 289 -25 289 -31 q 307 -3 292 -14 q 344 14 322 7 q 385 21 365 21 q 451 3 421 21 q 500 -43 481 -14 q 519 -112 519 -72 q 501 -181 519 -150 q 453 -229 483 -211 q 383 -247 422 -247 z "},"d":{"ha":814,"x_min":68,"x_max":728,"o":"m 378 -14 q 258 11 315 -14 q 159 82 201 36 q 92 190 117 128 q 68 325 68 251 q 92 458 68 397 q 159 565 117 519 q 258 635 201 610 q 378 660 315 660 q 501 635 446 660 q 595 565 556 610 q 656 458 635 519 q 676 324 676 396 q 656 189 678 250 q 596 82 635 128 q 502 11 557 36 q 378 -14 447 -14 m 396 104 q 501 132 454 104 q 574 209 547 160 q 601 322 601 258 q 574 437 601 388 q 501 514 547 486 q 396 542 454 542 q 290 514 338 542 q 216 437 243 486 q 189 322 189 388 q 216 209 189 258 q 291 132 243 160 q 396 104 339 104 m 668 -14 q 624 -3 638 -14 q 607 35 610 8 l 607 904 q 610 939 607 925 q 627 960 614 953 q 667 968 640 968 q 706 960 693 968 q 724 939 719 953 q 728 906 728 925 l 728 50 q 724 16 728 31 q 707 -6 719 1 q 668 -14 694 -14 z "},"ð":{"ha":806,"x_min":61,"x_max":731,"o":"m 490 1011 q 510 991 506 1001 q 513 970 515 981 q 501 944 511 960 l 467 901 q 585 805 535 861 q 667 676 635 749 q 715 514 700 603 q 729 319 731 425 q 701 186 728 247 q 629 79 675 125 q 523 8 583 33 q 392 -18 463 -18 q 265 8 325 -18 q 160 79 206 33 q 88 188 114 125 q 61 326 61 251 q 88 462 61 400 q 159 569 114 524 q 263 640 204 615 q 386 665 322 665 q 506 644 453 665 q 593 585 560 622 q 520 726 567 668 q 404 818 474 783 l 350 747 q 330 728 340 733 q 309 725 319 722 q 285 736 299 728 q 261 758 268 747 q 257 778 254 768 q 269 803 260 789 l 311 857 q 273 872 290 865 q 242 888 256 878 q 224 908 225 894 q 231 942 222 922 q 253 969 239 963 q 286 971 267 975 q 319 965 303 969 q 350 956 335 960 q 379 944 365 951 l 424 1003 q 444 1023 435 1018 q 464 1026 453 1028 q 490 1011 475 1024 m 401 100 q 506 128 458 100 q 581 207 553 157 q 610 324 610 257 q 583 442 610 390 q 508 523 556 493 q 400 553 461 553 q 288 522 338 553 q 210 440 239 492 q 181 324 181 389 q 210 207 181 257 q 290 128 240 157 q 401 100 340 100 z "},"e":{"ha":750,"x_min":53,"x_max":699,"o":"m 404 -21 q 256 7 321 -21 q 145 83 190 35 q 76 193 100 131 q 53 328 53 256 q 97 499 53 424 q 220 617 142 574 q 400 661 299 661 q 524 640 469 661 q 618 582 579 618 q 678 501 657 546 q 699 413 699 457 q 665 313 699 342 q 583 285 632 285 l 182 285 q 215 180 181 224 q 301 113 249 136 q 406 89 353 89 q 472 93 444 89 q 521 104 500 97 q 557 118 542 111 q 584 132 572 125 q 607 142 596 139 q 631 140 619 144 q 650 121 643 135 q 661 100 658 110 q 664 79 664 90 q 631 36 664 60 q 538 -4 597 13 q 404 -21 479 -21 m 182 367 l 531 367 q 570 374 557 367 q 583 411 583 381 q 560 481 583 450 q 495 532 536 513 q 401 551 454 551 q 290 527 340 551 q 210 461 239 503 q 182 367 181 419 z "},"é":{"ha":750,"x_min":53,"x_max":699,"o":"m 404 -21 q 256 7 321 -21 q 145 83 190 35 q 76 193 100 131 q 53 328 53 256 q 97 499 53 424 q 220 617 142 574 q 400 661 299 661 q 524 640 469 661 q 618 582 579 618 q 678 501 657 546 q 699 413 699 457 q 665 313 699 342 q 583 285 632 285 l 182 285 q 215 180 181 224 q 301 113 249 136 q 406 89 353 89 q 472 93 444 89 q 521 104 500 97 q 557 118 542 111 q 584 132 572 125 q 607 142 596 139 q 631 140 619 144 q 650 121 643 135 q 661 100 658 110 q 664 79 664 90 q 631 36 664 60 q 538 -4 597 13 q 404 -21 479 -21 m 182 367 l 531 367 q 570 374 557 367 q 583 411 583 381 q 560 481 583 450 q 495 532 536 513 q 401 551 454 551 q 290 527 340 551 q 210 461 239 503 q 182 367 181 419 m 342 750 q 307 754 319 746 q 286 789 294 763 q 283 833 276 818 q 315 857 289 849 l 538 932 q 571 927 558 936 q 592 892 583 918 q 594 848 601 863 q 560 824 586 833 l 342 750 z "},"ê":{"ha":750,"x_min":53,"x_max":699,"o":"m 404 -21 q 256 7 321 -21 q 145 83 190 35 q 76 193 100 131 q 53 328 53 256 q 97 499 53 424 q 220 617 142 574 q 400 661 299 661 q 524 640 469 661 q 618 582 579 618 q 678 501 657 546 q 699 413 699 457 q 665 313 699 342 q 583 285 632 285 l 182 285 q 215 180 181 224 q 301 113 249 136 q 406 89 353 89 q 472 93 444 89 q 521 104 500 97 q 557 118 542 111 q 584 132 572 125 q 607 142 596 139 q 631 140 619 144 q 650 121 643 135 q 661 100 658 110 q 664 79 664 90 q 631 36 664 60 q 538 -4 597 13 q 404 -21 479 -21 m 182 367 l 531 367 q 570 374 557 367 q 583 411 583 381 q 560 481 583 450 q 495 532 536 513 q 401 551 454 551 q 290 527 340 551 q 210 461 239 503 q 182 367 181 419 m 374 935 q 385 933 381 935 q 396 929 390 932 l 544 860 q 579 832 572 850 q 572 788 586 814 q 545 756 560 764 q 514 756 531 747 l 374 826 l 235 757 q 203 758 218 749 q 176 790 189 767 q 169 833 163 817 q 204 860 176 849 l 351 929 q 362 933 357 932 q 374 935 367 935 z "},"ë":{"ha":750,"x_min":53,"x_max":699,"o":"m 404 -21 q 256 7 321 -21 q 145 83 190 35 q 76 193 100 131 q 53 328 53 256 q 97 499 53 424 q 220 617 142 574 q 400 661 299 661 q 524 640 469 661 q 618 582 579 618 q 678 501 657 546 q 699 413 699 457 q 665 313 699 342 q 583 285 632 285 l 182 285 q 215 180 181 224 q 301 113 249 136 q 406 89 353 89 q 472 93 444 89 q 521 104 500 97 q 557 118 542 111 q 584 132 572 125 q 607 142 596 139 q 631 140 619 144 q 650 121 643 135 q 661 100 658 110 q 664 79 664 90 q 631 36 664 60 q 538 -4 597 13 q 404 -21 479 -21 m 182 367 l 531 367 q 570 374 557 367 q 583 411 583 381 q 560 481 583 450 q 495 532 536 513 q 401 551 454 551 q 290 527 340 551 q 210 461 239 503 q 182 367 181 419 m 481 781 q 432 790 446 781 q 415 817 418 800 q 413 850 413 833 q 415 882 413 867 q 433 907 418 897 q 481 917 447 917 q 529 907 515 917 q 546 881 543 897 q 549 849 549 865 q 546 817 549 833 q 529 790 543 800 q 481 781 515 781 m 278 781 q 229 790 243 781 q 213 817 215 800 q 210 850 210 833 q 213 882 210 867 q 230 907 215 897 q 279 917 244 917 q 326 907 313 917 q 343 881 340 897 q 346 849 346 865 q 343 817 346 833 q 326 790 340 800 q 278 781 313 781 z "},"è":{"ha":750,"x_min":53,"x_max":699,"o":"m 404 -21 q 256 7 321 -21 q 145 83 190 35 q 76 193 100 131 q 53 328 53 256 q 97 499 53 424 q 220 617 142 574 q 400 661 299 661 q 524 640 469 661 q 618 582 579 618 q 678 501 657 546 q 699 413 699 457 q 665 313 699 342 q 583 285 632 285 l 182 285 q 215 180 181 224 q 301 113 249 136 q 406 89 353 89 q 472 93 444 89 q 521 104 500 97 q 557 118 542 111 q 584 132 572 125 q 607 142 596 139 q 631 140 619 144 q 650 121 643 135 q 661 100 658 110 q 664 79 664 90 q 631 36 664 60 q 538 -4 597 13 q 404 -21 479 -21 m 182 367 l 531 367 q 570 374 557 367 q 583 411 583 381 q 560 481 583 450 q 495 532 536 513 q 401 551 454 551 q 290 527 340 551 q 210 461 239 503 q 182 367 181 419 m 406 757 l 196 828 q 163 852 169 838 q 165 896 157 867 q 190 934 175 926 q 231 933 204 942 l 442 861 q 475 837 469 853 q 471 793 481 821 q 447 756 461 763 q 406 757 433 749 z "},"f":{"ha":525,"x_min":42,"x_max":483,"o":"m 225 -15 q 187 -7 200 -15 q 169 16 174 1 q 165 50 165 31 l 165 747 q 178 844 165 803 q 219 914 190 886 q 294 956 249 942 q 406 971 339 971 q 438 967 424 971 q 460 951 453 964 q 468 911 468 938 q 460 872 468 885 q 438 854 451 858 q 404 850 424 850 q 349 847 372 850 q 314 835 326 844 q 295 805 301 825 q 289 750 289 785 l 289 46 q 284 14 289 28 q 266 -8 279 0 q 225 -15 253 -15 m 94 643 l 228 642 l 421 644 q 454 641 440 644 q 476 624 468 638 q 483 585 483 611 q 476 545 483 558 q 456 528 469 532 q 422 524 442 524 l 232 526 l 92 525 q 52 539 63 525 q 42 585 42 553 q 54 629 42 615 q 94 643 67 643 z "},"g":{"ha":785,"x_min":57,"x_max":690,"o":"m 371 -286 q 278 -275 322 -286 q 200 -246 233 -264 q 147 -207 167 -228 q 128 -168 128 -186 q 132 -145 128 -154 q 144 -126 136 -136 q 167 -107 158 -112 q 189 -101 175 -101 q 217 -113 203 -101 q 251 -140 231 -125 q 301 -166 271 -154 q 375 -178 331 -178 q 457 -164 421 -178 q 519 -122 493 -150 q 560 -55 546 -94 q 574 35 574 -15 l 571 613 q 587 650 572 639 q 633 661 601 661 q 672 653 660 661 q 687 633 683 646 q 690 600 690 619 l 690 25 q 667 -106 690 -49 q 600 -204 643 -164 q 499 -265 557 -244 q 371 -286 440 -286 m 367 1 q 244 26 300 1 q 145 94 188 50 q 80 199 103 139 q 57 329 57 258 q 80 460 57 400 q 144 564 103 519 q 242 633 186 608 q 365 657 299 657 q 476 633 426 657 q 562 566 526 610 q 615 463 597 522 q 633 329 633 403 q 601 156 633 229 q 510 42 569 82 q 367 1 450 1 m 374 115 q 474 143 429 115 q 544 219 518 171 q 571 332 571 268 q 544 442 571 394 q 473 517 518 490 q 371 543 428 543 q 269 517 314 543 q 201 442 225 490 q 176 331 176 394 q 201 219 176 267 q 271 143 226 171 q 374 115 315 115 z "},"h":{"ha":743,"x_min":78,"x_max":688,"o":"m 139 -14 q 99 -6 113 -14 q 81 16 85 1 q 78 50 78 31 l 78 906 q 82 939 78 925 q 100 960 86 953 q 140 968 114 968 q 181 960 168 968 q 198 939 194 953 q 201 904 201 925 l 201 561 q 283 631 235 600 q 400 661 331 661 q 547 623 482 661 q 649 515 611 585 q 688 350 688 446 l 688 49 q 683 15 688 29 q 667 -6 679 1 q 626 -14 654 -14 q 586 -6 600 -14 q 568 16 572 1 q 564 50 564 31 l 564 351 q 544 453 564 410 q 487 519 525 496 q 390 543 449 543 q 260 498 311 543 q 201 378 210 453 l 201 49 q 197 15 201 29 q 180 -6 193 1 q 139 -14 167 -14 z "},"i":{"ha":311,"x_min":85,"x_max":226,"o":"m 156 -14 q 116 -6 129 -14 q 99 15 103 1 q 94 49 94 29 l 94 597 q 99 631 94 617 q 116 651 103 644 q 157 658 129 658 q 196 651 183 658 q 213 629 208 643 q 217 594 217 615 l 217 47 q 213 14 217 28 q 195 -7 208 0 q 156 -14 182 -14 m 156 825 q 110 834 125 825 q 90 860 94 843 q 85 899 85 876 q 90 937 85 921 q 111 960 96 953 q 157 968 126 968 q 201 960 186 968 q 222 935 217 951 q 226 896 226 918 q 222 858 226 874 q 201 833 217 842 q 156 825 186 825 z "},"ı":{"ha":278,"x_min":78,"x_max":200,"o":"m 138 -14 q 99 -6 113 -14 q 81 15 85 1 q 78 49 78 29 l 78 597 q 82 631 78 617 q 99 651 86 644 q 139 658 113 658 q 179 651 167 658 q 196 629 192 643 q 200 594 200 615 l 200 47 q 196 14 200 28 q 178 -7 192 0 q 138 -14 165 -14 z "},"í":{"ha":278,"x_min":39,"x_max":364,"o":"m 138 -14 q 99 -6 113 -14 q 81 15 85 1 q 78 49 78 29 l 78 597 q 82 631 78 617 q 99 651 86 644 q 139 658 113 658 q 179 651 167 658 q 196 629 192 643 q 200 594 200 615 l 200 47 q 196 14 200 28 q 178 -7 192 0 q 138 -14 165 -14 m 106 750 q 71 754 83 746 q 50 789 58 763 q 47 833 40 818 q 79 857 53 849 l 301 932 q 335 927 322 936 q 356 892 347 918 q 358 848 365 863 q 324 824 350 833 l 106 750 z "},"î":{"ha":278,"x_min":-74,"x_max":350,"o":"m 138 -14 q 99 -6 113 -14 q 81 15 85 1 q 78 49 78 29 l 78 597 q 82 631 78 617 q 99 651 86 644 q 139 658 113 658 q 179 651 167 658 q 196 629 192 643 q 200 594 200 615 l 200 47 q 196 14 200 28 q 178 -7 192 0 q 138 -14 165 -14 m 138 935 q 149 933 144 935 q 160 929 154 932 l 308 860 q 343 832 336 850 q 336 788 350 814 q 309 756 324 764 q 278 756 294 747 l 138 826 l -1 757 q -33 758 -18 749 q -60 790 -47 767 q -67 833 -74 817 q -32 860 -60 849 l 115 929 q 126 933 121 932 q 138 935 131 935 z "},"ï":{"ha":278,"x_min":-26,"x_max":313,"o":"m 138 -14 q 99 -6 113 -14 q 81 15 85 1 q 78 49 78 29 l 78 597 q 82 631 78 617 q 99 651 86 644 q 139 658 113 658 q 179 651 167 658 q 196 629 192 643 q 200 594 200 615 l 200 47 q 196 14 200 28 q 178 -7 192 0 q 138 -14 165 -14 m 244 781 q 196 790 210 781 q 179 817 182 800 q 176 850 176 833 q 179 882 176 867 q 197 907 182 897 q 244 917 211 917 q 293 907 279 917 q 310 881 307 897 q 313 849 313 865 q 310 817 313 833 q 293 790 307 800 q 244 781 279 781 m 42 781 q -7 790 7 781 q -24 817 -21 800 q -26 850 -26 833 q -24 882 -26 867 q -6 907 -21 897 q 43 917 8 917 q 90 907 76 917 q 107 881 104 897 q 110 849 110 865 q 107 817 110 833 q 90 790 104 800 q 42 781 76 781 z "},"ì":{"ha":278,"x_min":-79,"x_max":243,"o":"m 138 -14 q 99 -6 113 -14 q 81 15 85 1 q 78 49 78 29 l 78 597 q 82 631 78 617 q 99 651 86 644 q 139 658 113 658 q 179 651 167 658 q 196 629 192 643 q 200 594 200 615 l 200 47 q 196 14 200 28 q 178 -7 192 0 q 138 -14 165 -14 m 169 757 l -40 828 q -73 852 -67 838 q -71 896 -79 867 q -47 934 -61 926 q -6 933 -32 942 l 206 861 q 239 837 233 853 q 235 793 244 821 q 211 756 225 763 q 169 757 197 749 z "},"j":{"ha":333,"x_min":-118,"x_max":238,"o":"m -57 -285 q -89 -280 -75 -285 q -110 -262 -103 -275 q -118 -224 -118 -250 q -110 -186 -118 -199 q -88 -169 -103 -174 q -56 -164 -74 -164 q 6 -158 -24 -164 q 59 -136 36 -153 q 95 -87 82 -119 q 108 -3 108 -54 l 108 601 q 113 632 108 619 q 130 652 117 644 q 169 660 143 660 q 208 652 194 660 q 225 630 221 644 q 229 596 229 615 l 229 -3 q 207 -128 229 -75 q 146 -217 185 -182 q 56 -268 107 -251 q -57 -285 4 -285 m 167 826 q 112 842 126 826 q 97 899 97 858 q 113 953 97 939 q 168 968 128 968 q 223 952 208 968 q 238 896 238 936 q 222 842 238 857 q 167 826 207 826 z "},"k":{"ha":679,"x_min":88,"x_max":635,"o":"m 604 94 q 633 54 631 74 q 613 8 635 35 q 583 -17 596 -11 q 556 -19 569 -24 q 524 1 542 -14 l 210 257 l 210 49 q 205 15 210 29 q 188 -6 200 1 q 147 -14 175 -14 q 108 -6 122 -14 q 91 16 94 1 q 88 50 88 31 l 88 907 q 92 940 88 926 q 110 962 96 954 q 149 969 124 969 q 189 962 176 969 q 206 940 201 954 q 210 906 210 925 l 210 414 l 439 633 q 469 655 454 649 q 498 657 483 661 q 528 635 513 653 q 552 588 553 607 q 526 546 551 569 l 301 333 l 604 94 z "},"l":{"ha":390,"x_min":81,"x_max":353,"o":"m 299 -14 q 219 -6 254 -14 q 157 18 183 1 q 113 61 131 35 q 88 125 96 88 q 81 213 81 163 l 81 907 q 84 942 81 928 q 101 963 88 956 q 140 971 115 971 q 181 964 168 971 q 199 943 194 957 q 203 910 203 929 l 203 214 q 208 166 203 186 q 226 132 214 146 q 256 113 238 118 q 299 107 274 107 q 327 103 315 107 q 346 86 339 99 q 353 47 353 74 q 346 6 353 19 q 327 -10 339 -7 q 299 -14 315 -14 z "},"ł":{"ha":489,"x_min":14,"x_max":475,"o":"m 82 388 q 44 388 57 381 q 21 424 31 394 q 22 467 14 451 q 58 489 29 482 l 403 590 q 445 591 431 599 q 467 557 460 583 q 467 513 475 528 q 432 490 460 499 l 82 388 m 376 -14 q 295 -6 331 -14 q 234 18 260 1 q 191 61 208 35 q 165 125 174 88 q 157 213 157 163 l 157 907 q 161 942 157 928 q 178 963 165 956 q 218 971 192 971 q 258 964 244 971 q 276 943 271 957 q 281 910 281 929 l 281 214 q 286 166 281 186 q 303 132 292 146 q 333 113 315 118 q 375 107 351 107 q 403 103 392 107 q 422 86 415 99 q 429 47 429 74 q 422 6 429 19 q 403 -10 415 -7 q 376 -14 392 -14 z "},"m":{"ha":1147,"x_min":88,"x_max":1064,"o":"m 147 -14 q 108 -6 121 -14 q 92 17 96 3 q 88 50 88 31 l 88 600 q 92 632 88 619 q 109 651 96 644 q 149 658 122 658 q 192 647 179 658 q 206 606 206 635 l 200 546 q 229 588 210 567 q 276 625 249 608 q 333 651 303 642 q 396 661 364 661 q 483 644 444 661 q 551 594 521 626 q 603 515 582 563 q 662 594 631 561 q 733 644 693 626 q 824 661 774 661 q 956 622 903 661 q 1037 510 1010 582 q 1064 339 1064 439 l 1064 49 q 1060 15 1064 29 q 1044 -6 1057 1 q 1003 -14 1031 -14 q 963 -6 976 -14 q 946 17 950 3 q 942 50 942 31 l 942 340 q 927 448 942 403 q 883 518 913 493 q 806 543 853 543 q 717 519 756 543 q 658 449 679 494 q 638 340 638 403 l 638 47 q 629 11 638 26 q 604 -10 621 -4 q 564 -12 588 -17 q 531 -1 542 -10 q 517 20 519 7 q 514 50 514 33 l 514 340 q 499 448 514 403 q 455 518 485 493 q 378 543 425 543 q 290 517 328 543 q 231 446 251 492 q 210 340 210 400 l 210 49 q 206 15 210 29 q 188 -6 201 1 q 147 -14 175 -14 z "},"n":{"ha":774,"x_min":89,"x_max":696,"o":"m 149 -12 q 109 -5 122 -12 q 92 17 96 3 q 89 50 89 31 l 89 601 q 93 632 89 619 q 110 651 97 644 q 150 658 124 658 q 183 653 171 658 q 199 640 194 649 q 206 622 204 632 q 207 604 207 613 l 204 540 q 239 585 218 564 q 288 624 260 607 q 348 651 315 642 q 418 661 381 661 q 531 640 479 661 q 619 577 582 618 q 676 479 656 536 q 696 350 696 422 l 696 49 q 692 15 696 29 q 676 -6 689 1 q 636 -12 663 -12 q 595 -5 608 -12 q 578 17 582 3 q 574 50 574 31 l 574 351 q 554 453 574 410 q 496 520 535 496 q 397 544 457 544 q 298 520 340 544 q 233 453 256 496 q 210 351 210 410 l 210 49 q 206 15 210 29 q 188 -6 201 1 q 149 -12 175 -12 z "},"ñ":{"ha":774,"x_min":89,"x_max":696,"o":"m 149 -12 q 109 -5 122 -12 q 92 17 96 3 q 89 50 89 31 l 89 601 q 93 632 89 619 q 110 651 97 644 q 150 658 124 658 q 183 653 171 658 q 199 640 194 649 q 206 622 204 632 q 207 604 207 613 l 204 540 q 239 585 218 564 q 288 624 260 607 q 348 651 315 642 q 418 661 381 661 q 531 640 479 661 q 619 577 582 618 q 676 479 656 536 q 696 350 696 422 l 696 49 q 692 15 696 29 q 676 -6 689 1 q 636 -12 663 -12 q 595 -5 608 -12 q 578 17 582 3 q 574 50 574 31 l 574 351 q 554 453 574 410 q 496 520 535 496 q 397 544 457 544 q 298 520 340 544 q 233 453 256 496 q 210 351 210 410 l 210 49 q 206 15 210 29 q 188 -6 201 1 q 149 -12 175 -12 m 313 933 q 372 917 349 933 q 414 885 394 901 q 453 869 433 869 q 476 878 465 869 q 497 897 486 886 q 517 914 507 907 q 540 926 525 925 q 569 919 554 928 q 594 896 586 908 q 596 868 601 883 q 571 817 592 840 q 521 778 550 793 q 457 764 492 764 q 406 780 431 764 q 360 813 382 796 q 317 829 339 829 q 278 817 296 829 q 253 790 261 806 q 231 775 246 779 q 197 783 217 771 q 173 813 178 796 q 178 847 168 829 q 213 890 190 869 q 262 922 235 910 q 313 933 289 933 z "},"o":{"ha":778,"x_min":47,"x_max":731,"o":"m 392 -22 q 262 4 324 -22 q 151 77 200 31 q 75 186 103 124 q 47 322 47 249 q 74 456 47 394 q 147 565 100 518 q 256 640 194 613 q 389 667 318 667 q 562 622 485 667 q 685 499 639 576 q 731 324 731 421 q 703 184 731 247 q 628 75 675 121 q 519 3 581 29 q 392 -22 458 -22 m 389 99 q 497 128 447 99 q 578 208 547 157 q 608 325 608 260 q 580 440 608 390 q 501 518 551 490 q 388 546 451 546 q 277 517 326 546 q 198 438 228 488 q 168 324 168 388 q 199 206 168 257 q 280 127 229 156 q 389 99 331 99 z "},"ó":{"ha":778,"x_min":47,"x_max":731,"o":"m 392 -22 q 262 4 324 -22 q 151 77 200 31 q 75 186 103 124 q 47 322 47 249 q 74 456 47 394 q 147 565 100 518 q 256 640 194 613 q 389 667 318 667 q 562 622 485 667 q 685 499 639 576 q 731 324 731 421 q 703 184 731 247 q 628 75 675 121 q 519 3 581 29 q 392 -22 458 -22 m 389 99 q 497 128 447 99 q 578 208 547 157 q 608 325 608 260 q 580 440 608 390 q 501 518 551 490 q 388 546 451 546 q 277 517 326 546 q 198 438 228 488 q 168 324 168 388 q 199 206 168 257 q 280 127 229 156 q 389 99 331 99 m 356 750 q 321 754 333 746 q 300 789 308 763 q 297 833 290 818 q 329 857 303 849 l 551 932 q 585 927 572 936 q 606 892 597 918 q 608 848 615 863 q 574 824 600 833 l 356 750 z "},"ô":{"ha":778,"x_min":47,"x_max":731,"o":"m 392 -22 q 262 4 324 -22 q 151 77 200 31 q 75 186 103 124 q 47 322 47 249 q 74 456 47 394 q 147 565 100 518 q 256 640 194 613 q 389 667 318 667 q 562 622 485 667 q 685 499 639 576 q 731 324 731 421 q 703 184 731 247 q 628 75 675 121 q 519 3 581 29 q 392 -22 458 -22 m 389 99 q 497 128 447 99 q 578 208 547 157 q 608 325 608 260 q 580 440 608 390 q 501 518 551 490 q 388 546 451 546 q 277 517 326 546 q 198 438 228 488 q 168 324 168 388 q 199 206 168 257 q 280 127 229 156 q 389 99 331 99 m 388 935 q 399 933 394 935 q 410 929 404 932 l 558 860 q 593 832 586 850 q 586 788 600 814 q 559 756 574 764 q 528 756 544 747 l 388 826 l 249 757 q 217 758 232 749 q 190 790 203 767 q 183 833 176 817 q 218 860 190 849 l 365 929 q 376 933 371 932 q 388 935 381 935 z "},"ö":{"ha":778,"x_min":47,"x_max":731,"o":"m 392 -22 q 262 4 324 -22 q 151 77 200 31 q 75 186 103 124 q 47 322 47 249 q 74 456 47 394 q 147 565 100 518 q 256 640 194 613 q 389 667 318 667 q 562 622 485 667 q 685 499 639 576 q 731 324 731 421 q 703 184 731 247 q 628 75 675 121 q 519 3 581 29 q 392 -22 458 -22 m 389 99 q 497 128 447 99 q 578 208 547 157 q 608 325 608 260 q 580 440 608 390 q 501 518 551 490 q 388 546 451 546 q 277 517 326 546 q 198 438 228 488 q 168 324 168 388 q 199 206 168 257 q 280 127 229 156 q 389 99 331 99 m 496 781 q 447 790 461 781 q 431 817 433 800 q 428 850 428 833 q 431 882 428 867 q 448 907 433 897 q 496 917 463 917 q 544 907 531 917 q 561 881 558 897 q 564 849 564 865 q 561 817 564 833 q 544 790 558 800 q 496 781 531 781 m 293 781 q 244 790 258 781 q 228 817 231 800 q 225 850 225 833 q 228 882 225 867 q 245 907 231 897 q 294 917 260 917 q 342 907 328 917 q 358 881 356 897 q 361 849 361 865 q 358 817 361 833 q 342 790 356 800 q 293 781 328 781 z "},"ò":{"ha":778,"x_min":47,"x_max":731,"o":"m 392 -22 q 262 4 324 -22 q 151 77 200 31 q 75 186 103 124 q 47 322 47 249 q 74 456 47 394 q 147 565 100 518 q 256 640 194 613 q 389 667 318 667 q 562 622 485 667 q 685 499 639 576 q 731 324 731 421 q 703 184 731 247 q 628 75 675 121 q 519 3 581 29 q 392 -22 458 -22 m 389 99 q 497 128 447 99 q 578 208 547 157 q 608 325 608 260 q 580 440 608 390 q 501 518 551 490 q 388 546 451 546 q 277 517 326 546 q 198 438 228 488 q 168 324 168 388 q 199 206 168 257 q 280 127 229 156 q 389 99 331 99 m 419 757 l 210 828 q 177 852 183 838 q 179 896 171 867 q 203 934 189 926 q 244 933 218 942 l 456 861 q 489 837 483 853 q 485 793 494 821 q 461 756 475 763 q 419 757 447 749 z "},"ø":{"ha":778,"x_min":47,"x_max":731,"o":"m 585 571 l 476 624 l 551 772 q 583 806 567 801 q 632 796 600 811 q 662 775 653 786 q 669 750 671 764 q 658 717 667 736 l 585 571 m 154 -143 q 119 -111 126 -129 q 128 -65 113 -93 l 203 83 l 307 19 l 236 -117 q 204 -153 222 -149 q 154 -143 186 -158 m 392 -22 q 262 4 324 -22 q 151 77 200 31 q 75 186 103 124 q 47 322 47 249 q 74 456 47 394 q 147 565 100 518 q 256 640 194 613 q 389 667 318 667 q 562 622 485 667 q 685 499 639 576 q 731 324 731 421 q 703 184 731 247 q 628 75 675 121 q 519 3 581 29 q 392 -22 458 -22 m 389 99 q 497 128 447 99 q 578 208 547 157 q 608 325 608 260 q 580 440 608 390 q 501 518 551 490 q 388 546 451 546 q 277 517 326 546 q 198 438 228 488 q 168 324 168 388 q 199 206 168 257 q 280 127 229 156 q 389 99 331 99 z "},"õ":{"ha":778,"x_min":47,"x_max":731,"o":"m 392 -22 q 262 4 324 -22 q 151 77 200 31 q 75 186 103 124 q 47 322 47 249 q 74 456 47 394 q 147 565 100 518 q 256 640 194 613 q 389 667 318 667 q 562 622 485 667 q 685 499 639 576 q 731 324 731 421 q 703 184 731 247 q 628 75 675 121 q 519 3 581 29 q 392 -22 458 -22 m 389 99 q 497 128 447 99 q 578 208 547 157 q 608 325 608 260 q 580 440 608 390 q 501 518 551 490 q 388 546 451 546 q 277 517 326 546 q 198 438 228 488 q 168 324 168 388 q 199 206 168 257 q 280 127 229 156 q 389 99 331 99 m 304 933 q 363 917 340 933 q 406 885 386 901 q 444 869 425 869 q 467 878 457 869 q 488 897 478 886 q 508 914 499 907 q 531 926 517 925 q 561 919 546 928 q 585 896 578 908 q 588 868 593 883 q 563 817 583 840 q 513 778 542 793 q 449 764 483 764 q 398 780 422 764 q 352 813 374 796 q 308 829 331 829 q 270 817 288 829 q 244 790 253 806 q 223 775 238 779 q 189 783 208 771 q 165 813 169 796 q 169 847 160 829 q 204 890 182 869 q 253 922 226 910 q 304 933 281 933 z "},"œ":{"ha":1289,"x_min":47,"x_max":1256,"o":"m 392 -22 q 262 4 324 -22 q 151 77 200 31 q 75 186 103 124 q 47 322 47 249 q 74 456 47 394 q 147 565 100 518 q 256 640 194 613 q 389 667 318 667 q 562 622 485 667 q 685 499 639 576 q 731 324 731 421 q 703 184 731 247 q 628 75 675 121 q 519 3 581 29 q 392 -22 458 -22 m 389 99 q 497 128 447 99 q 578 208 547 157 q 608 325 608 260 q 580 440 608 390 q 501 518 551 490 q 388 546 451 546 q 277 517 326 546 q 198 438 228 488 q 168 324 168 388 q 199 206 168 257 q 280 127 229 156 q 389 99 331 99 m 961 -21 q 813 6 878 -21 q 702 82 747 33 q 633 193 657 131 q 608 328 608 256 q 653 499 608 424 q 776 617 697 574 q 957 661 856 661 q 1081 640 1026 661 q 1175 582 1136 618 q 1235 501 1214 546 q 1256 413 1256 457 q 1222 311 1256 342 q 1140 281 1189 281 l 739 281 q 773 179 739 222 q 858 113 807 136 q 963 89 910 89 q 1028 94 1000 89 q 1078 108 1057 100 q 1116 124 1100 115 q 1144 137 1132 132 q 1169 142 1157 142 q 1193 136 1183 142 q 1208 117 1203 131 q 1218 98 1215 106 q 1221 79 1221 90 q 1188 35 1221 58 q 1095 -4 1154 13 q 961 -21 1036 -21 m 739 367 l 1086 367 q 1125 374 1111 367 q 1139 410 1139 381 q 1115 480 1139 449 q 1051 531 1092 511 q 957 550 1010 550 q 850 526 900 550 q 769 461 800 503 q 739 367 739 419 z "},"p":{"ha":797,"x_min":76,"x_max":738,"o":"m 428 -8 q 304 17 360 -8 q 210 87 249 42 q 149 193 171 132 q 129 328 128 254 q 150 461 129 400 q 210 567 171 522 q 305 637 250 613 q 428 661 360 661 q 548 636 492 661 q 647 566 604 611 q 713 458 689 521 q 738 324 738 396 q 713 190 738 251 q 647 85 689 129 q 548 16 604 40 q 428 -8 492 -8 m 139 -287 q 99 -280 113 -287 q 81 -258 86 -272 q 76 -225 76 -244 l 76 596 q 81 629 76 615 q 98 651 85 643 q 138 658 111 658 q 183 649 168 658 q 200 614 197 639 l 200 -224 q 197 -258 201 -243 q 180 -280 193 -272 q 139 -287 167 -287 m 410 106 q 515 134 468 106 q 590 213 563 163 q 617 326 617 263 q 590 440 617 392 q 516 516 563 489 q 410 543 469 543 q 305 515 351 543 q 231 439 258 488 q 204 326 204 390 q 231 213 204 263 q 305 134 258 163 q 410 106 351 106 z "},"þ":{"ha":792,"x_min":78,"x_max":736,"o":"m 426 -8 q 303 17 358 -8 q 208 87 247 42 q 149 193 169 132 q 128 328 128 254 q 149 461 128 400 q 210 567 171 522 q 303 637 249 613 q 426 661 358 661 q 547 636 490 661 q 645 566 603 611 q 712 458 688 521 q 736 324 736 396 q 712 190 736 251 q 645 85 688 129 q 547 16 603 40 q 426 -8 490 -8 m 138 -286 q 99 -278 113 -286 q 82 -257 86 -271 q 78 -224 78 -243 l 78 910 q 81 944 78 931 q 98 966 85 958 q 138 974 111 974 q 176 965 164 974 q 194 943 189 957 q 199 911 199 929 l 199 -224 q 194 -257 199 -243 q 177 -278 190 -271 q 138 -286 164 -286 m 408 106 q 515 134 468 106 q 589 213 561 163 q 617 326 617 263 q 589 440 617 392 q 515 516 561 489 q 408 543 468 543 q 303 515 350 543 q 230 439 257 488 q 203 326 203 390 q 230 213 203 263 q 304 134 257 163 q 408 106 351 106 z "},"q":{"ha":789,"x_min":50,"x_max":711,"o":"m 361 -8 q 241 16 297 -8 q 142 85 185 40 q 74 190 99 129 q 50 324 50 251 q 74 458 50 396 q 142 566 99 521 q 241 636 185 611 q 361 661 297 661 q 484 637 429 661 q 578 567 539 613 q 638 461 617 522 q 660 328 660 400 q 639 193 660 254 q 578 87 618 132 q 484 17 539 42 q 361 -8 429 -8 m 379 106 q 483 134 436 106 q 557 213 529 163 q 585 326 585 263 q 558 439 585 390 q 484 515 531 488 q 378 543 438 543 q 273 515 321 543 q 198 439 225 488 q 171 326 171 390 q 199 213 171 263 q 274 134 226 163 q 379 106 321 106 m 649 -287 q 609 -280 622 -287 q 592 -258 596 -272 q 588 -224 588 -243 l 588 614 q 597 640 590 631 q 617 654 604 650 q 650 658 631 658 q 691 651 678 658 q 708 629 704 643 q 711 596 711 615 l 711 -225 q 707 -258 711 -244 q 690 -280 703 -272 q 649 -287 676 -287 z "},"r":{"ha":564,"x_min":89,"x_max":514,"o":"m 149 -14 q 109 -6 122 -14 q 92 16 96 1 q 89 50 89 31 l 89 597 q 93 632 89 618 q 110 652 97 646 q 150 658 122 658 q 188 652 175 658 q 206 634 201 646 q 211 607 211 622 l 206 565 q 228 601 215 583 q 262 634 242 619 q 310 658 282 649 q 381 668 339 668 q 420 665 401 668 q 456 654 439 661 q 486 638 474 647 q 506 619 499 629 q 514 594 514 608 q 494 542 514 564 q 454 521 475 521 q 428 526 436 521 q 412 536 419 531 q 390 547 404 542 q 346 551 376 551 q 302 543 325 551 q 258 519 279 535 q 224 478 238 503 q 211 419 211 453 l 211 47 q 207 14 211 28 q 190 -7 203 0 q 149 -14 176 -14 z "},"s":{"ha":638,"x_min":64,"x_max":575,"o":"m 311 -21 q 242 -14 278 -21 q 172 6 206 -7 q 112 38 138 19 q 74 78 86 56 q 65 103 67 92 q 69 126 64 115 q 86 149 75 138 q 114 165 100 165 q 149 146 128 164 q 185 124 164 136 q 228 103 206 113 q 273 88 250 94 q 318 82 296 82 q 421 106 382 82 q 460 171 460 131 q 450 211 460 194 q 424 240 440 228 q 386 260 407 251 q 340 276 365 268 q 289 290 314 283 q 215 313 251 300 q 150 345 179 325 q 103 397 121 365 q 85 476 85 428 q 114 575 85 533 q 196 640 143 617 q 319 663 249 663 q 376 658 350 663 q 427 645 403 654 q 474 624 451 636 q 517 596 496 613 q 543 560 542 579 q 528 519 544 540 q 500 497 515 501 q 469 504 485 492 q 422 533 447 521 q 371 554 397 546 q 317 563 344 563 q 255 552 282 563 q 213 522 228 542 q 199 476 199 501 q 210 440 199 454 q 241 417 222 426 q 285 399 260 407 q 339 385 311 392 q 422 362 379 375 q 498 327 464 349 q 553 270 532 306 q 575 176 575 235 q 503 32 575 85 q 311 -21 431 -21 z "},"š":{"ha":638,"x_min":64,"x_max":575,"o":"m 311 -21 q 242 -14 278 -21 q 172 6 206 -7 q 112 38 138 19 q 74 78 86 56 q 65 103 67 92 q 69 126 64 115 q 86 149 75 138 q 114 165 100 165 q 149 146 128 164 q 185 124 164 136 q 228 103 206 113 q 273 88 250 94 q 318 82 296 82 q 421 106 382 82 q 460 171 460 131 q 450 211 460 194 q 424 240 440 228 q 386 260 407 251 q 340 276 365 268 q 289 290 314 283 q 215 313 251 300 q 150 345 179 325 q 103 397 121 365 q 85 476 85 428 q 114 575 85 533 q 196 640 143 617 q 319 663 249 663 q 376 658 350 663 q 427 645 403 654 q 474 624 451 636 q 517 596 496 613 q 543 560 542 579 q 528 519 544 540 q 500 497 515 501 q 469 504 485 492 q 422 533 447 521 q 371 554 397 546 q 317 563 344 563 q 255 552 282 563 q 213 522 228 542 q 199 476 199 501 q 210 440 199 454 q 241 417 222 426 q 285 399 260 407 q 339 385 311 392 q 422 362 379 375 q 498 327 464 349 q 553 270 532 306 q 575 176 575 235 q 503 32 575 85 q 311 -21 431 -21 m 325 856 l 450 922 q 474 930 463 928 q 499 924 486 932 q 522 894 511 917 q 531 850 538 867 q 494 822 524 833 l 346 753 q 337 749 342 750 q 325 747 332 747 q 313 749 318 747 q 303 753 307 750 l 154 822 q 121 850 128 833 q 126 892 114 867 q 151 923 139 915 q 174 930 163 931 q 196 924 185 929 l 325 856 z "},"ß":{"ha":811,"x_min":88,"x_max":749,"o":"m 149 -35 q 110 -28 122 -35 q 92 -7 97 -21 q 88 26 88 7 l 88 654 q 122 819 88 753 q 222 919 156 885 q 388 953 289 953 q 519 925 467 953 q 597 855 571 897 q 622 769 622 813 q 606 677 622 713 q 567 617 589 642 q 529 569 546 592 q 513 515 513 546 q 536 464 513 483 q 595 428 560 444 q 666 387 631 411 q 725 324 701 363 q 749 218 749 285 q 731 127 749 168 q 682 57 714 86 q 606 12 650 28 q 510 -4 563 -4 q 424 6 465 -4 q 350 36 383 17 q 322 59 328 46 q 319 97 315 72 q 333 128 324 117 q 353 146 342 140 q 379 147 365 151 q 413 132 396 142 q 451 115 429 122 q 499 107 472 107 q 564 119 533 107 q 613 157 594 131 q 631 226 631 183 q 607 292 631 267 q 548 335 583 317 q 477 376 513 354 q 418 426 442 397 q 394 500 394 456 q 410 582 394 551 q 447 635 426 613 q 485 686 468 658 q 501 758 501 714 q 488 801 501 782 q 450 832 475 821 q 389 843 425 843 q 300 829 335 843 q 245 792 265 815 q 217 735 225 768 q 210 667 210 703 l 210 24 q 205 -8 210 6 q 188 -28 200 -21 q 149 -35 175 -35 z "},"t":{"ha":522,"x_min":40,"x_max":482,"o":"m 404 -14 q 294 -1 339 -14 q 219 38 249 11 q 178 106 190 64 q 165 211 165 149 l 165 825 q 169 858 165 844 q 186 880 174 872 q 225 888 199 888 q 265 880 251 888 q 283 859 279 872 q 288 826 288 846 l 288 211 q 294 153 288 175 q 313 121 300 132 q 349 107 326 110 q 403 104 371 104 q 439 100 425 104 q 460 83 453 96 q 467 46 467 71 q 459 6 467 19 q 437 -10 451 -7 q 404 -14 422 -14 m 93 643 l 226 642 l 419 644 q 453 641 439 644 q 474 624 467 638 q 482 585 482 611 q 475 545 482 558 q 454 528 468 532 q 421 524 440 524 l 231 526 l 90 525 q 51 539 61 525 q 40 585 40 553 q 53 629 40 615 q 93 643 65 643 z "},"u":{"ha":754,"x_min":68,"x_max":675,"o":"m 354 -15 q 241 7 293 -15 q 150 69 189 29 q 90 167 111 110 q 68 296 68 224 l 68 597 q 72 631 68 617 q 90 652 76 644 q 129 660 103 660 q 169 651 156 660 q 186 629 182 643 q 190 596 190 615 l 190 294 q 210 194 190 238 q 269 126 229 150 q 365 103 308 103 q 466 126 424 103 q 531 194 508 150 q 554 294 554 238 l 554 597 q 558 631 554 617 q 576 652 563 644 q 615 660 589 660 q 655 651 642 660 q 672 629 668 643 q 675 596 675 615 l 675 44 q 672 15 675 28 q 655 -6 668 1 q 615 -12 642 -12 q 584 -8 596 -12 q 567 3 572 -4 q 559 19 561 10 q 557 38 557 28 l 563 97 q 529 61 549 81 q 484 24 510 42 q 426 -4 458 7 q 354 -15 394 -15 z "},"ú":{"ha":754,"x_min":68,"x_max":675,"o":"m 354 -15 q 241 7 293 -15 q 150 69 189 29 q 90 167 111 110 q 68 296 68 224 l 68 597 q 72 631 68 617 q 90 652 76 644 q 129 660 103 660 q 169 651 156 660 q 186 629 182 643 q 190 596 190 615 l 190 294 q 210 194 190 238 q 269 126 229 150 q 365 103 308 103 q 466 126 424 103 q 531 194 508 150 q 554 294 554 238 l 554 597 q 558 631 554 617 q 576 652 563 644 q 615 660 589 660 q 655 651 642 660 q 672 629 668 643 q 675 596 675 615 l 675 44 q 672 15 675 28 q 655 -6 668 1 q 615 -12 642 -12 q 584 -8 596 -12 q 567 3 572 -4 q 559 19 561 10 q 557 38 557 28 l 563 97 q 529 61 549 81 q 484 24 510 42 q 426 -4 458 7 q 354 -15 394 -15 m 343 750 q 308 754 321 746 q 288 789 296 763 q 284 833 278 818 q 317 857 290 849 l 539 932 q 572 927 560 936 q 593 892 585 918 q 595 848 603 863 q 561 824 588 833 l 343 750 z "},"û":{"ha":754,"x_min":68,"x_max":675,"o":"m 354 -15 q 241 7 293 -15 q 150 69 189 29 q 90 167 111 110 q 68 296 68 224 l 68 597 q 72 631 68 617 q 90 652 76 644 q 129 660 103 660 q 169 651 156 660 q 186 629 182 643 q 190 596 190 615 l 190 294 q 210 194 190 238 q 269 126 229 150 q 365 103 308 103 q 466 126 424 103 q 531 194 508 150 q 554 294 554 238 l 554 597 q 558 631 554 617 q 576 652 563 644 q 615 660 589 660 q 655 651 642 660 q 672 629 668 643 q 675 596 675 615 l 675 44 q 672 15 675 28 q 655 -6 668 1 q 615 -12 642 -12 q 584 -8 596 -12 q 567 3 572 -4 q 559 19 561 10 q 557 38 557 28 l 563 97 q 529 61 549 81 q 484 24 510 42 q 426 -4 458 7 q 354 -15 394 -15 m 375 935 q 387 933 382 935 q 397 929 392 932 l 546 860 q 581 832 574 850 q 574 788 588 814 q 547 756 561 764 q 515 756 532 747 l 375 826 l 236 757 q 205 758 219 749 q 178 790 190 767 q 171 833 164 817 q 206 860 178 849 l 353 929 q 363 933 358 932 q 375 935 368 935 z "},"ü":{"ha":754,"x_min":68,"x_max":675,"o":"m 354 -15 q 241 7 293 -15 q 150 69 189 29 q 90 167 111 110 q 68 296 68 224 l 68 597 q 72 631 68 617 q 90 652 76 644 q 129 660 103 660 q 169 651 156 660 q 186 629 182 643 q 190 596 190 615 l 190 294 q 210 194 190 238 q 269 126 229 150 q 365 103 308 103 q 466 126 424 103 q 531 194 508 150 q 554 294 554 238 l 554 597 q 558 631 554 617 q 576 652 563 644 q 615 660 589 660 q 655 651 642 660 q 672 629 668 643 q 675 596 675 615 l 675 44 q 672 15 675 28 q 655 -6 668 1 q 615 -12 642 -12 q 584 -8 596 -12 q 567 3 572 -4 q 559 19 561 10 q 557 38 557 28 l 563 97 q 529 61 549 81 q 484 24 510 42 q 426 -4 458 7 q 354 -15 394 -15 m 482 781 q 433 790 447 781 q 417 817 419 800 q 414 850 414 833 q 417 882 414 867 q 434 907 419 897 q 482 917 449 917 q 531 907 517 917 q 547 881 544 897 q 550 849 550 865 q 547 817 550 833 q 531 790 544 800 q 482 781 517 781 m 279 781 q 231 790 244 781 q 214 817 217 800 q 211 850 211 833 q 214 882 211 867 q 231 907 217 897 q 281 917 246 917 q 328 907 314 917 q 344 881 342 897 q 347 849 347 865 q 344 817 347 833 q 328 790 342 800 q 279 781 314 781 z "},"ù":{"ha":754,"x_min":68,"x_max":675,"o":"m 354 -15 q 241 7 293 -15 q 150 69 189 29 q 90 167 111 110 q 68 296 68 224 l 68 597 q 72 631 68 617 q 90 652 76 644 q 129 660 103 660 q 169 651 156 660 q 186 629 182 643 q 190 596 190 615 l 190 294 q 210 194 190 238 q 269 126 229 150 q 365 103 308 103 q 466 126 424 103 q 531 194 508 150 q 554 294 554 238 l 554 597 q 558 631 554 617 q 576 652 563 644 q 615 660 589 660 q 655 651 642 660 q 672 629 668 643 q 675 596 675 615 l 675 44 q 672 15 675 28 q 655 -6 668 1 q 615 -12 642 -12 q 584 -8 596 -12 q 567 3 572 -4 q 559 19 561 10 q 557 38 557 28 l 563 97 q 529 61 549 81 q 484 24 510 42 q 426 -4 458 7 q 354 -15 394 -15 m 407 757 l 197 828 q 165 852 171 838 q 167 896 158 867 q 191 934 176 926 q 232 933 206 942 l 443 861 q 476 837 471 853 q 472 793 482 821 q 449 756 463 763 q 407 757 435 749 z "},"v":{"ha":746,"x_min":38,"x_max":703,"o":"m 372 -17 q 334 -10 349 -17 q 310 15 319 -3 l 53 575 q 46 626 38 608 q 85 658 54 643 q 132 667 113 672 q 165 631 151 663 l 372 138 l 575 617 q 608 663 590 649 q 665 657 626 676 q 703 616 703 639 q 690 567 703 593 l 435 17 q 413 -8 428 0 q 372 -17 397 -17 z "},"w":{"ha":1060,"x_min":39,"x_max":1029,"o":"m 321 -10 q 288 -3 300 -10 q 270 13 276 3 q 261 36 264 24 l 46 583 q 40 618 39 604 q 51 642 40 632 q 82 658 61 651 q 133 665 115 671 q 163 628 151 658 l 321 206 l 468 618 q 478 640 472 629 q 497 657 485 650 q 529 664 510 664 q 563 657 551 664 q 583 640 575 650 q 593 619 590 631 l 739 203 l 897 621 q 928 664 910 654 q 981 661 947 674 q 1019 633 1010 651 q 1015 582 1029 615 l 800 35 q 790 13 796 24 q 772 -3 783 3 q 740 -10 760 -10 q 710 -4 721 -10 q 692 13 699 1 q 679 39 685 25 l 531 467 l 381 39 q 369 11 375 22 q 351 -5 363 0 q 321 -10 340 -10 z "},"x":{"ha":686,"x_min":49,"x_max":639,"o":"m 606 649 q 632 620 625 633 q 633 591 639 607 q 608 553 628 575 l 169 13 q 138 -16 151 -8 q 110 -19 124 -24 q 79 -1 97 -15 q 55 27 61 14 q 55 56 49 40 q 79 93 61 71 l 518 633 q 563 667 546 664 q 606 649 579 671 m 82 649 q 113 667 100 663 q 139 663 126 671 q 168 633 151 654 l 607 93 q 633 56 626 71 q 633 27 639 40 q 607 -1 626 14 q 577 -19 590 -15 q 550 -16 564 -24 q 518 13 536 -8 l 79 553 q 54 591 60 575 q 55 620 49 607 q 82 649 61 633 z "},"y":{"ha":731,"x_min":38,"x_max":700,"o":"m 236 -283 q 197 -251 203 -269 q 207 -201 192 -233 l 575 625 q 608 665 590 657 q 657 658 625 672 q 695 625 690 643 q 686 576 700 607 l 315 -254 q 285 -292 301 -286 q 236 -283 268 -297 m 374 75 l 56 565 q 42 612 38 593 q 74 649 46 631 q 123 663 104 668 q 161 631 142 658 l 431 207 l 374 75 z "},"ý":{"ha":731,"x_min":38,"x_max":700,"o":"m 236 -283 q 197 -251 203 -269 q 207 -201 192 -233 l 575 625 q 608 665 590 657 q 657 658 625 672 q 695 625 690 643 q 686 576 700 607 l 315 -254 q 285 -292 301 -286 q 236 -283 268 -297 m 374 75 l 56 565 q 42 612 38 593 q 74 649 46 631 q 123 663 104 668 q 161 631 142 658 l 431 207 l 374 75 m 338 750 q 303 754 315 746 q 282 789 290 763 q 278 833 272 818 q 311 857 285 849 l 533 932 q 567 927 554 936 q 588 892 579 918 q 590 848 597 863 q 556 824 582 833 l 338 750 z "},"ÿ":{"ha":731,"x_min":38,"x_max":700,"o":"m 236 -283 q 197 -251 203 -269 q 207 -201 192 -233 l 575 625 q 608 665 590 657 q 657 658 625 672 q 695 625 690 643 q 686 576 700 607 l 315 -254 q 285 -292 301 -286 q 236 -283 268 -297 m 374 75 l 56 565 q 42 612 38 593 q 74 649 46 631 q 123 663 104 668 q 161 631 142 658 l 431 207 l 374 75 m 478 781 q 429 790 443 781 q 413 817 415 800 q 410 850 410 833 q 413 882 410 867 q 430 907 415 897 q 478 917 444 917 q 526 907 513 917 q 543 881 540 897 q 546 849 546 865 q 543 817 546 833 q 526 790 540 800 q 478 781 513 781 m 275 781 q 226 790 240 781 q 210 817 213 800 q 207 850 207 833 q 210 882 207 867 q 227 907 213 897 q 276 917 242 917 q 324 907 310 917 q 340 881 338 897 q 343 849 343 865 q 340 817 343 833 q 324 790 338 800 q 275 781 310 781 z "},"z":{"ha":738,"x_min":51,"x_max":686,"o":"m 113 -14 q 67 1 83 -14 q 51 46 51 17 q 56 73 51 61 q 72 94 61 85 l 481 536 l 146 536 q 113 540 126 536 q 91 557 99 543 q 83 597 83 571 q 91 638 83 625 q 113 655 99 651 q 146 658 126 658 l 607 658 q 653 643 638 658 q 668 600 668 628 q 664 575 668 586 q 653 557 660 564 l 244 110 l 625 110 q 658 105 644 110 q 679 87 672 100 q 686 46 686 74 q 678 6 686 19 q 657 -10 671 -7 q 624 -14 643 -14 l 113 -14 z "},"ž":{"ha":738,"x_min":51,"x_max":686,"o":"m 113 -14 q 67 1 83 -14 q 51 46 51 17 q 56 73 51 61 q 72 94 61 85 l 481 536 l 146 536 q 113 540 126 536 q 91 557 99 543 q 83 597 83 571 q 91 638 83 625 q 113 655 99 651 q 146 658 126 658 l 607 658 q 653 643 638 658 q 668 600 668 628 q 664 575 668 586 q 653 557 660 564 l 244 110 l 625 110 q 658 105 644 110 q 679 87 672 100 q 686 46 686 74 q 678 6 686 19 q 657 -10 671 -7 q 624 -14 643 -14 l 113 -14 m 369 856 l 494 922 q 519 930 507 928 q 543 924 531 932 q 567 894 556 917 q 575 850 582 867 q 539 822 568 833 l 390 753 q 381 749 386 750 q 369 747 376 747 q 357 749 363 747 q 347 753 351 750 l 199 822 q 165 850 172 833 q 171 892 158 867 q 195 923 183 915 q 218 930 207 931 q 240 924 229 929 l 369 856 z "},"ﬁ":{"ha":822,"x_min":42,"x_max":726,"o":"m 225 -15 q 187 -7 200 -15 q 169 16 174 1 q 165 50 165 31 l 165 747 q 178 844 165 803 q 219 914 190 886 q 294 956 249 942 q 406 971 339 971 q 438 967 424 971 q 460 951 453 964 q 468 911 468 938 q 460 872 468 885 q 438 854 451 858 q 404 850 424 850 q 349 847 372 850 q 314 835 326 844 q 295 805 301 825 q 289 750 289 785 l 289 46 q 284 14 289 28 q 266 -8 279 0 q 225 -15 253 -15 m 94 643 l 228 642 l 421 644 q 454 641 440 644 q 476 624 468 638 q 483 585 483 611 q 476 545 483 558 q 456 528 469 532 q 422 524 442 524 l 232 526 l 92 525 q 52 539 63 525 q 42 585 42 553 q 54 629 42 615 q 94 643 67 643 m 657 -14 q 617 -6 631 -14 q 600 15 604 1 q 596 49 596 29 l 596 597 q 600 631 596 617 q 617 651 604 644 q 658 658 631 658 q 697 651 685 658 q 714 629 710 643 q 718 594 718 615 l 718 47 q 714 14 718 28 q 697 -7 710 0 q 657 -14 683 -14 m 657 825 q 611 834 626 825 q 591 860 596 843 q 586 899 586 876 q 592 937 586 921 q 613 960 597 953 q 658 968 628 968 q 703 960 688 968 q 723 935 718 951 q 728 896 728 918 q 723 858 728 874 q 703 833 718 842 q 657 825 688 825 z "},"ﬂ":{"ha":922,"x_min":42,"x_max":860,"o":"m 225 -15 q 187 -7 200 -15 q 169 16 174 1 q 165 50 165 31 l 165 747 q 178 844 165 803 q 219 914 190 886 q 294 956 249 942 q 406 971 339 971 q 438 967 424 971 q 460 951 453 964 q 468 911 468 938 q 460 872 468 885 q 438 854 451 858 q 404 850 424 850 q 349 847 372 850 q 314 835 326 844 q 295 805 301 825 q 289 750 289 785 l 289 46 q 284 14 289 28 q 266 -8 279 0 q 225 -15 253 -15 m 94 643 l 228 642 l 421 644 q 454 641 440 644 q 476 624 468 638 q 483 585 483 611 q 476 545 483 558 q 456 528 469 532 q 422 524 442 524 l 232 526 l 92 525 q 52 539 63 525 q 42 585 42 553 q 54 629 42 615 q 94 643 67 643 m 807 -14 q 727 -6 763 -14 q 665 18 692 1 q 622 61 639 35 q 597 125 604 88 q 589 213 589 163 l 589 907 q 592 942 589 928 q 610 963 596 956 q 649 971 624 971 q 690 964 676 971 q 707 943 703 957 q 711 910 711 929 l 711 214 q 717 166 711 186 q 734 132 722 146 q 764 113 746 118 q 807 107 782 107 q 835 103 824 107 q 854 86 847 99 q 861 47 861 74 q 854 6 861 19 q 835 -10 847 -7 q 807 -14 824 -14 z "},"ª":{"ha":607,"x_min":31,"x_max":546,"o":"m 496 949 q 528 942 518 949 q 542 921 539 935 q 546 888 546 907 l 546 488 q 542 456 546 469 q 528 436 539 443 q 494 429 517 429 q 456 441 468 429 q 442 483 443 453 l 449 522 q 410 473 435 494 q 351 440 385 451 q 275 429 317 429 q 153 463 208 429 q 64 557 97 497 q 31 692 31 617 q 64 825 31 767 q 153 916 97 883 q 275 949 208 949 q 348 938 315 949 q 406 908 381 926 q 447 865 431 889 l 442 892 q 454 935 442 922 q 496 949 467 949 m 293 531 q 368 551 336 531 q 418 607 400 571 q 436 689 436 643 q 418 774 436 738 q 367 831 400 811 q 290 850 335 850 q 178 805 221 850 q 135 688 135 760 q 155 606 135 642 q 211 550 175 569 q 293 531 247 531 z "},"º":{"ha":599,"x_min":58,"x_max":565,"o":"m 314 425 q 183 458 240 425 q 92 550 125 492 q 58 685 58 608 q 91 820 58 761 q 182 913 124 879 q 314 946 240 946 q 445 913 389 946 q 533 822 501 881 q 565 686 565 763 q 533 551 565 610 q 445 458 501 492 q 314 425 389 425 m 314 528 q 419 572 379 528 q 460 689 460 617 q 419 801 460 758 q 314 843 379 843 q 205 800 246 843 q 164 688 164 757 q 206 572 164 615 q 314 528 247 528 z "},"א":{"ha":897,"x_min":64,"x_max":833,"o":"m 803 -4 q 765 -23 781 -21 q 738 -17 749 -25 q 715 6 726 -8 l 161 679 q 134 717 144 700 q 127 751 124 735 q 156 788 131 768 q 195 803 179 806 q 226 788 211 801 q 257 751 240 774 l 811 79 q 828 52 824 65 q 828 24 833 39 q 803 -4 822 10 m 110 -12 q 74 7 83 -6 q 65 38 64 19 q 71 78 65 57 l 233 633 l 335 592 l 190 53 q 176 8 183 25 q 153 -13 168 -8 q 110 -12 139 -18 m 625 228 l 578 268 l 697 735 q 712 774 704 757 q 735 797 719 790 q 782 794 751 804 q 817 773 808 786 q 822 742 825 760 q 813 700 819 724 l 719 350 q 700 301 711 321 q 671 264 689 281 q 625 228 653 247 z "},"אַ":{"ha":897,"x_min":64,"x_max":833,"o":"m 803 -4 q 765 -23 781 -21 q 738 -17 749 -25 q 715 6 726 -8 l 161 679 q 134 717 144 700 q 127 751 124 735 q 156 788 131 768 q 195 803 179 806 q 226 788 211 801 q 257 751 240 774 l 811 79 q 828 52 824 65 q 828 24 833 39 q 803 -4 822 10 m 110 -12 q 74 7 83 -6 q 65 38 64 19 q 71 78 65 57 l 233 633 l 335 592 l 190 53 q 176 8 183 25 q 153 -13 168 -8 q 110 -12 139 -18 m 625 228 l 578 268 l 697 735 q 712 774 704 757 q 735 797 719 790 q 782 794 751 804 q 817 773 808 786 q 822 742 825 760 q 813 700 819 724 l 719 350 q 700 301 711 321 q 671 264 689 281 q 625 228 653 247 m 389 -161 q 351 -125 351 -161 l 351 -119 q 362 -92 351 -101 q 389 -82 372 -82 l 547 -82 q 585 -119 585 -82 l 585 -125 q 547 -161 585 -161 l 389 -161 z "},"אָ":{"ha":897,"x_min":64,"x_max":833,"o":"m 803 -4 q 765 -23 781 -21 q 738 -17 749 -25 q 715 6 726 -8 l 161 679 q 134 717 144 700 q 127 751 124 735 q 156 788 131 768 q 195 803 179 806 q 226 788 211 801 q 257 751 240 774 l 811 79 q 828 52 824 65 q 828 24 833 39 q 803 -4 822 10 m 110 -12 q 74 7 83 -6 q 65 38 64 19 q 71 78 65 57 l 233 633 l 335 592 l 190 53 q 176 8 183 25 q 153 -13 168 -8 q 110 -12 139 -18 m 625 228 l 578 268 l 697 735 q 712 774 704 757 q 735 797 719 790 q 782 794 751 804 q 817 773 808 786 q 822 742 825 760 q 813 700 819 724 l 719 350 q 700 301 711 321 q 671 264 689 281 q 625 228 653 247 m 465 -311 q 438 -300 447 -311 q 431 -271 428 -289 l 444 -161 l 376 -161 q 339 -125 339 -161 l 339 -119 q 349 -92 339 -101 q 376 -82 358 -82 l 561 -82 q 589 -92 579 -82 q 599 -119 599 -101 l 599 -125 q 561 -161 599 -161 l 493 -161 l 504 -272 q 497 -301 507 -290 q 469 -311 488 -311 l 465 -311 z "},"אּ":{"ha":897,"x_min":64,"x_max":833,"o":"m 803 -4 q 765 -23 781 -21 q 738 -17 749 -25 q 715 6 726 -8 l 161 679 q 134 717 144 700 q 127 751 124 735 q 156 788 131 768 q 195 803 179 806 q 226 788 211 801 q 257 751 240 774 l 811 79 q 828 52 824 65 q 828 24 833 39 q 803 -4 822 10 m 110 -12 q 74 7 83 -6 q 65 38 64 19 q 71 78 65 57 l 233 633 l 335 592 l 190 53 q 176 8 183 25 q 153 -13 168 -8 q 110 -12 139 -18 m 625 228 l 578 268 l 697 735 q 712 774 704 757 q 735 797 719 790 q 782 794 751 804 q 817 773 808 786 q 822 742 825 760 q 813 700 819 724 l 719 350 q 700 301 711 321 q 671 264 689 281 q 625 228 653 247 m 406 90 q 369 106 383 90 q 356 146 356 122 q 371 181 356 165 q 404 197 386 197 q 440 182 425 197 q 454 144 454 167 q 440 106 454 122 q 406 90 426 90 z "},"ב":{"ha":883,"x_min":86,"x_max":814,"o":"m 638 -14 q 599 -7 613 -14 q 581 13 586 0 q 575 39 575 25 l 575 381 q 559 513 575 456 q 511 608 543 569 q 431 665 479 646 q 318 683 383 683 l 164 683 q 131 688 146 683 q 108 707 117 693 q 100 746 100 721 q 108 785 100 772 q 131 803 117 797 q 163 808 144 808 l 314 808 q 482 781 410 808 q 602 701 554 754 q 674 568 650 647 q 699 383 699 489 l 699 49 q 694 17 699 31 q 676 -6 690 3 q 638 -14 663 -14 m 150 -14 q 117 -9 132 -14 q 94 9 103 -4 q 86 47 86 22 q 94 87 86 74 q 117 105 103 100 q 149 110 132 110 l 751 110 q 783 105 769 110 q 806 87 797 100 q 814 47 814 74 q 806 9 814 22 q 783 -9 797 -4 q 750 -14 769 -14 l 150 -14 z "},"בּ":{"ha":883,"x_min":86,"x_max":814,"o":"m 638 -14 q 599 -7 613 -14 q 581 13 586 0 q 575 39 575 25 l 575 381 q 559 513 575 456 q 511 608 543 569 q 431 665 479 646 q 318 683 383 683 l 164 683 q 131 688 146 683 q 108 707 117 693 q 100 746 100 721 q 108 785 100 772 q 131 803 117 797 q 163 808 144 808 l 314 808 q 482 781 410 808 q 602 701 554 754 q 674 568 650 647 q 699 383 699 489 l 699 49 q 694 17 699 31 q 676 -6 690 3 q 638 -14 663 -14 m 150 -14 q 117 -9 132 -14 q 94 9 103 -4 q 86 47 86 22 q 94 87 86 74 q 117 105 103 100 q 149 110 132 110 l 751 110 q 783 105 769 110 q 806 87 797 100 q 814 47 814 74 q 806 9 814 22 q 783 -9 797 -4 q 750 -14 769 -14 l 150 -14 m 299 367 q 263 383 276 367 q 249 422 249 399 q 264 458 249 442 q 297 474 279 474 q 333 458 318 474 q 347 421 347 443 q 333 383 347 399 q 299 367 319 367 z "},"ג":{"ha":619,"x_min":53,"x_max":544,"o":"m 478 -12 q 440 -6 453 -12 q 424 14 428 1 q 417 43 419 26 l 364 471 q 353 558 358 519 q 338 626 347 597 q 310 669 328 654 q 258 688 292 685 q 201 690 224 689 q 168 696 179 690 q 151 710 157 700 q 147 736 146 721 l 149 768 q 160 800 150 790 q 203 808 171 810 q 228 808 208 808 q 274 806 247 808 q 365 778 329 800 q 422 720 400 757 q 455 631 443 683 q 476 513 467 579 l 540 46 q 529 3 544 18 q 478 -12 514 -12 m 126 -10 q 88 -9 104 -11 q 64 5 72 -7 q 54 42 56 17 q 65 94 53 81 q 106 107 76 107 q 173 116 139 108 q 240 137 207 124 q 307 169 274 150 q 372 215 340 189 q 433 271 403 240 l 435 179 q 387 122 413 149 q 331 72 361 94 q 269 33 301 50 q 201 4 236 15 q 126 -10 165 -7 z "},"גּ":{"ha":619,"x_min":53,"x_max":544,"o":"m 478 -12 q 440 -6 453 -12 q 424 14 428 1 q 417 43 419 26 l 364 471 q 353 558 358 519 q 338 626 347 597 q 310 669 328 654 q 258 688 292 685 q 201 690 224 689 q 168 696 179 690 q 151 710 157 700 q 147 736 146 721 l 149 768 q 160 800 150 790 q 203 808 171 810 q 228 808 208 808 q 274 806 247 808 q 365 778 329 800 q 422 720 400 757 q 455 631 443 683 q 476 513 467 579 l 540 46 q 529 3 544 18 q 478 -12 514 -12 m 126 -10 q 88 -9 104 -11 q 64 5 72 -7 q 54 42 56 17 q 65 94 53 81 q 106 107 76 107 q 173 116 139 108 q 240 137 207 124 q 307 169 274 150 q 372 215 340 189 q 433 271 403 240 l 435 179 q 387 122 413 149 q 331 72 361 94 q 269 33 301 50 q 201 4 236 15 q 126 -10 165 -7 m 183 375 q 147 391 161 375 q 133 431 133 407 q 149 466 133 450 q 182 482 164 482 q 217 467 203 482 q 232 429 232 451 q 218 391 232 407 q 183 375 204 375 z "},"ד":{"ha":846,"x_min":65,"x_max":769,"o":"m 129 683 q 97 688 111 683 q 74 707 82 693 q 65 746 65 721 q 74 785 65 772 q 97 803 82 797 q 128 808 111 808 l 708 808 q 740 803 726 808 q 761 785 753 797 q 769 746 769 772 q 761 707 769 721 q 739 688 753 693 q 707 683 725 683 l 129 683 m 550 -14 q 513 -6 525 -14 q 494 17 500 3 q 489 50 489 32 l 489 701 l 613 696 l 613 40 q 608 13 613 26 q 590 -7 603 0 q 550 -14 576 -14 z "},"דּ":{"ha":846,"x_min":65,"x_max":769,"o":"m 129 683 q 97 688 111 683 q 74 707 82 693 q 65 746 65 721 q 74 785 65 772 q 97 803 82 797 q 128 808 111 808 l 708 808 q 740 803 726 808 q 761 785 753 797 q 769 746 769 772 q 761 707 769 721 q 739 688 753 693 q 707 683 725 683 l 129 683 m 550 -14 q 513 -6 525 -14 q 494 17 500 3 q 489 50 489 32 l 489 701 l 613 696 l 613 40 q 608 13 613 26 q 590 -7 603 0 q 550 -14 576 -14 m 242 364 q 206 380 219 364 q 192 419 192 396 q 207 455 192 439 q 240 471 222 471 q 276 456 261 471 q 290 418 290 440 q 276 380 290 396 q 242 364 263 364 z "},"ה":{"ha":846,"x_min":76,"x_max":781,"o":"m 719 -14 q 681 -7 694 -14 q 663 13 668 0 q 657 40 657 26 l 657 381 q 628 549 657 482 q 543 649 600 615 q 400 683 486 683 l 139 683 q 107 688 121 683 q 85 707 93 693 q 76 746 76 721 q 85 785 76 772 q 107 803 93 797 q 138 808 121 808 l 396 808 q 609 760 524 808 q 738 619 694 713 q 781 383 781 525 l 781 50 q 776 17 781 32 q 758 -6 771 3 q 719 -14 744 -14 m 150 -14 q 113 -6 125 -14 q 95 17 100 3 q 90 49 90 32 l 90 392 q 95 424 90 410 q 113 445 100 438 q 151 453 126 453 q 191 444 178 453 q 208 422 204 436 q 213 390 213 408 l 213 47 q 208 17 213 31 q 190 -6 203 3 q 150 -14 176 -14 z "},"הּ":{"ha":846,"x_min":76,"x_max":781,"o":"m 719 -14 q 681 -7 694 -14 q 663 13 668 0 q 657 40 657 26 l 657 381 q 628 549 657 482 q 543 649 600 615 q 400 683 486 683 l 139 683 q 107 688 121 683 q 85 707 93 693 q 76 746 76 721 q 85 785 76 772 q 107 803 93 797 q 138 808 121 808 l 396 808 q 609 760 524 808 q 738 619 694 713 q 781 383 781 525 l 781 50 q 776 17 781 32 q 758 -6 771 3 q 719 -14 744 -14 m 150 -14 q 113 -6 125 -14 q 95 17 100 3 q 90 49 90 32 l 90 392 q 95 424 90 410 q 113 445 100 438 q 151 453 126 453 q 191 444 178 453 q 208 422 204 436 q 213 390 213 408 l 213 47 q 208 17 213 31 q 190 -6 203 3 q 150 -14 176 -14 m 413 364 q 376 380 390 364 q 363 419 363 396 q 378 455 363 439 q 411 471 393 471 q 447 456 432 471 q 461 418 461 440 q 447 380 461 396 q 413 364 433 364 z "},"ו":{"ha":343,"x_min":111,"x_max":233,"o":"m 171 -14 q 133 -6 146 -14 q 116 17 121 3 q 111 49 111 32 l 111 747 q 116 778 111 764 q 134 800 121 792 q 172 808 147 808 q 212 799 199 808 q 229 777 225 790 q 233 746 233 764 l 233 47 q 228 17 233 31 q 210 -6 224 3 q 171 -14 197 -14 z "},"וּ":{"ha":465,"x_min":43,"x_max":350,"o":"m 288 -14 q 250 -6 263 -14 q 233 17 238 3 q 228 49 228 32 l 228 747 q 233 778 228 764 q 251 800 238 792 q 289 808 264 808 q 328 799 315 808 q 346 777 342 790 q 350 746 350 764 l 350 47 q 345 17 350 31 q 327 -6 340 3 q 288 -14 314 -14 m 93 392 q 57 408 71 392 q 43 447 43 424 q 58 483 43 467 q 92 499 74 499 q 127 483 113 499 q 142 446 142 468 q 128 408 142 424 q 93 392 114 392 z "},"וֹ":{"ha":343,"x_min":-29,"x_max":233,"o":"m 171 -14 q 133 -6 146 -14 q 116 17 121 3 q 111 49 111 32 l 111 747 q 116 778 111 764 q 134 800 121 792 q 172 808 147 808 q 212 799 199 808 q 229 777 225 790 q 233 746 233 764 l 233 47 q 228 17 233 31 q 210 -6 224 3 q 171 -14 197 -14 m 25 929 q -13 946 1 929 q -28 988 -28 963 q -12 1026 -28 1010 q 24 1043 4 1043 q 62 1027 46 1043 q 78 988 78 1011 q 63 946 78 963 q 25 929 47 929 z "},"ז":{"ha":614,"x_min":64,"x_max":529,"o":"m 332 -14 q 298 -8 310 -14 q 281 8 286 -3 q 274 31 276 18 q 269 61 271 44 l 226 383 q 215 516 217 457 q 223 621 213 575 q 257 701 233 667 l 357 696 q 341 656 347 679 q 333 603 335 632 q 332 540 331 574 q 338 466 333 506 q 347 381 342 426 l 389 63 q 383 4 394 22 q 332 -14 371 -14 m 128 683 q 95 688 110 683 q 72 707 81 693 q 64 746 64 721 q 72 785 64 772 q 95 803 81 797 q 126 808 110 808 l 468 808 q 499 803 486 808 q 521 785 513 797 q 529 746 529 772 q 521 707 529 721 q 499 688 513 693 q 467 683 485 683 l 128 683 z "},"זּ":{"ha":635,"x_min":22,"x_max":553,"o":"m 356 -14 q 322 -8 333 -14 q 305 8 310 -3 q 297 31 300 18 q 293 61 294 44 l 250 383 q 238 516 240 457 q 247 621 236 575 q 281 701 257 667 l 381 696 q 365 656 371 679 q 356 603 358 632 q 356 540 354 574 q 361 466 357 506 q 371 381 365 426 l 413 63 q 406 4 418 22 q 356 -14 394 -14 m 151 683 q 119 688 133 683 q 96 707 104 693 q 88 746 88 721 q 96 785 88 772 q 119 803 104 797 q 150 808 133 808 l 492 808 q 523 803 510 808 q 544 785 536 797 q 553 746 553 772 q 544 707 553 721 q 522 688 536 693 q 490 683 508 683 l 151 683 m 72 392 q 36 408 50 392 q 22 447 22 424 q 38 483 22 467 q 71 499 53 499 q 106 483 92 499 q 121 446 121 468 q 107 408 121 424 q 72 392 93 392 z "},"ח":{"ha":903,"x_min":99,"x_max":817,"o":"m 161 -14 q 123 -6 136 -14 q 104 17 110 3 q 99 49 99 32 l 99 746 q 104 776 99 763 q 123 799 110 790 q 161 807 136 807 l 433 808 q 600 782 528 808 q 720 702 672 756 q 792 569 768 649 q 817 383 817 490 l 817 50 q 813 17 817 32 q 795 -6 808 3 q 756 -14 782 -14 q 717 -7 731 -14 q 699 13 704 0 q 694 40 694 26 l 694 381 q 678 513 694 456 q 629 608 661 569 q 549 665 597 646 q 438 683 501 683 l 224 683 l 224 50 q 219 17 224 32 q 201 -6 214 3 q 161 -14 188 -14 z "},"ט":{"ha":897,"x_min":76,"x_max":828,"o":"m 449 -19 q 289 15 358 -19 q 172 114 219 50 q 100 264 124 178 q 76 454 76 350 l 76 746 q 81 777 76 763 q 99 800 86 792 q 138 808 113 808 q 177 800 164 808 q 195 777 190 792 q 200 744 200 763 l 200 454 q 266 197 200 288 q 453 106 332 106 q 640 186 575 106 q 701 417 704 267 q 643 613 700 542 q 497 683 586 683 l 431 683 q 404 688 415 683 q 387 707 393 693 q 381 746 381 721 q 389 784 381 771 q 411 803 397 797 q 443 808 425 808 l 499 808 q 673 760 599 808 q 788 620 747 711 q 824 404 828 529 q 797 228 824 307 q 722 94 771 150 q 603 10 672 39 q 449 -19 535 -19 z "},"טּ":{"ha":897,"x_min":76,"x_max":828,"o":"m 449 -19 q 289 15 358 -19 q 172 114 219 50 q 100 264 124 178 q 76 454 76 350 l 76 746 q 81 777 76 763 q 99 800 86 792 q 138 808 113 808 q 177 800 164 808 q 195 777 190 792 q 200 744 200 763 l 200 454 q 266 197 200 288 q 453 106 332 106 q 640 186 575 106 q 701 417 704 267 q 643 613 700 542 q 497 683 586 683 l 431 683 q 404 688 415 683 q 387 707 393 693 q 381 746 381 721 q 389 784 381 771 q 411 803 397 797 q 443 808 425 808 l 499 808 q 673 760 599 808 q 788 620 747 711 q 824 404 828 529 q 797 228 824 307 q 722 94 771 150 q 603 10 672 39 q 449 -19 535 -19 m 451 379 q 415 395 429 379 q 401 435 401 411 q 417 470 401 454 q 450 486 432 486 q 485 471 471 486 q 500 433 500 456 q 486 395 500 411 q 451 379 472 379 z "},"י":{"ha":343,"x_min":111,"x_max":233,"o":"m 171 379 q 133 388 146 379 q 116 411 121 397 q 111 442 111 425 l 111 747 q 116 778 111 764 q 134 800 121 792 q 172 808 147 808 q 212 799 199 808 q 229 777 225 790 q 233 746 233 764 l 233 440 q 228 410 233 424 q 210 388 224 396 q 171 379 197 379 z "},"יּ":{"ha":467,"x_min":26,"x_max":346,"o":"m 283 379 q 246 388 258 379 q 228 411 233 397 q 224 442 224 425 l 224 747 q 228 778 224 764 q 247 800 233 792 q 285 808 260 808 q 324 799 311 808 q 342 777 338 790 q 346 746 346 764 l 346 440 q 341 410 346 424 q 323 388 336 396 q 283 379 310 379 m 76 543 q 40 559 54 543 q 26 599 26 575 q 42 634 26 618 q 75 650 57 650 q 110 635 96 650 q 125 597 125 619 q 111 559 125 575 q 76 543 97 543 z "},"ך":{"ha":778,"x_min":65,"x_max":701,"o":"m 642 -208 q 603 -201 617 -208 q 584 -181 589 -193 q 579 -154 579 -168 l 579 381 q 563 513 579 456 q 515 608 547 569 q 434 665 482 646 q 322 683 386 683 l 129 683 q 97 688 111 683 q 74 707 82 693 q 65 746 65 721 q 74 785 65 772 q 97 803 82 797 q 128 808 111 808 l 318 808 q 485 781 413 808 q 605 701 557 754 q 677 568 653 647 q 701 383 701 489 l 701 -144 q 697 -176 701 -162 q 680 -199 693 -190 q 642 -208 667 -208 z "},"ךּ":{"ha":778,"x_min":65,"x_max":701,"o":"m 642 -208 q 603 -201 617 -208 q 584 -181 589 -193 q 579 -154 579 -168 l 579 381 q 563 513 579 456 q 515 608 547 569 q 434 665 482 646 q 322 683 386 683 l 129 683 q 97 688 111 683 q 74 707 82 693 q 65 746 65 721 q 74 785 65 772 q 97 803 82 797 q 128 808 111 808 l 318 808 q 485 781 413 808 q 605 701 557 754 q 677 568 653 647 q 701 383 701 489 l 701 -144 q 697 -176 701 -162 q 680 -199 693 -190 q 642 -208 667 -208 m 293 338 q 257 353 271 338 q 243 393 243 369 q 258 428 243 413 q 292 444 274 444 q 327 429 313 444 q 342 392 342 414 q 328 353 342 369 q 293 338 314 338 z "},"כ":{"ha":793,"x_min":65,"x_max":721,"o":"m 349 -21 q 219 -4 278 -21 q 117 38 160 13 q 80 67 94 51 q 65 96 65 83 q 69 119 65 107 q 79 143 74 132 q 101 167 90 158 q 121 175 111 175 q 141 169 131 175 q 163 157 151 164 q 244 117 201 131 q 346 103 286 103 q 478 139 421 103 q 568 241 536 175 q 600 396 600 307 q 539 604 600 525 q 368 683 478 683 l 161 683 q 135 688 147 683 q 117 708 124 693 q 111 746 111 722 q 119 784 111 771 q 142 803 128 797 q 174 808 157 808 l 385 808 q 560 756 485 808 q 678 610 636 703 q 721 396 721 518 q 692 222 721 300 q 612 90 663 144 q 494 8 561 36 q 349 -21 426 -21 z "},"כּ":{"ha":793,"x_min":65,"x_max":721,"o":"m 349 -21 q 219 -4 278 -21 q 117 38 160 13 q 80 67 94 51 q 65 96 65 83 q 69 119 65 107 q 79 143 74 132 q 101 167 90 158 q 121 175 111 175 q 141 169 131 175 q 163 157 151 164 q 244 117 201 131 q 346 103 286 103 q 478 139 421 103 q 568 241 536 175 q 600 396 600 307 q 539 604 600 525 q 368 683 478 683 l 161 683 q 135 688 147 683 q 117 708 124 693 q 111 746 111 722 q 119 784 111 771 q 142 803 128 797 q 174 808 157 808 l 385 808 q 560 756 485 808 q 678 610 636 703 q 721 396 721 518 q 692 222 721 300 q 612 90 663 144 q 494 8 561 36 q 349 -21 426 -21 m 328 378 q 292 394 306 378 q 278 433 278 410 q 293 469 278 453 q 326 485 308 485 q 362 469 347 485 q 376 432 376 454 q 363 394 376 410 q 328 378 349 378 z "},"ל":{"ha":725,"x_min":72,"x_max":669,"o":"m 274 -10 q 231 26 240 7 q 238 71 221 46 q 352 255 301 169 q 442 417 403 340 q 513 571 482 494 q 565 728 543 647 l 658 657 q 583 457 626 553 q 485 257 540 361 q 354 24 429 153 q 334 -4 346 7 q 308 -18 322 -15 q 274 -10 293 -21 m 656 653 l 571 683 l 154 683 q 103 699 119 683 q 83 749 86 714 l 72 965 q 77 997 72 983 q 97 1017 82 1010 q 139 1025 113 1025 q 175 1017 164 1025 q 191 994 186 1008 q 196 960 196 979 l 204 808 l 557 808 q 628 789 601 808 q 662 734 654 769 q 656 653 669 699 z "},"לּ":{"ha":725,"x_min":72,"x_max":669,"o":"m 274 -10 q 231 26 240 7 q 238 71 221 46 q 352 255 301 169 q 442 417 403 340 q 513 571 482 494 q 565 728 543 647 l 658 657 q 583 457 626 553 q 485 257 540 361 q 354 24 429 153 q 334 -4 346 7 q 308 -18 322 -15 q 274 -10 293 -21 m 656 653 l 571 683 l 154 683 q 103 699 119 683 q 83 749 86 714 l 72 965 q 77 997 72 983 q 97 1017 82 1010 q 139 1025 113 1025 q 175 1017 164 1025 q 191 994 186 1008 q 196 960 196 979 l 204 808 l 557 808 q 628 789 601 808 q 662 734 654 769 q 656 653 669 699 m 204 388 q 168 403 182 388 q 154 443 154 419 q 169 478 154 463 q 203 494 185 494 q 238 479 224 494 q 253 442 253 464 q 239 403 253 419 q 204 388 225 388 z "},"ם":{"ha":861,"x_min":83,"x_max":792,"o":"m 144 -14 q 106 -6 119 -14 q 88 17 93 3 q 83 49 83 32 l 83 736 q 103 790 83 772 q 160 808 122 808 l 435 808 q 630 763 550 808 q 751 633 710 718 q 792 425 792 549 l 792 50 q 788 17 792 32 q 770 -6 783 3 q 731 -14 757 -14 q 692 -7 706 -14 q 674 13 679 0 q 669 40 669 26 l 669 421 q 644 567 669 508 q 567 654 618 625 q 439 683 517 683 l 207 683 l 207 50 q 202 17 207 32 q 184 -6 197 3 q 144 -14 171 -14 m 142 -14 l 143 111 l 732 111 l 733 -14 l 142 -14 z "},"מ":{"ha":933,"x_min":74,"x_max":828,"o":"m 828 433 l 828 49 q 824 9 828 22 q 807 -9 819 -4 q 768 -14 794 -14 l 431 -14 q 399 -8 414 -14 q 376 10 385 -3 q 368 49 368 24 q 376 88 368 75 q 399 106 385 101 q 432 111 414 111 l 706 111 l 706 429 q 683 578 706 519 q 616 664 660 636 q 510 692 572 692 q 426 672 464 692 q 361 615 389 651 q 313 530 333 579 q 279 421 293 481 l 204 53 q 196 19 201 35 q 177 -5 190 4 q 140 -14 164 -14 q 89 2 104 -14 q 79 49 74 18 l 178 538 l 222 508 q 256 606 236 560 q 299 691 275 653 q 357 757 324 729 q 433 800 390 785 q 532 815 475 815 q 692 773 626 815 q 793 645 758 731 q 828 433 828 560 m 175 394 l 86 726 q 81 761 81 746 q 91 788 81 776 q 128 807 101 800 q 175 807 160 814 q 196 785 190 800 q 204 758 201 771 l 269 504 l 175 394 z "},"מּ":{"ha":933,"x_min":74,"x_max":828,"o":"m 828 433 l 828 49 q 824 9 828 22 q 807 -9 819 -4 q 768 -14 794 -14 l 431 -14 q 399 -8 414 -14 q 376 10 385 -3 q 368 49 368 24 q 376 88 368 75 q 399 106 385 101 q 432 111 414 111 l 706 111 l 706 429 q 683 578 706 519 q 616 664 660 636 q 510 692 572 692 q 426 672 464 692 q 361 615 389 651 q 313 530 333 579 q 279 421 293 481 l 204 53 q 196 19 201 35 q 177 -5 190 4 q 140 -14 164 -14 q 89 2 104 -14 q 79 49 74 18 l 178 538 l 222 508 q 256 606 236 560 q 299 691 275 653 q 357 757 324 729 q 433 800 390 785 q 532 815 475 815 q 692 773 626 815 q 793 645 758 731 q 828 433 828 560 m 175 394 l 86 726 q 81 761 81 746 q 91 788 81 776 q 128 807 101 800 q 175 807 160 814 q 196 785 190 800 q 204 758 201 771 l 269 504 l 175 394 m 497 364 q 461 380 475 364 q 447 419 447 396 q 463 455 447 439 q 496 471 478 471 q 531 456 517 471 q 546 418 546 440 q 532 380 546 396 q 497 364 518 364 z "},"ן":{"ha":343,"x_min":111,"x_max":233,"o":"m 171 -208 q 133 -199 146 -208 q 116 -176 121 -190 q 111 -146 111 -162 l 111 747 q 116 778 111 764 q 134 800 121 792 q 172 808 147 808 q 212 799 199 808 q 229 777 225 790 q 233 746 233 764 l 233 -147 q 228 -178 233 -164 q 210 -200 224 -192 q 171 -208 197 -208 z "},"נ":{"ha":614,"x_min":90,"x_max":542,"o":"m 481 -14 q 442 -7 456 -14 q 424 13 429 0 q 418 40 418 26 l 418 421 q 397 567 418 508 q 335 654 376 625 q 229 683 293 683 l 181 683 q 148 688 163 683 q 125 707 133 693 q 117 746 117 721 q 125 785 117 772 q 148 803 133 797 q 179 808 163 808 l 226 808 q 401 765 331 808 q 506 638 471 722 q 542 425 542 553 l 542 50 q 538 17 542 32 q 519 -6 533 3 q 481 -14 506 -14 m 154 -14 q 121 -8 135 -14 q 99 10 107 -3 q 90 49 90 24 q 99 88 90 75 q 121 106 107 101 q 153 111 135 111 l 486 111 l 485 -14 l 154 -14 z "},"נּ":{"ha":614,"x_min":90,"x_max":542,"o":"m 481 -14 q 442 -7 456 -14 q 424 13 429 0 q 418 40 418 26 l 418 421 q 397 567 418 508 q 335 654 376 625 q 229 683 293 683 l 181 683 q 148 688 163 683 q 125 707 133 693 q 117 746 117 721 q 125 785 117 772 q 148 803 133 797 q 179 808 163 808 l 226 808 q 401 765 331 808 q 506 638 471 722 q 542 425 542 553 l 542 50 q 538 17 542 32 q 519 -6 533 3 q 481 -14 506 -14 m 154 -14 q 121 -8 135 -14 q 99 10 107 -3 q 90 49 90 24 q 99 88 90 75 q 121 106 107 101 q 153 111 135 111 l 486 111 l 485 -14 l 154 -14 m 206 364 q 169 380 183 364 q 156 419 156 396 q 171 455 156 439 q 204 471 186 471 q 240 456 225 471 q 254 418 254 440 q 240 380 254 396 q 206 364 226 364 z "},"ס":{"ha":911,"x_min":86,"x_max":839,"o":"m 468 -15 q 265 34 351 -15 q 132 176 178 83 q 86 394 86 268 l 86 736 q 106 789 86 769 q 157 808 125 808 l 458 808 q 663 759 578 808 q 793 617 747 710 q 839 396 839 524 q 794 176 839 268 q 667 34 750 83 q 468 -15 583 -15 m 463 110 q 647 185 581 110 q 714 396 714 261 q 685 551 714 486 q 599 649 656 615 q 464 683 543 683 l 211 683 l 211 396 q 278 185 211 261 q 463 110 344 110 z "},"סּ":{"ha":911,"x_min":86,"x_max":839,"o":"m 468 -15 q 265 34 351 -15 q 132 176 178 83 q 86 394 86 268 l 86 736 q 106 789 86 769 q 157 808 125 808 l 458 808 q 663 759 578 808 q 793 617 747 710 q 839 396 839 524 q 794 176 839 268 q 667 34 750 83 q 468 -15 583 -15 m 463 110 q 647 185 581 110 q 714 396 714 261 q 685 551 714 486 q 599 649 656 615 q 464 683 543 683 l 211 683 l 211 396 q 278 185 211 261 q 463 110 344 110 m 453 374 q 417 390 431 374 q 403 429 403 406 q 418 465 403 449 q 451 481 433 481 q 487 465 472 481 q 501 428 501 450 q 488 390 501 406 q 453 374 474 374 z "},"ע":{"ha":828,"x_min":67,"x_max":725,"o":"m 156 -47 q 119 -53 136 -53 q 90 -41 101 -53 q 72 -3 79 -29 q 73 36 67 22 q 94 58 79 50 q 131 72 110 67 l 417 150 q 522 208 481 172 q 581 296 563 243 q 600 419 600 349 l 600 754 q 605 781 600 769 q 622 801 610 793 q 660 808 635 808 q 700 800 686 808 q 719 777 714 792 q 725 744 725 763 l 724 458 q 704 300 724 369 q 647 179 685 231 q 553 90 610 128 q 418 28 496 53 l 156 -47 m 322 104 q 285 133 304 114 q 256 183 267 151 l 90 724 q 83 756 85 742 q 92 783 82 771 q 128 803 101 796 q 172 806 156 811 q 196 785 188 800 q 210 750 204 769 l 397 126 l 322 104 z "},"ף":{"ha":799,"x_min":44,"x_max":731,"o":"m 668 -208 q 631 -199 643 -208 q 613 -176 618 -190 q 607 -146 607 -162 l 607 414 q 581 567 607 506 q 503 659 554 628 q 379 690 451 690 l 338 690 q 246 666 286 690 q 183 605 206 642 q 165 529 160 568 q 178 469 168 496 q 206 421 188 442 q 253 385 225 400 q 276 353 272 372 q 267 316 279 335 q 228 285 256 297 q 178 289 208 276 q 118 333 149 301 q 67 411 88 364 q 46 517 47 458 q 67 634 44 581 q 133 728 90 688 q 232 792 175 769 q 356 814 289 814 l 375 814 q 567 769 488 814 q 688 635 646 724 q 731 418 731 546 l 731 -147 q 726 -178 731 -164 q 708 -200 721 -192 q 668 -208 694 -208 z "},"ףּ":{"ha":799,"x_min":44,"x_max":731,"o":"m 668 -208 q 631 -199 643 -208 q 613 -176 618 -190 q 607 -146 607 -162 l 607 414 q 581 567 607 506 q 503 659 554 628 q 379 690 451 690 l 338 690 q 246 666 286 690 q 183 605 206 642 q 165 529 160 568 q 178 469 168 496 q 206 421 188 442 q 253 385 225 400 q 276 353 272 372 q 267 316 279 335 q 228 285 256 297 q 178 289 208 276 q 118 333 149 301 q 67 411 88 364 q 46 517 47 458 q 67 634 44 581 q 133 728 90 688 q 232 792 175 769 q 356 814 289 814 l 375 814 q 567 769 488 814 q 688 635 646 724 q 731 418 731 546 l 731 -147 q 726 -178 731 -164 q 708 -200 721 -192 q 668 -208 694 -208 m 407 353 q 371 369 385 353 q 357 408 357 385 q 372 444 357 428 q 406 460 388 460 q 441 444 426 460 q 456 407 456 429 q 442 369 456 385 q 407 353 428 353 z "},"פ":{"ha":818,"x_min":64,"x_max":753,"o":"m 154 -14 q 123 -8 138 -14 q 100 10 108 -3 q 92 49 92 24 q 100 88 92 75 q 123 106 108 101 q 156 111 138 111 l 376 111 q 510 143 453 111 q 599 238 567 175 q 631 396 631 301 l 631 414 q 570 619 631 549 q 399 690 510 690 l 361 690 q 270 666 311 690 q 206 606 229 642 q 188 533 183 571 q 208 451 189 485 q 267 396 226 418 q 284 373 281 388 q 282 343 288 358 q 265 315 276 328 q 240 299 254 303 q 194 302 222 290 q 136 343 165 314 q 87 416 107 372 q 65 514 67 460 q 87 632 64 578 q 151 727 110 686 q 249 791 193 768 q 372 814 306 814 l 394 814 q 588 768 508 814 q 710 634 668 722 q 753 418 753 546 l 753 392 q 703 169 753 260 q 567 33 654 79 q 363 -14 479 -14 l 154 -14 z "},"פּ":{"ha":818,"x_min":64,"x_max":753,"o":"m 154 -14 q 123 -8 138 -14 q 100 10 108 -3 q 92 49 92 24 q 100 88 92 75 q 123 106 108 101 q 156 111 138 111 l 376 111 q 510 143 453 111 q 599 238 567 175 q 631 396 631 301 l 631 414 q 570 619 631 549 q 399 690 510 690 l 361 690 q 270 666 311 690 q 206 606 229 642 q 188 533 183 571 q 208 451 189 485 q 267 396 226 418 q 284 373 281 388 q 282 343 288 358 q 265 315 276 328 q 240 299 254 303 q 194 302 222 290 q 136 343 165 314 q 87 416 107 372 q 65 514 67 460 q 87 632 64 578 q 151 727 110 686 q 249 791 193 768 q 372 814 306 814 l 394 814 q 588 768 508 814 q 710 634 668 722 q 753 418 753 546 l 753 392 q 703 169 753 260 q 567 33 654 79 q 363 -14 479 -14 l 154 -14 m 410 353 q 374 369 388 353 q 360 408 360 385 q 375 444 360 428 q 408 460 390 460 q 444 444 429 460 q 458 407 458 429 q 444 369 458 385 q 410 353 431 353 z "},"ץ":{"ha":799,"x_min":92,"x_max":721,"o":"m 563 -210 q 520 -210 536 -215 q 497 -194 504 -206 q 486 -168 489 -182 q 433 58 468 -56 q 349 283 397 172 q 246 492 301 393 q 129 669 190 590 q 108 701 117 686 q 95 730 99 717 q 97 755 92 743 q 117 778 101 767 q 155 797 139 794 q 186 790 171 799 q 214 764 201 782 q 342 572 281 681 q 456 346 404 464 q 544 109 507 228 q 599 -114 582 -10 q 603 -148 601 -132 q 601 -176 604 -164 q 590 -198 599 -189 q 563 -210 581 -207 m 464 244 l 376 307 l 600 764 q 624 793 611 783 q 652 801 636 803 q 689 786 668 800 q 715 760 710 774 q 717 731 721 746 q 701 699 713 717 l 464 244 z "},"צ":{"ha":815,"x_min":72,"x_max":726,"o":"m 631 -14 l 526 131 l 108 706 q 97 749 92 729 q 125 788 101 768 q 163 805 147 804 q 190 797 178 806 q 214 772 203 788 l 631 182 q 660 140 646 160 q 681 107 674 119 q 690 71 689 92 q 685 31 692 50 q 665 -1 678 13 q 631 -14 651 -14 m 136 -14 q 103 -8 118 -14 q 81 10 89 -3 q 72 49 72 24 q 81 88 72 75 q 103 106 89 101 q 135 111 118 111 l 639 111 l 636 -14 l 136 -14 m 507 297 l 421 353 l 610 775 q 628 797 618 789 q 655 803 639 804 q 693 790 671 803 q 720 765 714 778 q 723 736 726 751 q 710 704 719 721 l 507 297 z "},"צּ":{"ha":815,"x_min":72,"x_max":726,"o":"m 631 -14 l 526 131 l 108 706 q 97 749 92 729 q 125 788 101 768 q 163 805 147 804 q 190 797 178 806 q 214 772 203 788 l 631 182 q 660 140 646 160 q 681 107 674 119 q 690 71 689 92 q 685 31 692 50 q 665 -1 678 13 q 631 -14 651 -14 m 136 -14 q 103 -8 118 -14 q 81 10 89 -3 q 72 49 72 24 q 81 88 72 75 q 103 106 89 101 q 135 111 118 111 l 639 111 l 636 -14 l 136 -14 m 507 297 l 421 353 l 610 775 q 628 797 618 789 q 655 803 639 804 q 693 790 671 803 q 720 765 714 778 q 723 736 726 751 q 710 704 719 721 l 507 297 m 242 206 q 206 222 219 206 q 192 261 192 238 q 207 297 192 281 q 240 313 222 313 q 276 297 261 313 q 290 260 290 282 q 276 222 290 238 q 242 206 263 206 z "},"ק":{"ha":833,"x_min":86,"x_max":781,"o":"m 476 -11 q 427 19 440 1 q 424 63 414 36 q 465 173 442 108 q 516 312 489 238 q 570 463 543 386 q 621 608 597 539 q 663 732 644 678 l 767 660 q 729 540 751 607 q 682 399 707 472 q 633 257 657 326 q 588 130 608 188 q 553 36 567 72 q 535 6 546 19 q 512 -12 525 -7 q 476 -11 499 -17 m 169 -224 q 132 -215 144 -224 q 115 -193 119 -207 q 110 -161 110 -179 l 110 436 q 115 467 110 453 q 133 488 119 481 q 171 496 146 496 q 210 488 197 496 q 228 466 224 479 q 232 435 232 453 l 232 -162 q 227 -194 232 -181 q 209 -215 222 -207 q 169 -224 196 -224 m 764 651 l 668 683 l 536 683 l 150 683 q 117 689 132 683 q 94 708 103 694 q 86 747 86 722 q 94 786 86 774 q 117 803 103 799 q 149 808 132 808 l 657 808 q 736 788 707 808 q 773 731 765 767 q 764 651 781 696 z "},"קּ":{"ha":833,"x_min":86,"x_max":781,"o":"m 476 -11 q 427 19 440 1 q 424 63 414 36 q 465 173 442 108 q 516 312 489 238 q 570 463 543 386 q 621 608 597 539 q 663 732 644 678 l 767 660 q 729 540 751 607 q 682 399 707 472 q 633 257 657 326 q 588 130 608 188 q 553 36 567 72 q 535 6 546 19 q 512 -12 525 -7 q 476 -11 499 -17 m 169 -224 q 132 -215 144 -224 q 115 -193 119 -207 q 110 -161 110 -179 l 110 436 q 115 467 110 453 q 133 488 119 481 q 171 496 146 496 q 210 488 197 496 q 228 466 224 479 q 232 435 232 453 l 232 -162 q 227 -194 232 -181 q 209 -215 222 -207 q 169 -224 196 -224 m 764 651 l 668 683 l 536 683 l 150 683 q 117 689 132 683 q 94 708 103 694 q 86 747 86 722 q 94 786 86 774 q 117 803 103 799 q 149 808 132 808 l 657 808 q 736 788 707 808 q 773 731 765 767 q 764 651 781 696 m 403 426 q 367 442 381 426 q 353 482 353 458 q 368 517 353 501 q 401 533 383 533 q 437 518 422 533 q 451 481 451 503 q 438 442 451 458 q 403 426 424 426 z "},"ר":{"ha":757,"x_min":42,"x_max":654,"o":"m 593 -14 q 555 -7 568 -14 q 536 13 542 0 q 531 40 531 26 l 531 381 q 515 513 531 456 q 466 608 499 569 q 385 665 433 646 q 274 683 338 683 l 106 683 q 72 688 86 683 q 50 707 58 693 q 42 746 42 721 q 50 785 42 772 q 72 803 58 797 q 104 808 86 808 l 269 808 q 437 781 365 808 q 557 701 508 754 q 630 568 606 647 q 654 383 654 489 l 654 50 q 649 17 654 32 q 631 -6 644 3 q 593 -14 618 -14 z "},"רּ":{"ha":757,"x_min":42,"x_max":654,"o":"m 593 -14 q 555 -7 568 -14 q 536 13 542 0 q 531 40 531 26 l 531 381 q 515 513 531 456 q 466 608 499 569 q 385 665 433 646 q 274 683 338 683 l 106 683 q 72 688 86 683 q 50 707 58 693 q 42 746 42 721 q 50 785 42 772 q 72 803 58 797 q 104 808 86 808 l 269 808 q 437 781 365 808 q 557 701 508 754 q 630 568 606 647 q 654 383 654 489 l 654 50 q 649 17 654 32 q 631 -6 644 3 q 593 -14 618 -14 m 229 324 q 193 340 207 324 q 179 379 179 356 q 194 415 179 399 q 228 431 210 431 q 263 415 249 431 q 278 378 278 400 q 264 340 278 356 q 229 324 250 324 z "},"ש":{"ha":1017,"x_min":86,"x_max":931,"o":"m 503 -19 q 325 14 403 -19 q 194 106 247 47 q 113 244 140 165 q 86 418 86 324 l 86 746 q 91 777 86 763 q 110 800 96 792 q 149 808 124 808 q 187 800 174 808 q 206 777 200 792 q 211 744 211 763 l 211 418 q 246 251 211 322 q 347 142 281 181 q 507 103 414 103 q 672 143 606 103 q 773 255 739 183 q 807 419 807 326 l 807 754 q 813 781 807 768 q 831 801 818 793 q 869 808 844 808 q 908 799 894 808 q 926 776 921 790 q 931 744 931 763 l 931 415 q 903 243 931 322 q 819 105 875 164 q 685 13 764 46 q 503 -19 606 -19 m 243 150 l 222 235 l 257 235 q 326 262 294 235 q 385 336 358 289 q 426 444 411 383 q 443 569 442 504 l 449 751 q 456 780 450 767 q 474 801 461 793 q 513 808 488 808 q 553 800 539 808 q 571 778 567 792 q 574 749 575 765 l 565 572 q 538 407 560 483 q 478 272 517 331 q 390 182 440 214 q 276 150 339 150 l 243 150 z "},"שׁ":{"ha":1017,"x_min":86,"x_max":931,"o":"m 503 -19 q 325 14 403 -19 q 194 106 247 47 q 113 244 140 165 q 86 418 86 324 l 86 746 q 91 777 86 763 q 110 800 96 792 q 149 808 124 808 q 187 800 174 808 q 206 777 200 792 q 211 744 211 763 l 211 418 q 246 251 211 322 q 347 142 281 181 q 507 103 414 103 q 672 143 606 103 q 773 255 739 183 q 807 419 807 326 l 807 754 q 813 781 807 768 q 831 801 818 793 q 869 808 844 808 q 908 799 894 808 q 926 776 921 790 q 931 744 931 763 l 931 415 q 903 243 931 322 q 819 105 875 164 q 685 13 764 46 q 503 -19 606 -19 m 243 150 l 222 235 l 257 235 q 326 262 294 235 q 385 336 358 289 q 426 444 411 383 q 443 569 442 504 l 449 751 q 456 780 450 767 q 474 801 461 793 q 513 808 488 808 q 553 800 539 808 q 571 778 567 792 q 574 749 575 765 l 565 572 q 538 407 560 483 q 478 272 517 331 q 390 182 440 214 q 276 150 339 150 l 243 150 m 857 924 q 819 941 835 924 q 804 982 804 958 q 820 1021 804 1004 q 857 1038 836 1038 q 893 1021 876 1038 q 910 982 910 1004 q 894 941 910 958 q 857 924 878 924 z "},"שׂ":{"ha":1017,"x_min":86,"x_max":931,"o":"m 503 -19 q 325 14 403 -19 q 194 106 247 47 q 113 244 140 165 q 86 418 86 324 l 86 746 q 91 777 86 763 q 110 800 96 792 q 149 808 124 808 q 187 800 174 808 q 206 777 200 792 q 211 744 211 763 l 211 418 q 246 251 211 322 q 347 142 281 181 q 507 103 414 103 q 672 143 606 103 q 773 255 739 183 q 807 419 807 326 l 807 754 q 813 781 807 768 q 831 801 818 793 q 869 808 844 808 q 908 799 894 808 q 926 776 921 790 q 931 744 931 763 l 931 415 q 903 243 931 322 q 819 105 875 164 q 685 13 764 46 q 503 -19 606 -19 m 243 150 l 222 235 l 257 235 q 326 262 294 235 q 385 336 358 289 q 426 444 411 383 q 443 569 442 504 l 449 751 q 456 780 450 767 q 474 801 461 793 q 513 808 488 808 q 553 800 539 808 q 571 778 567 792 q 574 749 575 765 l 565 572 q 538 407 560 483 q 478 272 517 331 q 390 182 440 214 q 276 150 339 150 l 243 150 m 161 924 q 124 941 139 924 q 108 982 108 958 q 124 1021 108 1004 q 161 1038 140 1038 q 197 1021 181 1038 q 214 982 214 1004 q 198 941 214 958 q 161 924 182 924 z "},"שּׁ":{"ha":1017,"x_min":86,"x_max":931,"o":"m 503 -19 q 325 14 403 -19 q 194 106 247 47 q 113 244 140 165 q 86 418 86 324 l 86 746 q 91 777 86 763 q 110 800 96 792 q 149 808 124 808 q 187 800 174 808 q 206 777 200 792 q 211 744 211 763 l 211 418 q 246 251 211 322 q 347 142 281 181 q 507 103 414 103 q 672 143 606 103 q 773 255 739 183 q 807 419 807 326 l 807 754 q 813 781 807 768 q 831 801 818 793 q 869 808 844 808 q 908 799 894 808 q 926 776 921 790 q 931 744 931 763 l 931 415 q 903 243 931 322 q 819 105 875 164 q 685 13 764 46 q 503 -19 606 -19 m 243 150 l 222 235 l 257 235 q 326 262 294 235 q 385 336 358 289 q 426 444 411 383 q 443 569 442 504 l 449 751 q 456 780 450 767 q 474 801 461 793 q 513 808 488 808 q 553 800 539 808 q 571 778 567 792 q 574 749 575 765 l 565 572 q 538 407 560 483 q 478 272 517 331 q 390 182 440 214 q 276 150 339 150 l 243 150 m 654 331 q 618 347 632 331 q 604 386 604 363 q 619 422 604 406 q 653 438 635 438 q 688 422 674 438 q 703 385 703 407 q 689 347 703 363 q 654 331 675 331 m 857 924 q 819 941 835 924 q 804 982 804 958 q 820 1021 804 1004 q 857 1038 836 1038 q 893 1021 876 1038 q 910 982 910 1004 q 894 941 910 958 q 857 924 878 924 z "},"שּׂ":{"ha":1017,"x_min":86,"x_max":931,"o":"m 503 -19 q 325 14 403 -19 q 194 106 247 47 q 113 244 140 165 q 86 418 86 324 l 86 746 q 91 777 86 763 q 110 800 96 792 q 149 808 124 808 q 187 800 174 808 q 206 777 200 792 q 211 744 211 763 l 211 418 q 246 251 211 322 q 347 142 281 181 q 507 103 414 103 q 672 143 606 103 q 773 255 739 183 q 807 419 807 326 l 807 754 q 813 781 807 768 q 831 801 818 793 q 869 808 844 808 q 908 799 894 808 q 926 776 921 790 q 931 744 931 763 l 931 415 q 903 243 931 322 q 819 105 875 164 q 685 13 764 46 q 503 -19 606 -19 m 243 150 l 222 235 l 257 235 q 326 262 294 235 q 385 336 358 289 q 426 444 411 383 q 443 569 442 504 l 449 751 q 456 780 450 767 q 474 801 461 793 q 513 808 488 808 q 553 800 539 808 q 571 778 567 792 q 574 749 575 765 l 565 572 q 538 407 560 483 q 478 272 517 331 q 390 182 440 214 q 276 150 339 150 l 243 150 m 654 331 q 618 347 632 331 q 604 386 604 363 q 619 422 604 406 q 653 438 635 438 q 688 422 674 438 q 703 385 703 407 q 689 347 703 363 q 654 331 675 331 m 161 924 q 124 941 139 924 q 108 982 108 958 q 124 1021 108 1004 q 161 1038 140 1038 q 197 1021 181 1038 q 214 982 214 1004 q 198 941 214 958 q 161 924 182 924 z "},"שּ":{"ha":1017,"x_min":86,"x_max":931,"o":"m 503 -19 q 325 14 403 -19 q 194 106 247 47 q 113 244 140 165 q 86 418 86 324 l 86 746 q 91 777 86 763 q 110 800 96 792 q 149 808 124 808 q 187 800 174 808 q 206 777 200 792 q 211 744 211 763 l 211 418 q 246 251 211 322 q 347 142 281 181 q 507 103 414 103 q 672 143 606 103 q 773 255 739 183 q 807 419 807 326 l 807 754 q 813 781 807 768 q 831 801 818 793 q 869 808 844 808 q 908 799 894 808 q 926 776 921 790 q 931 744 931 763 l 931 415 q 903 243 931 322 q 819 105 875 164 q 685 13 764 46 q 503 -19 606 -19 m 243 150 l 222 235 l 257 235 q 326 262 294 235 q 385 336 358 289 q 426 444 411 383 q 443 569 442 504 l 449 751 q 456 780 450 767 q 474 801 461 793 q 513 808 488 808 q 553 800 539 808 q 571 778 567 792 q 574 749 575 765 l 565 572 q 538 407 560 483 q 478 272 517 331 q 390 182 440 214 q 276 150 339 150 l 243 150 m 654 331 q 618 347 632 331 q 604 386 604 363 q 619 422 604 406 q 653 438 635 438 q 688 422 674 438 q 703 385 703 407 q 689 347 703 363 q 654 331 675 331 z "},"ת":{"ha":986,"x_min":76,"x_max":890,"o":"m 139 -14 q 107 -8 121 -14 q 85 10 93 -3 q 76 49 76 24 q 85 88 76 75 q 107 106 93 101 q 138 111 121 111 l 257 111 l 257 719 l 308 681 q 240 679 268 679 q 194 685 211 679 q 169 702 176 690 q 161 735 161 714 q 179 789 161 774 q 251 806 197 804 l 493 808 q 712 763 624 810 q 845 621 800 715 q 890 383 890 526 l 890 50 q 885 17 890 32 q 867 -6 881 3 q 829 -14 854 -14 q 791 -7 804 -14 q 772 13 778 0 q 767 40 767 26 l 767 381 q 738 549 767 482 q 653 649 710 615 q 510 683 596 683 l 382 683 l 382 76 q 366 9 382 32 q 318 -14 350 -14 l 139 -14 z "},"תּ":{"ha":986,"x_min":76,"x_max":890,"o":"m 139 -14 q 107 -8 121 -14 q 85 10 93 -3 q 76 49 76 24 q 85 88 76 75 q 107 106 93 101 q 138 111 121 111 l 257 111 l 257 719 l 308 681 q 240 679 268 679 q 194 685 211 679 q 169 702 176 690 q 161 735 161 714 q 179 789 161 774 q 251 806 197 804 l 493 808 q 712 763 624 810 q 845 621 800 715 q 890 383 890 526 l 890 50 q 885 17 890 32 q 867 -6 881 3 q 829 -14 854 -14 q 791 -7 804 -14 q 772 13 778 0 q 767 40 767 26 l 767 381 q 738 549 767 482 q 653 649 710 615 q 510 683 596 683 l 382 683 l 382 76 q 366 9 382 32 q 318 -14 350 -14 l 139 -14 m 561 364 q 525 380 539 364 q 511 419 511 396 q 526 455 511 439 q 560 471 542 471 q 595 456 581 471 q 610 418 610 440 q 596 380 610 396 q 561 364 582 364 z "},"⁄":{"ha":671,"x_min":29,"x_max":642,"o":"m 58 -37 q 35 -17 40 -28 q 33 8 29 -6 q 47 42 38 22 l 543 979 q 562 1008 553 997 q 583 1019 571 1018 q 614 1011 596 1021 q 637 991 632 1001 q 638 967 642 981 q 624 933 633 953 l 126 -4 q 107 -33 117 -22 q 86 -45 97 -43 q 58 -37 75 -47 z "},"½":{"ha":1097,"x_min":111,"x_max":1043,"o":"m 214 -37 q 192 -19 199 -29 q 189 5 186 -10 q 203 40 192 19 l 699 979 q 720 1009 710 1000 q 743 1019 731 1018 q 769 1011 756 1019 q 790 993 785 1003 q 793 969 796 983 q 781 935 790 956 l 282 -6 q 262 -35 272 -25 q 240 -45 251 -44 q 214 -37 229 -46 m 296 463 q 264 469 275 463 q 249 486 253 475 q 246 513 246 497 l 246 840 q 216 819 231 829 q 186 796 201 808 q 156 788 169 786 q 129 806 143 789 q 112 842 111 825 q 135 879 113 860 l 253 981 q 274 994 264 990 q 299 999 283 999 q 337 986 325 999 q 349 947 349 974 l 349 511 q 345 485 349 496 q 331 469 342 475 q 296 463 319 463 m 660 -14 q 635 -6 646 -14 q 617 14 624 1 q 611 39 611 26 q 613 70 611 56 q 624 99 614 85 q 654 125 633 113 q 759 193 711 163 q 844 253 807 224 q 901 315 881 282 q 922 385 922 347 q 910 428 922 410 q 875 457 899 446 q 815 468 851 468 q 754 453 778 468 q 719 414 731 439 q 707 356 707 389 q 703 330 707 340 q 689 313 700 319 q 656 307 678 307 q 620 315 631 307 q 608 337 610 324 q 607 361 607 350 q 633 470 607 424 q 706 542 660 517 q 815 568 753 568 q 924 543 878 568 q 997 476 971 518 q 1022 376 1022 433 q 1008 306 1022 340 q 965 240 994 272 q 891 174 936 208 q 785 101 846 140 l 754 86 l 1001 86 q 1023 82 1014 86 q 1038 67 1032 78 q 1043 33 1043 56 q 1038 4 1043 14 q 1023 -10 1032 -6 q 1000 -14 1014 -14 l 660 -14 z "},"¼":{"ha":1072,"x_min":81,"x_max":976,"o":"m 204 -37 q 183 -19 189 -29 q 179 5 176 -10 q 193 40 182 19 l 689 979 q 710 1009 700 1000 q 733 1019 721 1018 q 760 1011 746 1019 q 781 993 775 1003 q 784 969 786 983 q 771 935 782 956 l 272 -6 q 252 -35 263 -25 q 231 -45 242 -44 q 204 -37 219 -46 m 922 -14 q 889 -8 900 -14 q 874 10 878 -1 q 871 36 871 21 l 871 143 l 635 143 q 597 156 608 143 q 585 194 585 169 q 586 210 585 203 q 589 228 588 218 l 679 529 q 701 571 689 564 q 742 572 714 578 q 772 560 761 569 q 784 538 782 551 q 781 507 786 525 l 703 242 l 871 242 l 871 524 q 874 548 871 538 q 890 563 878 558 q 925 568 903 568 q 958 562 947 568 q 973 544 969 556 q 976 517 976 532 l 976 33 q 972 8 976 19 q 957 -8 968 -3 q 922 -14 946 -14 m 265 463 q 233 469 244 463 q 219 486 222 475 q 215 513 215 497 l 215 840 q 185 819 200 829 q 154 796 169 808 q 125 787 138 785 q 97 806 113 789 q 81 842 81 825 q 103 879 82 860 l 221 981 q 242 994 233 990 q 267 999 251 999 q 306 986 294 999 q 318 947 318 974 l 318 511 q 315 485 318 496 q 299 469 311 475 q 265 463 288 463 z "},"¾":{"ha":1138,"x_min":97,"x_max":1042,"o":"m 286 -37 q 265 -19 271 -29 q 261 6 258 -8 q 275 40 264 19 l 772 979 q 793 1009 783 1000 q 815 1019 803 1018 q 843 1011 828 1019 q 863 993 857 1003 q 867 969 869 983 q 853 935 864 956 l 354 -6 q 334 -35 344 -25 q 313 -44 324 -44 q 286 -37 301 -44 m 286 461 q 194 481 236 461 q 126 535 151 501 q 97 611 100 569 q 105 633 97 625 q 124 645 113 642 q 144 649 135 649 q 176 638 169 649 q 188 614 183 626 q 206 580 193 596 q 240 554 219 564 q 288 544 260 544 q 358 567 329 544 q 388 626 388 590 q 363 678 388 657 q 292 700 339 700 q 260 709 271 700 q 249 742 249 718 q 260 773 249 765 q 292 781 272 781 q 347 796 326 781 q 368 838 368 811 q 347 888 368 869 q 290 907 325 907 q 253 902 269 907 q 226 887 238 897 q 206 861 215 876 q 194 842 201 850 q 172 833 188 833 q 135 849 153 833 q 122 886 117 865 q 155 936 132 911 q 213 976 178 961 q 290 992 249 992 q 378 972 340 992 q 438 918 417 951 q 460 843 460 885 q 445 787 460 813 q 410 744 431 761 q 458 694 440 726 q 476 628 476 663 q 453 544 476 582 q 386 483 429 506 q 286 461 343 461 m 988 -14 q 955 -8 967 -14 q 940 10 943 -1 q 936 36 936 21 l 936 143 l 700 143 q 663 156 675 143 q 650 194 650 169 q 651 210 650 203 q 656 228 653 218 l 744 529 q 768 571 756 564 q 807 572 781 578 q 837 560 826 569 q 850 538 847 551 q 847 507 853 525 l 769 242 l 936 242 l 936 524 q 940 548 936 538 q 956 563 944 558 q 990 568 968 568 q 1024 562 1013 568 q 1038 544 1035 556 q 1042 517 1042 532 l 1042 33 q 1038 8 1042 19 q 1023 -8 1035 -3 q 988 -14 1011 -14 z "},"¹":{"ha":439,"x_min":47,"x_max":335,"o":"m 276 264 q 241 271 253 264 q 225 290 229 278 q 221 318 221 301 l 221 790 q 175 758 199 774 q 128 726 151 742 q 96 718 110 715 q 65 739 82 721 q 49 780 47 761 q 72 817 51 799 l 229 940 q 253 955 242 950 q 279 960 265 960 q 322 947 308 960 q 335 904 335 933 l 335 315 q 331 288 335 300 q 315 270 328 276 q 276 264 303 264 z "},"²":{"ha":621,"x_min":39,"x_max":564,"o":"m 99 269 q 68 277 82 269 q 47 299 54 285 q 39 329 39 313 q 40 363 39 346 q 51 397 42 379 q 85 429 61 414 q 215 515 154 476 q 322 590 275 553 q 394 665 368 626 q 419 750 419 704 q 405 811 419 785 q 360 853 390 838 q 288 868 331 868 q 212 850 242 868 q 167 800 182 832 q 153 728 153 768 q 149 696 153 708 q 132 676 144 683 q 93 669 119 669 q 54 679 65 669 q 41 704 43 689 q 39 733 39 719 q 69 864 39 808 q 156 950 100 919 q 286 981 211 981 q 419 951 364 981 q 505 869 475 922 q 535 740 535 815 q 524 672 535 704 q 492 608 514 639 q 436 544 469 576 q 357 478 403 513 q 253 406 311 444 l 201 383 l 513 383 q 539 378 528 383 q 557 362 550 374 q 564 325 564 350 q 558 290 564 301 q 539 274 551 278 q 511 269 526 269 l 99 269 z "},"³":{"ha":624,"x_min":36,"x_max":549,"o":"m 292 254 q 167 281 224 254 q 76 353 111 307 q 36 456 40 400 q 43 483 36 472 q 64 500 50 494 q 97 506 78 506 q 135 492 128 506 q 150 457 143 479 q 177 410 158 432 q 225 375 196 388 q 293 363 254 363 q 369 378 338 363 q 417 419 400 393 q 433 476 433 446 q 399 554 433 525 q 303 583 364 583 q 271 587 283 583 q 252 603 258 590 q 246 638 246 615 q 252 669 246 658 q 271 683 258 679 q 301 686 283 686 q 379 709 350 686 q 408 768 408 732 q 378 839 408 811 q 299 867 347 867 q 244 858 267 867 q 205 834 221 850 q 178 797 189 818 q 163 776 172 786 q 136 767 153 767 q 113 771 124 767 q 90 785 103 775 q 71 831 64 806 q 100 883 79 857 q 151 930 121 910 q 217 963 181 950 q 299 976 254 976 q 416 950 365 976 q 497 878 467 924 q 526 776 526 833 q 508 700 526 736 q 456 640 489 664 q 504 598 483 624 q 537 542 525 572 q 549 481 549 513 q 515 364 549 415 q 424 283 482 313 q 292 254 367 254 z "}," ":{"ha":353,"x_min":0,"x_max":0,"o":""}," ":{"ha":353,"x_min":0,"x_max":0,"o":""},"׳":{"ha":231,"x_min":40,"x_max":186,"o":"m 58 694 q 54 696 58 694 q 46 703 50 697 q 42 725 42 710 q 48 753 42 747 q 57 758 54 758 q 72 772 57 760 q 90 814 88 783 q 71 819 79 815 q 56 831 63 824 q 43 856 44 840 q 42 886 42 872 q 44 921 42 904 q 63 948 47 938 q 115 958 78 958 q 174 942 157 958 q 185 917 183 932 q 188 885 188 901 q 188 869 188 876 q 185 854 188 863 q 164 776 182 813 q 118 717 146 739 q 58 694 90 694 z "},"״":{"ha":408,"x_min":43,"x_max":361,"o":"m 60 694 q 56 696 60 694 q 47 703 51 697 q 43 725 43 710 q 49 753 43 747 q 58 758 56 758 q 74 772 58 760 q 92 814 89 783 q 72 819 81 815 q 57 831 64 824 q 44 856 46 840 q 43 886 43 872 q 46 921 43 904 q 64 948 49 938 q 117 958 79 958 q 175 942 158 958 q 187 917 185 932 q 189 885 189 901 q 189 869 189 876 q 186 854 189 863 q 165 776 183 813 q 119 717 147 739 q 60 694 92 694 m 232 694 q 228 696 232 694 q 219 703 224 697 q 215 725 215 710 q 222 753 215 747 q 231 758 228 758 q 246 772 231 760 q 264 814 261 783 q 244 819 253 815 q 229 831 236 824 q 217 856 218 840 q 215 886 215 872 q 218 921 215 904 q 236 948 221 938 q 289 958 251 958 q 347 942 331 958 q 359 917 357 932 q 361 885 361 901 q 361 869 361 876 q 358 854 361 863 q 338 776 356 813 q 292 717 319 739 q 232 694 264 694 z "},"־":{"ha":419,"x_min":44,"x_max":375,"o":"m 108 657 q 74 660 89 657 q 52 678 60 664 q 44 718 44 692 q 52 760 44 747 q 74 778 60 774 q 106 783 88 783 l 314 783 q 347 778 333 783 q 368 760 361 774 q 375 718 375 747 q 367 678 375 692 q 346 660 360 664 q 311 657 332 657 l 108 657 z "},".":{"ha":293,"x_min":72,"x_max":221,"o":"m 147 -15 q 89 1 106 -15 q 72 57 72 18 q 79 102 72 86 q 103 126 86 118 q 147 133 119 133 q 205 117 189 133 q 221 58 221 100 q 214 15 221 31 q 191 -8 207 -1 q 147 -15 175 -15 z "},",":{"ha":313,"x_min":82,"x_max":228,"o":"m 99 -125 q 94 -124 99 -125 q 86 -116 90 -122 q 82 -94 82 -110 q 88 -67 82 -72 q 97 -61 94 -61 q 113 -48 97 -60 q 131 -6 128 -36 q 111 0 119 -4 q 96 11 103 4 q 83 37 85 21 q 82 67 82 53 q 85 101 82 85 q 103 128 88 118 q 156 139 118 139 q 214 122 197 139 q 226 97 224 113 q 228 65 228 82 q 228 50 228 57 q 225 35 228 43 q 204 -44 222 -7 q 158 -103 186 -81 q 99 -125 131 -125 z "},":":{"ha":325,"x_min":79,"x_max":228,"o":"m 153 472 q 96 488 113 472 q 79 544 79 504 q 86 589 79 572 q 110 613 93 606 q 154 619 126 619 q 211 603 194 619 q 228 546 228 588 q 221 501 228 518 q 198 478 214 485 q 153 472 182 472 m 153 -15 q 95 1 111 -15 q 79 57 79 18 q 86 102 79 86 q 110 126 93 118 q 153 133 126 133 q 210 117 194 133 q 226 58 226 100 q 220 15 226 31 q 197 -8 214 -1 q 153 -15 181 -15 z "},";":{"ha":296,"x_min":72,"x_max":222,"o":"m 93 -125 q 89 -124 93 -125 q 81 -117 85 -124 q 76 -94 76 -110 q 83 -67 76 -72 q 92 -61 89 -61 q 107 -49 92 -61 q 125 -6 122 -36 q 106 0 114 -4 q 90 11 97 4 q 78 36 79 21 q 76 65 76 51 q 81 105 76 89 q 101 130 85 121 q 149 139 117 139 q 208 122 190 139 q 220 97 218 113 q 222 67 222 82 q 222 49 222 57 q 219 35 221 42 q 199 -44 217 -7 q 153 -103 181 -82 q 93 -125 125 -125 m 147 469 q 88 486 104 469 q 72 542 72 503 q 79 587 72 569 q 103 611 86 604 q 147 618 119 618 q 206 601 190 618 q 221 543 221 585 q 216 503 221 521 q 195 478 211 486 q 147 469 179 469 z "},"…":{"ha":850,"x_min":76,"x_max":774,"o":"m 425 -15 q 367 1 383 -15 q 350 57 350 18 q 357 102 350 86 q 381 126 364 118 q 425 133 397 133 q 483 117 467 133 q 499 58 499 100 q 492 15 499 31 q 469 -8 485 -1 q 425 -15 453 -15 m 700 -15 q 642 1 658 -15 q 625 57 625 18 q 632 102 625 86 q 656 126 639 118 q 700 133 672 133 q 758 117 742 133 q 774 58 774 100 q 767 15 774 31 q 744 -8 760 -1 q 700 -15 728 -15 m 151 -15 q 93 1 110 -15 q 76 57 76 18 q 83 102 76 86 q 107 126 90 118 q 151 133 124 133 q 209 117 193 133 q 225 58 225 100 q 218 15 225 31 q 195 -8 211 -1 q 151 -15 179 -15 z "},"!":{"ha":321,"x_min":88,"x_max":233,"o":"m 161 260 q 120 266 133 260 q 103 285 107 272 q 99 318 99 299 l 99 897 q 103 928 99 915 q 120 949 107 942 q 160 957 133 957 q 201 950 188 957 q 218 930 214 943 q 222 897 222 917 l 222 319 q 218 288 222 301 q 201 267 214 274 q 161 260 189 260 m 161 -15 q 103 1 118 -15 q 88 57 88 18 q 93 97 88 81 q 114 123 99 114 q 160 132 129 132 q 219 115 204 132 q 233 60 233 99 q 228 20 233 36 q 207 -6 222 4 q 161 -15 192 -15 z "},"¡":{"ha":321,"x_min":88,"x_max":233,"o":"m 161 422 q 201 415 189 422 q 218 395 214 408 q 222 363 222 382 l 222 -217 q 218 -249 222 -235 q 201 -269 214 -262 q 160 -276 188 -276 q 120 -269 133 -276 q 103 -248 107 -261 q 99 -215 99 -235 l 99 364 q 103 395 99 382 q 120 415 107 408 q 161 422 133 422 m 161 696 q 207 687 192 696 q 228 661 222 678 q 233 621 233 644 q 219 565 233 582 q 160 549 204 549 q 114 558 129 549 q 93 585 99 568 q 88 624 88 601 q 103 680 88 664 q 161 696 118 696 z "},"?":{"ha":682,"x_min":64,"x_max":621,"o":"m 343 258 q 306 265 318 258 q 291 285 294 272 q 288 315 288 297 l 288 447 q 303 491 288 475 q 343 519 318 507 q 396 542 368 531 q 449 574 424 554 q 489 624 474 593 q 504 706 504 656 q 463 824 504 783 q 339 865 421 865 q 268 853 300 865 q 214 818 236 840 q 179 764 192 796 q 165 738 174 747 q 144 726 157 728 q 108 732 131 724 q 76 747 86 739 q 65 768 67 756 q 68 799 64 781 q 89 849 74 824 q 126 898 104 875 q 180 938 149 921 q 251 967 211 956 q 339 978 292 978 q 490 944 426 978 q 587 851 553 911 q 621 710 621 792 q 609 626 621 664 q 576 558 597 589 q 526 502 556 526 q 465 460 497 478 q 394 432 432 443 l 404 447 l 404 313 q 400 283 404 296 q 383 265 396 271 q 343 258 371 258 m 344 -15 q 285 3 300 -15 q 271 60 271 21 q 274 94 271 76 q 292 122 276 111 q 344 133 308 133 q 406 116 393 133 q 419 58 419 99 q 416 25 419 42 q 397 -3 413 8 q 344 -15 382 -15 z "},"¿":{"ha":658,"x_min":56,"x_max":614,"o":"m 333 410 q 372 403 360 410 q 386 384 383 397 q 389 353 389 371 l 389 221 q 374 177 389 193 q 333 149 358 161 q 281 126 308 138 q 228 94 253 114 q 188 44 203 75 q 172 -37 172 13 q 214 -156 172 -114 q 339 -197 256 -197 q 410 -185 379 -197 q 464 -149 442 -172 q 497 -96 486 -126 q 512 -68 504 -78 q 533 -57 519 -58 q 569 -62 547 -56 q 600 -78 590 -69 q 612 -99 610 -87 q 608 -131 614 -111 q 588 -181 603 -156 q 551 -229 574 -206 q 497 -270 528 -253 q 426 -298 465 -287 q 339 -308 386 -308 q 188 -276 251 -308 q 90 -183 124 -243 q 56 -40 56 -122 q 67 42 56 4 q 101 110 79 79 q 151 167 122 142 q 213 209 179 192 q 282 236 246 226 l 274 222 l 274 356 q 277 385 274 374 q 294 403 281 397 q 333 410 307 410 m 332 683 q 392 666 378 683 q 406 608 406 649 q 403 575 406 592 q 385 547 400 558 q 332 535 369 535 q 272 553 285 535 q 258 610 258 571 q 261 644 258 628 q 280 672 264 661 q 332 683 296 683 z "},"·":{"ha":251,"x_min":51,"x_max":200,"o":"m 126 325 q 67 342 82 325 q 51 399 51 360 q 65 452 51 432 q 126 472 78 472 q 185 456 171 472 q 200 400 200 439 q 188 345 200 365 q 126 325 175 325 z "},"•":{"ha":328,"x_min":51,"x_max":275,"o":"m 164 297 q 102 309 128 297 q 64 346 76 321 q 51 408 51 371 q 64 471 51 446 q 102 508 76 496 q 164 521 128 521 q 226 508 201 521 q 263 471 250 496 q 275 408 275 446 q 263 347 275 372 q 226 310 250 322 q 164 297 201 297 z "},"*":{"ha":686,"x_min":61,"x_max":589,"o":"m 325 908 q 366 897 354 908 q 378 857 378 885 l 378 725 l 525 771 q 558 769 546 778 q 581 736 571 761 q 583 694 589 708 q 550 671 576 681 l 408 628 l 503 494 q 510 463 514 478 q 483 433 506 449 q 446 419 463 417 q 414 443 429 421 l 324 564 l 233 440 q 203 421 219 421 q 165 438 188 421 q 140 467 143 453 q 153 503 138 482 l 242 628 l 93 671 q 66 692 71 678 q 69 733 61 706 q 91 769 79 761 q 125 769 103 778 l 274 724 l 274 858 q 285 897 274 885 q 325 908 297 908 z "},"#":{"ha":1106,"x_min":78,"x_max":1028,"o":"m 271 -19 q 237 -5 246 -19 q 233 43 228 10 l 264 225 l 111 225 q 85 235 92 225 q 81 271 78 246 q 91 308 83 296 q 113 326 99 321 q 146 331 128 331 l 281 331 l 322 585 l 171 585 q 144 594 151 585 q 139 628 136 604 q 150 667 142 654 q 172 684 158 679 q 206 689 186 689 l 339 689 l 374 897 q 388 943 379 928 q 413 965 396 958 q 458 971 429 971 q 495 955 488 971 q 496 900 503 939 l 460 689 l 743 689 l 775 892 q 788 939 781 922 q 810 963 794 956 q 856 971 825 971 q 894 956 885 971 q 899 907 904 942 l 864 689 l 992 689 q 1022 676 1015 689 q 1022 639 1028 664 q 1007 602 1017 614 q 985 588 997 590 q 958 585 974 585 l 844 585 l 806 331 l 932 331 q 961 317 956 331 q 964 286 967 304 q 949 247 957 260 q 928 229 940 233 q 899 225 917 225 l 786 225 l 758 56 q 747 14 756 31 q 722 -11 739 -3 q 672 -19 704 -19 q 640 -5 650 -19 q 636 44 631 10 l 664 225 l 385 225 l 357 58 q 344 15 353 32 q 319 -11 336 -3 q 271 -19 303 -19 m 400 331 l 683 331 l 724 585 l 446 585 l 400 331 z "},"/":{"ha":718,"x_min":32,"x_max":650,"o":"m 69 -68 q 35 -32 39 -51 q 50 25 32 -12 l 526 946 q 552 983 540 971 q 579 994 564 994 q 614 985 594 994 q 642 962 635 974 q 647 933 650 950 q 631 890 643 917 l 154 -29 q 118 -74 136 -67 q 69 -68 100 -82 z "},"\\":{"ha":721,"x_min":39,"x_max":638,"o":"m 599 -65 q 565 -74 579 -75 q 538 -61 550 -74 q 515 -25 526 -49 l 57 907 q 44 964 39 944 q 76 999 49 983 q 126 1004 107 1014 q 163 958 146 994 l 618 29 q 633 -31 638 -11 q 599 -65 628 -50 z "},"-":{"ha":592,"x_min":10,"x_max":486,"o":"m 68 296 q 38 300 51 296 q 17 317 25 304 q 10 356 10 329 q 17 394 10 382 q 38 411 25 407 q 67 415 50 415 l 431 415 q 460 411 447 415 q 479 394 472 407 q 486 356 486 382 q 479 317 486 329 q 459 300 472 304 q 428 296 446 296 l 68 296 z "},"–":{"ha":772,"x_min":11,"x_max":690,"o":"m 68 294 q 38 299 51 294 q 18 316 25 303 q 11 354 11 329 q 18 394 11 382 q 38 411 25 407 q 67 415 51 415 l 633 415 q 664 411 651 415 q 683 394 676 407 q 690 354 690 382 q 683 315 690 328 q 663 299 676 303 q 632 294 650 294 l 68 294 z "},"—":{"ha":953,"x_min":11,"x_max":868,"o":"m 68 294 q 38 299 51 294 q 18 316 25 303 q 11 354 11 329 q 18 394 11 382 q 38 411 25 407 q 67 415 51 415 l 813 415 q 842 411 829 415 q 861 394 854 407 q 868 354 868 382 q 861 315 868 328 q 841 299 854 303 q 810 294 828 294 l 68 294 z "},"_":{"ha":1128,"x_min":63,"x_max":1068,"o":"m 117 -199 q 88 -195 100 -199 q 69 -179 75 -192 q 63 -143 63 -167 q 69 -106 63 -118 q 87 -89 75 -93 q 115 -85 99 -85 l 1015 -85 q 1044 -89 1032 -85 q 1062 -106 1056 -93 q 1068 -143 1068 -118 q 1061 -179 1068 -167 q 1042 -195 1054 -192 q 1013 -199 1029 -199 l 117 -199 z "},"(":{"ha":524,"x_min":75,"x_max":450,"o":"m 393 -228 q 283 -195 333 -228 q 195 -103 233 -162 q 130 35 157 -44 q 89 213 103 115 q 75 415 75 310 q 89 619 75 522 q 129 798 103 717 q 194 938 156 879 q 283 1031 233 997 q 394 1064 333 1064 q 425 1059 413 1064 q 444 1042 438 1054 q 450 1008 450 1031 q 444 973 450 985 q 428 957 439 961 q 400 953 417 953 l 393 953 q 294 890 339 953 q 224 708 250 826 q 197 418 197 589 q 212 199 197 297 q 253 30 226 100 q 315 -78 279 -40 q 394 -117 351 -117 q 425 -121 413 -117 q 444 -137 438 -125 q 450 -174 450 -149 q 444 -208 450 -196 q 424 -224 438 -219 q 393 -228 411 -228 z "},")":{"ha":524,"x_min":71,"x_max":446,"o":"m 128 -228 q 97 -224 110 -228 q 78 -208 85 -219 q 71 -174 71 -196 q 77 -137 71 -149 q 97 -121 83 -125 q 126 -117 110 -117 q 207 -78 171 -117 q 269 30 243 -40 q 310 199 296 100 q 324 418 324 297 q 298 708 324 589 q 228 890 272 826 q 128 953 183 953 l 121 953 q 94 957 106 953 q 76 973 82 961 q 71 1008 71 985 q 77 1042 71 1031 q 97 1059 83 1054 q 126 1064 110 1064 q 238 1031 188 1064 q 327 938 289 997 q 392 798 365 879 q 432 619 418 717 q 446 415 446 522 q 432 213 446 310 q 392 35 418 115 q 326 -103 365 -44 q 238 -195 288 -162 q 128 -228 188 -228 z "},"{":{"ha":519,"x_min":35,"x_max":438,"o":"m 379 -222 q 301 -211 333 -222 q 247 -176 268 -200 q 215 -115 225 -151 q 204 -26 204 -78 l 204 263 q 197 309 204 290 q 176 339 190 328 q 140 355 163 350 q 89 360 118 360 l 72 360 q 43 373 51 360 q 35 417 35 386 q 40 454 35 442 q 53 471 44 467 q 71 475 61 475 l 85 475 q 138 480 115 475 q 174 496 160 485 q 196 526 189 507 q 203 574 203 546 l 204 869 q 215 954 204 918 q 247 1013 225 990 q 301 1047 268 1036 q 378 1058 333 1058 q 410 1055 397 1058 q 431 1039 424 1051 q 438 1003 438 1026 q 431 966 438 978 q 410 949 424 954 q 378 944 397 944 q 343 936 356 944 q 325 910 331 928 q 319 858 319 892 l 319 607 q 314 542 319 572 q 295 486 308 511 q 262 443 282 461 q 213 414 242 425 q 262 384 242 404 q 295 336 282 364 q 314 276 308 308 q 319 210 319 243 l 318 -40 q 324 -81 318 -65 q 342 -103 329 -96 q 378 -110 356 -110 q 410 -113 397 -110 q 430 -129 422 -117 q 438 -165 438 -142 q 430 -203 438 -190 q 410 -219 422 -215 q 379 -222 397 -222 z "},"}":{"ha":519,"x_min":35,"x_max":438,"o":"m 93 -222 q 63 -219 76 -222 q 42 -203 50 -215 q 35 -165 35 -190 q 42 -129 35 -142 q 63 -113 50 -117 q 94 -110 76 -110 q 131 -103 118 -110 q 149 -81 144 -96 q 154 -40 154 -65 l 154 210 q 160 276 154 243 q 178 336 165 308 q 211 384 190 364 q 260 414 232 404 q 211 443 232 425 q 178 486 190 461 q 160 542 165 511 q 154 607 154 572 l 154 858 q 149 910 154 892 q 130 936 143 928 q 94 944 117 944 q 63 949 76 944 q 42 966 50 954 q 35 1003 35 978 q 42 1039 35 1026 q 63 1055 50 1051 q 94 1058 76 1058 q 173 1047 140 1058 q 226 1013 206 1036 q 258 954 247 990 q 268 869 268 918 l 269 574 q 276 526 269 546 q 299 496 283 507 q 336 480 314 485 q 388 475 358 475 l 403 475 q 419 471 411 475 q 433 454 428 467 q 438 417 438 442 q 429 373 438 386 q 401 360 421 360 l 383 360 q 333 355 354 360 q 297 339 311 350 q 275 309 282 328 q 268 263 268 290 l 268 -26 q 258 -115 268 -78 q 226 -176 247 -151 q 172 -211 206 -200 q 93 -222 139 -222 z "},"[":{"ha":475,"x_min":61,"x_max":406,"o":"m 124 -222 q 83 -215 97 -222 q 65 -193 69 -207 q 61 -160 61 -179 l 61 996 q 65 1028 61 1014 q 83 1050 69 1042 q 124 1058 97 1058 l 356 1058 q 383 1054 372 1058 q 400 1038 394 1050 q 406 1000 406 1026 q 399 963 406 975 q 381 947 393 950 q 353 943 369 943 l 181 943 l 181 -108 l 353 -108 q 381 -112 369 -108 q 399 -128 393 -115 q 406 -165 406 -140 q 400 -202 406 -189 q 383 -219 394 -215 q 354 -222 371 -222 l 124 -222 z "},"]":{"ha":475,"x_min":53,"x_max":397,"o":"m 104 -222 q 77 -219 89 -222 q 59 -202 65 -215 q 53 -165 53 -189 q 59 -128 53 -140 q 77 -112 65 -115 q 106 -108 89 -108 l 278 -108 l 278 943 l 106 943 q 78 947 90 943 q 59 963 65 950 q 53 1000 53 975 q 59 1038 53 1026 q 77 1054 65 1050 q 104 1058 89 1058 l 335 1058 q 376 1050 363 1058 q 393 1028 389 1042 q 397 996 397 1014 l 397 -160 q 393 -193 397 -179 q 376 -215 389 -207 q 335 -222 363 -222 l 104 -222 z "},"‚":{"ha":232,"x_min":40,"x_max":186,"o":"m 57 -125 q 53 -124 57 -125 q 44 -116 49 -122 q 40 -94 40 -110 q 47 -67 40 -72 q 56 -61 53 -61 q 71 -48 56 -60 q 89 -6 86 -36 q 69 0 78 -4 q 54 11 61 4 q 42 37 43 21 q 40 67 40 53 q 43 101 40 85 q 61 128 46 118 q 114 139 76 139 q 172 122 156 139 q 184 97 182 113 q 186 65 186 82 q 186 50 186 57 q 183 35 186 43 q 163 -44 181 -7 q 117 -103 144 -81 q 57 -125 89 -125 z "},"„":{"ha":408,"x_min":50,"x_max":365,"o":"m 68 -125 q 64 -124 68 -125 q 56 -116 60 -122 q 51 -94 51 -110 q 58 -67 51 -72 q 67 -61 64 -61 q 82 -48 67 -60 q 100 -6 97 -36 q 81 0 89 -4 q 65 11 72 4 q 53 37 54 21 q 51 67 51 53 q 54 101 51 85 q 72 128 57 118 q 125 139 88 139 q 183 122 167 139 q 195 97 193 113 q 197 65 197 82 q 197 50 197 57 q 194 35 197 43 q 174 -44 192 -7 q 128 -103 156 -81 q 68 -125 100 -125 m 236 -125 q 232 -124 236 -125 q 224 -116 228 -122 q 219 -94 219 -110 q 226 -67 219 -72 q 235 -61 232 -61 q 250 -48 235 -60 q 268 -6 265 -36 q 249 0 257 -4 q 233 11 240 4 q 221 37 222 21 q 219 67 219 53 q 222 101 219 85 q 240 128 225 118 q 293 139 256 139 q 351 122 335 139 q 363 97 361 113 q 365 65 365 82 q 365 50 365 57 q 363 35 365 43 q 342 -44 360 -7 q 296 -103 324 -81 q 236 -125 268 -125 z "},"“":{"ha":408,"x_min":46,"x_max":356,"o":"m 339 957 q 343 956 339 957 q 351 948 347 954 q 356 926 356 942 q 349 899 356 904 q 340 893 342 893 q 324 881 339 893 q 306 838 310 868 q 326 832 318 836 q 342 821 335 828 q 353 796 351 811 q 356 765 356 781 q 352 731 356 747 q 333 703 349 714 q 282 693 318 693 q 224 710 240 693 q 211 735 213 719 q 210 767 210 750 q 210 782 210 775 q 211 797 210 789 q 233 877 215 840 q 278 935 251 914 q 339 957 306 957 m 176 957 q 181 956 176 957 q 188 948 185 954 q 192 926 192 942 q 185 899 192 904 q 178 893 179 893 q 162 881 176 893 q 143 838 147 868 q 164 832 156 836 q 179 821 172 828 q 191 796 189 811 q 193 765 193 781 q 190 731 193 747 q 171 703 186 714 q 119 693 156 693 q 60 710 78 693 q 48 735 50 719 q 46 767 46 750 q 47 782 46 775 q 49 797 47 789 q 71 877 53 840 q 116 935 89 914 q 176 957 143 957 z "},"”":{"ha":407,"x_min":43,"x_max":361,"o":"m 60 694 q 56 696 60 694 q 47 703 51 697 q 43 725 43 710 q 49 753 43 747 q 58 758 56 758 q 74 772 58 760 q 92 814 89 783 q 72 819 81 815 q 57 831 64 824 q 44 856 46 840 q 43 886 43 872 q 46 921 43 904 q 64 948 49 938 q 117 958 79 958 q 175 942 158 958 q 187 917 185 932 q 189 885 189 901 q 189 869 189 876 q 186 854 189 863 q 165 776 183 813 q 119 717 147 739 q 60 694 92 694 m 232 694 q 228 696 232 694 q 219 703 224 697 q 215 725 215 710 q 222 753 215 747 q 231 758 228 758 q 246 772 231 760 q 264 814 261 783 q 244 819 253 815 q 229 831 236 824 q 217 856 218 840 q 215 886 215 872 q 218 921 215 904 q 236 948 221 938 q 289 958 251 958 q 347 942 331 958 q 359 917 357 932 q 361 885 361 901 q 361 869 361 876 q 358 854 361 863 q 338 776 356 813 q 292 717 319 739 q 232 694 264 694 z "},"‘":{"ha":231,"x_min":38,"x_max":183,"o":"m 167 957 q 171 956 167 957 q 179 948 175 954 q 183 926 183 942 q 176 899 183 904 q 168 893 169 893 q 152 881 167 893 q 133 838 138 868 q 154 832 146 836 q 169 821 163 828 q 181 796 179 811 q 183 765 183 781 q 180 731 183 747 q 161 703 176 714 q 110 693 146 693 q 51 710 68 693 q 39 735 40 719 q 38 767 38 750 q 38 782 38 775 q 39 797 38 789 q 61 877 43 840 q 106 935 79 914 q 167 957 133 957 z "},"’":{"ha":218,"x_min":40,"x_max":186,"o":"m 58 590 q 54 592 58 590 q 46 599 50 593 q 42 621 42 606 q 48 649 42 643 q 57 654 54 654 q 72 667 57 656 q 90 710 88 679 q 71 715 79 711 q 56 726 63 719 q 43 752 44 736 q 42 782 42 768 q 44 817 42 800 q 63 844 47 833 q 115 854 78 854 q 174 838 157 854 q 185 813 183 828 q 188 781 188 797 q 188 765 188 772 q 185 750 188 758 q 164 672 182 708 q 118 613 146 635 q 58 590 90 590 z "},"«":{"ha":749,"x_min":21,"x_max":729,"o":"m 407 -4 q 377 -26 390 -19 q 351 -26 364 -32 q 322 -7 338 -21 l 43 272 q 26 294 32 283 q 21 314 21 304 q 26 335 21 325 q 43 356 32 344 l 324 636 q 351 656 339 651 q 377 654 364 660 q 407 632 390 649 q 427 602 424 615 q 424 576 431 589 q 401 549 417 564 l 167 314 l 400 81 q 424 51 417 64 q 427 26 431 39 q 407 -4 424 13 m 706 -4 q 676 -26 689 -19 q 649 -26 663 -32 q 621 -7 636 -21 l 342 272 q 325 294 331 283 q 319 314 319 304 q 325 335 319 325 q 342 356 331 344 l 622 636 q 650 656 638 651 q 676 654 663 660 q 706 632 689 649 q 726 602 722 615 q 722 576 729 589 q 700 549 715 564 l 465 314 l 699 81 q 722 51 715 64 q 726 26 729 39 q 706 -4 722 13 z "},"»":{"ha":732,"x_min":4,"x_max":711,"o":"m 29 -4 q 9 26 13 13 q 13 51 6 39 q 36 81 19 64 l 269 314 l 35 549 q 13 576 19 564 q 9 602 6 589 q 29 632 13 615 q 59 654 46 649 q 85 656 72 660 q 113 636 99 651 l 393 356 q 410 335 404 344 q 415 314 415 325 q 410 294 415 304 q 393 272 404 283 l 114 -7 q 86 -26 100 -21 q 59 -26 72 -32 q 29 -4 46 -19 m 326 -4 q 306 26 310 13 q 310 51 303 39 q 333 81 317 64 l 567 314 l 332 549 q 310 576 317 564 q 306 602 303 589 q 326 632 310 615 q 356 654 343 649 q 383 656 369 660 q 410 636 396 651 l 690 356 q 707 335 701 344 q 713 314 713 325 q 707 294 713 304 q 690 272 701 283 l 411 -7 q 383 -26 397 -21 q 356 -26 369 -32 q 326 -4 343 -19 z "},"‹":{"ha":489,"x_min":40,"x_max":450,"o":"m 426 -4 q 397 -26 410 -19 q 370 -26 383 -32 q 342 -7 357 -21 l 63 272 q 46 294 51 283 q 40 314 40 304 q 46 335 40 325 q 63 356 51 344 l 343 636 q 371 656 358 651 q 397 654 383 660 q 426 632 410 649 q 447 602 443 615 q 443 576 450 589 q 421 549 436 564 l 186 314 l 419 81 q 443 51 436 64 q 447 26 450 39 q 426 -4 443 13 z "},"›":{"ha":461,"x_min":25,"x_max":435,"o":"m 49 -4 q 28 26 32 13 q 32 51 25 39 q 56 81 39 64 l 289 314 l 54 549 q 32 576 39 564 q 28 602 25 589 q 49 632 32 615 q 78 654 65 649 q 105 656 92 660 q 132 636 118 651 l 413 356 q 429 335 424 344 q 435 314 435 325 q 429 294 435 304 q 413 272 424 283 l 133 -7 q 106 -26 119 -21 q 78 -26 92 -32 q 49 -4 65 -19 z "},"\"":{"ha":465,"x_min":74,"x_max":392,"o":"m 326 617 q 303 631 314 617 q 285 672 293 646 q 273 731 278 699 q 265 800 268 764 q 263 869 263 836 q 265 906 263 889 q 282 935 268 924 q 328 947 296 947 q 373 935 360 947 q 389 906 386 924 q 392 869 392 889 q 390 800 392 836 q 382 731 388 764 q 369 672 376 699 q 351 631 361 646 q 326 617 340 617 m 136 617 q 113 631 124 617 q 96 672 103 646 q 83 731 89 699 q 76 800 78 764 q 74 869 74 836 q 76 906 74 889 q 92 935 79 924 q 138 947 106 947 q 183 935 169 947 q 199 906 196 924 q 201 869 201 889 q 199 800 201 836 q 192 731 197 764 q 178 672 186 699 q 160 631 171 646 q 136 617 150 617 z "},"'":{"ha":251,"x_min":63,"x_max":189,"o":"m 125 617 q 102 631 113 617 q 85 672 92 646 q 72 731 78 699 q 65 800 67 764 q 63 869 63 836 q 65 906 63 889 q 81 935 68 924 q 126 947 94 947 q 171 935 158 947 q 186 906 183 924 q 189 869 189 889 q 187 800 189 836 q 180 731 185 764 q 167 672 175 699 q 149 631 160 646 q 125 617 139 617 z "},"ƒ":{"ha":665,"x_min":0,"x_max":594,"o":"m 61 -285 q 31 -282 46 -285 q 8 -271 17 -279 q 0 -247 0 -262 q 1 -233 0 -239 q 1 -225 1 -228 q 19 -185 4 -199 q 76 -171 35 -171 q 133 -159 107 -171 q 175 -126 158 -147 q 193 -78 192 -104 l 256 517 l 157 515 q 133 519 143 515 q 115 533 122 524 q 108 560 108 543 q 108 572 108 568 q 110 578 108 575 q 122 618 113 606 q 147 635 131 631 q 185 639 163 639 l 265 629 l 286 774 q 312 851 290 815 q 367 913 333 886 q 447 956 401 940 q 544 972 493 972 q 571 969 560 972 q 588 956 582 965 q 594 925 594 947 q 594 916 594 921 q 593 906 594 911 q 580 871 589 883 q 556 855 571 858 q 522 851 542 851 q 475 845 496 851 q 439 828 454 839 q 415 801 424 817 q 403 763 406 785 l 388 628 l 549 639 q 572 635 561 639 q 589 622 583 631 q 594 600 594 614 q 594 585 594 590 q 594 574 594 579 q 582 533 592 546 q 557 517 572 521 q 521 514 542 514 l 379 518 l 315 -68 q 283 -170 306 -128 q 228 -237 261 -212 q 152 -273 194 -261 q 61 -285 110 -285 z "},"@":{"ha":1151,"x_min":51,"x_max":1101,"o":"m 531 -196 q 276 -133 383 -196 q 110 47 168 -69 q 51 318 51 163 q 89 526 51 432 q 196 688 126 619 q 360 792 265 756 q 571 829 456 829 q 796 794 697 829 q 963 692 894 758 q 1066 531 1031 625 q 1101 319 1101 436 q 1078 156 1101 229 q 1013 32 1054 83 q 919 -47 972 -19 q 806 -75 865 -75 q 681 -30 726 -75 q 639 89 635 15 q 642 128 640 108 q 646 165 644 147 q 614 133 633 149 q 567 110 594 118 q 501 101 539 101 q 429 117 464 101 q 368 159 394 132 q 327 225 342 186 q 313 311 313 264 q 313 328 313 321 q 314 339 313 335 q 340 437 319 393 q 394 513 361 481 q 466 562 426 544 q 549 579 506 579 q 620 567 590 579 q 670 536 650 554 q 697 503 690 518 l 696 543 q 713 574 699 567 q 756 581 728 581 q 790 569 776 581 q 799 535 803 558 l 743 96 q 758 47 742 65 q 811 29 774 29 q 881 49 849 29 q 941 106 914 68 q 983 200 968 144 q 999 329 999 256 q 973 494 999 421 q 895 619 947 567 q 765 699 843 671 q 581 726 686 726 q 359 676 456 726 q 209 538 263 626 q 156 326 156 449 q 201 105 156 199 q 330 -40 246 11 q 531 -90 414 -90 q 563 -96 551 -90 q 578 -112 574 -101 q 583 -143 583 -124 q 576 -175 583 -164 q 557 -191 569 -186 q 531 -196 544 -196 m 531 210 q 579 219 557 210 q 619 244 601 228 q 647 284 636 260 q 664 338 658 308 l 664 349 q 656 401 664 378 q 633 439 647 424 q 598 463 618 454 q 554 471 578 471 q 505 463 528 471 q 465 437 482 454 q 436 396 447 419 q 421 342 425 372 l 421 329 q 435 266 421 293 q 473 224 449 239 q 531 210 497 210 z "},"&":{"ha":990,"x_min":46,"x_max":915,"o":"m 344 -17 q 183 13 250 -17 q 81 101 117 43 q 46 242 46 160 q 67 331 46 286 q 127 423 88 376 q 222 514 167 469 q 187 595 203 554 q 163 676 171 636 q 154 751 154 715 q 186 874 154 822 q 276 953 218 925 q 415 981 335 981 q 535 955 485 981 q 614 883 586 929 q 642 774 642 838 q 622 709 642 743 q 567 638 603 675 q 483 562 531 601 q 381 479 436 522 q 458 374 418 424 q 540 285 497 325 q 621 218 582 246 q 696 301 675 263 q 725 378 717 339 q 744 406 729 394 q 796 418 760 418 q 831 410 819 418 q 848 391 843 403 q 851 368 853 379 q 815 263 849 315 q 721 156 781 210 q 760 143 743 149 q 800 135 778 138 q 857 133 822 133 q 902 120 889 133 q 915 74 915 107 q 903 19 915 33 q 856 6 890 6 q 776 11 817 6 q 694 31 735 17 q 611 68 654 44 q 529 22 574 42 q 438 -7 485 3 q 344 -17 392 -17 m 344 101 q 435 114 392 101 q 507 146 478 126 q 454 197 483 168 q 396 258 425 225 q 338 329 367 292 q 282 406 308 367 q 232 356 253 378 q 199 317 211 335 q 181 281 186 300 q 175 242 175 263 q 196 167 175 199 q 255 118 217 135 q 344 101 293 101 m 324 578 q 406 641 369 613 q 468 694 443 669 q 507 740 493 719 q 521 776 521 761 q 492 851 521 822 q 414 879 463 879 q 339 865 371 879 q 290 824 307 850 q 272 760 272 797 q 278 710 272 736 q 294 653 283 685 q 324 578 306 621 z "},"¶":{"ha":683,"x_min":42,"x_max":611,"o":"m 364 -340 q 328 -331 340 -340 q 313 -302 317 -321 q 308 -256 308 -283 l 308 403 q 149 423 207 401 q 66 493 90 444 q 42 618 42 542 q 52 716 42 675 q 87 783 63 757 q 153 820 111 808 q 261 832 196 832 l 557 832 q 592 822 581 832 q 608 794 604 813 q 611 749 611 776 l 611 -258 q 608 -303 611 -285 q 592 -331 604 -321 q 556 -340 579 -340 q 519 -331 532 -340 q 503 -302 507 -321 q 500 -256 500 -283 l 500 731 l 419 731 l 419 -258 q 416 -303 419 -285 q 401 -331 413 -321 q 364 -340 389 -340 z "},"§":{"ha":764,"x_min":61,"x_max":706,"o":"m 385 -311 q 288 -298 335 -311 q 201 -262 242 -285 q 131 -213 161 -240 q 82 -158 100 -186 q 62 -108 63 -128 q 92 -65 61 -89 q 145 -53 125 -40 q 189 -94 165 -65 q 245 -147 213 -125 q 313 -181 278 -169 q 381 -193 349 -193 q 487 -177 442 -193 q 557 -129 532 -161 q 582 -49 582 -97 q 554 22 582 -6 q 481 67 526 50 q 380 100 435 85 q 272 135 325 115 q 177 181 221 154 q 107 251 133 208 q 81 357 81 293 q 97 443 81 404 q 144 510 114 482 q 215 557 175 539 q 120 633 160 586 q 81 750 81 679 q 117 879 81 826 q 219 960 154 932 q 371 988 285 988 q 480 973 431 988 q 567 935 529 958 q 632 886 606 911 q 657 845 656 861 q 638 803 658 829 q 596 776 617 778 q 550 794 575 774 q 502 832 531 815 q 440 859 474 849 q 369 869 407 869 q 283 858 321 869 q 224 819 246 846 q 203 749 203 793 q 230 684 203 710 q 301 640 257 658 q 400 607 346 622 q 508 572 454 592 q 606 526 561 553 q 678 457 651 499 q 706 353 706 415 q 669 228 706 279 q 574 146 632 176 q 667 71 629 115 q 706 -44 706 26 q 681 -160 706 -110 q 611 -243 656 -210 q 509 -294 567 -276 q 385 -311 451 -311 m 431 204 q 509 228 475 211 q 563 274 543 244 q 582 349 582 304 q 567 400 582 378 q 522 440 551 422 q 451 472 493 457 q 354 500 408 488 q 243 455 283 489 q 203 356 203 421 q 215 309 203 329 q 249 274 226 289 q 300 248 271 260 q 363 226 329 236 q 431 204 396 215 z "},"©":{"ha":907,"x_min":63,"x_max":844,"o":"m 457 156 q 279 178 354 156 q 156 249 204 201 q 85 372 108 297 q 63 553 63 447 q 85 738 63 661 q 154 865 107 815 q 275 937 201 914 q 450 960 349 960 q 629 937 554 960 q 751 865 704 914 q 822 740 799 817 q 844 557 844 664 q 822 374 844 450 q 752 250 799 299 q 632 178 706 201 q 457 156 558 156 m 468 303 q 337 336 394 303 q 247 428 279 369 q 214 563 214 488 q 247 690 214 633 q 337 779 279 746 q 464 813 394 813 q 536 803 507 813 q 583 781 565 793 q 606 764 600 769 q 626 731 622 747 q 614 694 631 714 q 594 681 604 682 q 574 683 583 679 q 553 693 564 688 q 525 709 549 697 q 465 721 501 721 q 383 699 418 721 q 326 642 347 678 q 306 557 306 606 q 326 473 306 510 q 383 415 347 436 q 464 393 418 393 q 508 400 490 393 q 539 415 526 407 q 560 424 551 422 q 591 433 579 429 q 618 415 603 436 q 627 371 636 389 q 597 339 618 353 q 569 323 588 332 q 526 308 551 314 q 468 303 501 303 m 453 240 q 594 258 536 240 q 690 313 653 275 q 743 412 726 351 q 760 558 760 472 q 742 705 760 644 q 688 803 725 765 q 594 859 651 842 q 453 876 536 876 q 313 859 371 876 q 217 803 254 842 q 164 703 181 764 q 147 556 147 643 q 165 410 147 471 q 219 313 182 350 q 313 258 256 275 q 453 240 371 240 z "},"®":{"ha":907,"x_min":63,"x_max":844,"o":"m 450 960 q 629 937 554 960 q 751 865 704 914 q 822 740 799 817 q 844 557 844 664 q 822 374 844 450 q 752 250 799 299 q 632 178 706 201 q 457 156 558 156 q 279 178 354 156 q 156 249 204 201 q 85 372 108 297 q 63 553 63 447 q 85 738 63 661 q 154 865 107 815 q 275 937 201 914 q 450 960 349 960 m 453 240 q 593 258 535 240 q 688 313 651 275 q 742 412 725 351 q 760 558 760 472 q 742 705 760 644 q 688 803 725 765 q 594 859 651 842 q 453 876 536 876 q 313 859 371 876 q 217 803 254 842 q 164 703 181 764 q 147 556 147 643 q 165 410 147 471 q 219 313 182 350 q 313 258 256 275 q 453 240 371 240 m 572 504 l 650 364 q 653 342 657 353 q 640 323 650 331 q 615 310 629 315 q 589 312 600 306 q 569 332 578 318 l 488 479 l 374 479 l 374 350 q 370 328 374 339 q 358 313 367 318 q 331 307 349 307 q 304 313 314 307 q 291 329 294 319 q 288 350 288 339 l 288 775 q 292 797 288 789 q 308 810 297 806 q 335 814 319 814 l 479 814 q 569 794 532 814 q 627 737 607 775 q 647 644 647 699 q 630 567 647 608 q 572 504 613 526 m 374 728 l 374 564 l 494 564 q 544 586 526 564 q 563 646 563 608 q 541 707 563 686 q 479 728 519 728 l 374 728 z "},"™":{"ha":1136,"x_min":47,"x_max":1081,"o":"m 283 292 q 251 298 263 292 q 235 316 240 304 q 231 343 231 328 l 231 732 l 97 732 q 72 737 83 732 q 54 752 61 742 q 47 783 47 763 q 53 817 47 806 q 70 832 60 828 q 94 836 81 836 l 471 836 q 494 832 485 836 q 510 817 504 828 q 517 783 517 806 q 468 732 517 732 l 336 732 l 336 342 q 332 316 336 328 q 316 298 328 304 q 283 292 304 292 m 607 292 q 576 299 588 292 q 560 317 564 306 q 556 342 556 328 l 556 785 q 560 808 556 796 q 578 828 565 821 q 610 836 590 836 q 641 830 629 836 q 660 815 653 824 l 818 575 l 976 814 q 997 831 983 826 q 1025 836 1010 836 q 1059 828 1047 836 q 1076 808 1071 821 q 1081 781 1081 794 l 1081 342 q 1076 317 1081 328 q 1060 299 1071 306 q 1028 292 1049 292 q 997 298 1008 292 q 980 316 985 304 q 975 342 975 328 l 975 638 l 854 461 q 838 449 849 454 q 818 443 826 443 q 799 448 808 443 q 781 463 790 453 l 660 638 l 660 342 q 656 317 660 328 q 640 299 651 306 q 607 292 628 292 z "},"°":{"ha":458,"x_min":25,"x_max":435,"o":"m 229 557 q 128 585 175 557 q 53 659 81 613 q 25 761 25 706 q 53 865 25 818 q 127 940 81 913 q 228 968 174 968 q 333 940 286 968 q 407 867 379 913 q 435 763 435 821 q 407 658 435 706 q 333 584 379 611 q 229 557 286 557 m 229 654 q 306 686 275 654 q 338 764 338 718 q 306 841 338 811 q 228 871 275 871 q 152 840 183 871 q 121 763 121 808 q 152 685 121 717 q 229 654 183 654 z "},"|":{"ha":296,"x_min":97,"x_max":207,"o":"m 151 -289 q 117 -281 129 -289 q 101 -260 104 -274 q 97 -226 97 -246 l 97 907 q 101 940 97 926 q 117 961 104 954 q 153 968 129 968 q 189 960 178 968 q 203 939 200 953 q 207 906 207 925 l 207 -228 q 203 -261 207 -247 q 188 -282 200 -275 q 151 -289 176 -289 z "},"¦":{"ha":293,"x_min":97,"x_max":207,"o":"m 151 410 q 117 417 129 410 q 101 438 104 425 q 97 464 97 450 l 97 908 q 101 940 97 926 q 117 961 104 954 q 153 968 129 968 q 188 960 176 968 q 203 939 200 953 q 207 906 207 925 l 207 464 q 203 436 207 449 q 188 417 200 424 q 151 410 175 410 m 151 -286 q 117 -278 129 -286 q 101 -257 104 -271 q 97 -224 97 -243 l 97 218 q 101 246 97 233 q 117 266 104 258 q 153 274 129 274 q 188 265 176 274 q 203 244 200 257 q 207 217 207 232 l 207 -225 q 203 -258 207 -244 q 188 -279 200 -272 q 151 -286 175 -286 z "},"†":{"ha":675,"x_min":61,"x_max":626,"o":"m 335 -275 q 295 -267 308 -275 q 278 -246 282 -260 q 274 -212 274 -232 l 274 900 q 278 933 274 919 q 295 953 282 946 q 336 960 308 960 q 375 952 363 960 q 392 931 388 944 q 396 897 396 917 l 396 -214 q 392 -247 396 -233 q 374 -268 388 -261 q 335 -275 361 -275 m 121 538 q 90 541 103 538 q 69 558 76 544 q 61 597 61 571 q 69 637 61 624 q 90 654 76 650 q 119 657 103 658 l 335 650 l 568 657 q 599 654 586 658 q 619 637 611 650 q 626 596 626 624 q 619 558 626 571 q 598 541 611 544 q 565 538 585 538 l 335 543 l 121 538 z "},"‡":{"ha":675,"x_min":61,"x_max":626,"o":"m 335 -275 q 295 -267 308 -275 q 278 -246 282 -260 q 274 -212 274 -232 l 274 900 q 278 933 274 919 q 295 953 282 946 q 336 960 308 960 q 375 952 363 960 q 392 931 388 944 q 396 897 396 917 l 396 -214 q 392 -247 396 -233 q 374 -268 388 -261 q 335 -275 361 -275 m 121 125 q 90 128 103 125 q 69 145 76 132 q 61 183 61 158 q 69 224 61 211 q 90 241 76 236 q 119 244 103 246 l 335 238 l 568 244 q 599 241 586 246 q 619 224 611 236 q 626 183 626 211 q 619 145 626 158 q 598 128 611 132 q 565 125 585 124 l 335 131 l 121 125 m 121 538 q 90 541 103 538 q 69 558 76 544 q 61 597 61 571 q 69 637 61 624 q 90 654 76 650 q 119 657 103 658 l 335 650 l 568 657 q 599 654 586 658 q 619 637 611 650 q 626 596 626 624 q 619 558 626 571 q 598 541 611 544 q 565 538 585 538 l 335 543 l 121 538 z "},"€":{"ha":814,"x_min":60,"x_max":753,"o":"m 542 -14 q 423 3 478 -14 q 325 51 368 19 q 251 126 282 82 q 201 226 219 171 q 181 347 183 282 q 178 444 179 396 q 178 540 178 492 q 179 633 179 588 q 202 753 183 697 q 253 851 221 808 q 330 924 286 894 q 427 971 374 954 q 542 988 481 988 l 697 988 q 726 983 714 988 q 746 967 739 979 q 753 926 753 954 q 744 887 753 900 q 723 870 736 874 q 690 867 710 867 l 542 867 q 466 857 501 867 q 401 830 431 847 q 351 787 372 813 q 317 728 329 761 q 304 656 306 694 q 301 554 301 606 q 301 451 300 503 q 303 350 301 400 q 317 267 306 306 q 348 199 328 229 q 397 149 368 169 q 461 117 425 128 q 542 106 497 106 l 692 106 q 724 102 711 106 q 745 85 738 99 q 753 44 753 71 q 746 7 753 19 q 727 -10 739 -6 q 700 -14 715 -14 l 542 -14 m 111 335 q 83 338 94 335 q 65 353 71 342 q 60 385 60 364 q 65 419 60 408 q 83 433 71 429 q 108 438 94 438 l 633 438 q 660 433 649 438 q 676 418 671 429 q 682 385 682 407 q 676 353 682 364 q 658 338 669 342 q 631 335 647 335 l 111 335 m 111 554 q 83 558 94 554 q 65 572 71 561 q 60 604 60 583 q 65 638 60 628 q 83 653 71 649 q 108 657 94 657 l 633 657 q 660 653 649 657 q 676 638 671 649 q 682 604 682 626 q 676 572 682 583 q 658 558 669 561 q 631 554 647 554 l 111 554 z "},"¢":{"ha":593,"x_min":28,"x_max":558,"o":"m 322 -103 q 290 -96 301 -103 q 276 -76 279 -89 q 272 -44 272 -62 l 272 64 q 140 117 194 76 q 57 222 86 158 q 28 361 28 285 q 57 501 28 439 q 140 606 86 564 q 272 657 194 647 l 272 776 q 276 808 272 794 q 290 827 279 821 q 324 833 301 833 q 357 826 346 833 q 372 806 368 819 q 375 774 375 793 l 375 658 q 443 641 413 654 q 497 611 474 628 q 533 576 519 594 q 551 549 547 560 q 551 524 556 538 q 535 504 544 513 q 517 490 526 496 q 472 489 493 475 q 429 524 451 510 q 382 545 407 538 q 326 553 357 553 q 227 526 268 553 q 165 457 186 500 q 143 360 143 414 q 165 264 143 307 q 226 194 186 221 q 325 168 267 168 q 380 174 354 168 q 428 192 406 181 q 472 219 451 204 q 497 228 486 228 q 522 222 508 229 q 540 209 532 218 q 553 188 547 200 q 555 161 558 176 q 535 133 551 146 q 487 97 513 113 q 433 74 461 82 q 375 63 406 65 l 375 -46 q 372 -77 375 -64 q 357 -97 368 -90 q 322 -103 346 -103 z "},"¤":{"ha":924,"x_min":54,"x_max":860,"o":"m 86 -7 q 59 19 64 4 q 63 51 54 33 q 99 116 75 86 q 154 169 122 146 q 218 203 186 192 q 152 265 183 226 q 102 358 121 304 q 83 475 83 411 q 119 638 83 560 q 222 768 154 717 q 125 826 161 790 q 71 899 89 861 q 61 942 58 925 q 88 972 64 958 q 127 982 113 988 q 158 951 142 976 q 176 927 167 939 q 193 903 185 915 q 258 860 214 875 q 356 841 303 846 q 454 836 408 836 l 474 836 q 577 842 525 836 q 670 861 629 847 q 729 903 711 875 q 744 926 736 914 q 760 950 753 939 q 790 978 775 974 q 829 971 804 982 q 858 942 856 957 q 849 900 860 926 q 790 822 829 857 q 683 765 751 788 q 795 645 758 722 q 832 479 832 568 q 815 373 832 426 q 769 275 799 319 q 700 203 740 231 q 763 169 733 192 q 816 119 793 147 q 847 63 839 90 q 856 22 858 36 q 828 -7 853 7 q 789 -17 803 -22 q 760 14 775 -11 q 744 44 751 31 q 726 71 736 57 q 681 103 714 90 q 593 121 647 115 q 464 126 539 126 l 435 126 q 338 123 378 126 q 270 113 297 119 q 225 95 243 106 q 196 71 207 85 q 170 35 178 50 q 157 10 163 21 q 128 -19 142 -15 q 86 -7 114 -22 m 450 226 q 594 257 535 226 q 687 344 654 288 q 719 481 719 401 q 688 616 719 560 q 597 703 656 672 q 458 733 539 733 q 321 703 379 733 q 231 616 263 672 q 200 482 200 560 q 231 347 200 404 q 318 258 261 289 q 450 226 375 226 z "},"$":{"ha":649,"x_min":42,"x_max":572,"o":"m 572 282 q 557 197 572 236 q 513 130 542 158 q 443 83 483 101 q 353 58 403 65 l 353 -46 q 349 -77 353 -64 q 333 -97 344 -90 q 300 -103 322 -103 q 267 -96 278 -103 q 252 -76 256 -89 q 249 -44 249 -62 l 249 60 q 173 81 210 65 q 108 121 136 97 q 60 172 79 144 q 43 215 44 197 q 68 256 42 233 q 104 271 89 271 q 133 260 119 271 q 158 232 147 249 q 217 181 181 199 q 297 163 254 163 q 385 176 349 163 q 440 216 421 190 q 458 279 458 242 q 431 347 458 322 q 358 390 403 372 q 263 425 313 407 q 189 456 225 439 q 124 497 153 472 q 78 556 94 521 q 61 642 61 590 q 74 718 61 683 q 111 779 86 753 q 171 823 136 806 q 249 846 206 840 l 249 943 q 252 974 249 961 q 267 994 256 988 q 300 1001 278 1001 q 333 994 322 1001 q 349 975 344 988 q 353 944 353 963 l 353 847 q 445 817 406 840 q 510 769 485 794 q 533 733 532 749 q 515 693 535 717 q 491 672 504 678 q 465 669 478 665 q 436 686 451 672 q 399 714 421 701 q 351 734 376 726 q 299 742 326 742 q 246 735 269 742 q 206 715 222 728 q 181 683 190 701 q 172 640 172 664 q 197 582 172 604 q 260 544 221 560 q 343 515 299 529 q 424 485 383 501 q 498 443 464 468 q 552 379 532 418 q 572 282 572 340 z "},"₪":{"ha":1303,"x_min":100,"x_max":1204,"o":"m 783 -19 q 562 31 654 -19 q 422 175 469 82 q 374 397 374 268 l 374 463 q 378 493 374 479 q 397 515 383 507 q 435 524 410 524 q 474 515 461 524 q 492 493 488 507 q 497 461 497 479 l 497 400 q 515 277 497 332 q 568 183 532 222 q 659 124 604 144 q 786 103 714 103 q 947 141 881 103 q 1047 251 1013 179 q 1081 419 1081 322 l 1081 754 q 1086 781 1081 768 q 1105 801 1092 793 q 1143 808 1118 808 q 1181 799 1168 808 q 1199 776 1194 790 q 1204 744 1204 763 l 1204 414 q 1177 243 1204 322 q 1097 105 1150 164 q 965 13 1043 46 q 783 -19 886 -19 m 161 -14 q 123 -6 136 -14 q 105 17 110 3 q 100 49 100 32 l 100 746 q 105 776 100 763 q 123 799 110 790 q 161 807 136 807 l 467 808 q 634 785 563 808 q 754 714 706 763 q 827 590 803 665 q 851 407 851 514 l 851 336 q 847 303 851 318 q 828 278 842 288 q 792 269 815 269 q 752 277 765 269 q 734 299 739 285 q 729 326 729 313 l 729 403 q 702 562 729 500 q 620 653 675 624 q 482 683 565 683 l 224 683 l 224 50 q 219 17 224 32 q 201 -6 214 3 q 161 -14 188 -14 z "},"£":{"ha":921,"x_min":35,"x_max":876,"o":"m 182 -14 q 136 3 150 -14 q 122 50 122 19 q 135 116 122 92 q 167 160 149 140 q 198 212 185 181 q 211 297 211 243 q 208 343 211 310 q 192 408 204 376 l 89 408 q 60 413 72 408 q 42 428 49 417 q 35 464 35 440 q 42 501 35 489 q 61 517 49 513 q 89 521 74 521 l 168 521 l 168 614 q 177 701 168 665 q 206 776 186 736 q 282 875 235 832 q 395 942 329 918 q 546 967 461 967 q 640 954 596 967 q 721 923 685 942 q 785 882 757 904 q 828 840 813 860 q 852 791 851 813 q 831 747 853 769 q 781 722 803 724 q 739 744 758 721 q 694 789 721 767 q 632 826 668 811 q 546 840 596 840 q 415 812 471 840 q 328 731 358 783 q 299 608 299 679 l 299 521 l 503 521 q 531 517 519 521 q 549 501 543 513 q 556 464 556 489 q 549 428 556 440 q 530 413 542 417 q 500 408 518 408 l 324 408 q 336 346 333 378 q 339 296 339 314 q 331 234 339 267 q 309 169 322 201 q 279 115 296 138 l 811 115 q 846 110 832 115 q 868 92 860 106 q 876 49 876 78 q 868 8 876 21 q 845 -10 860 -6 q 810 -14 831 -14 l 182 -14 z "},"¥":{"ha":924,"x_min":60,"x_max":875,"o":"m 839 951 q 872 913 868 931 q 858 869 875 894 l 532 374 l 532 47 q 527 15 532 29 q 509 -8 522 0 q 468 -15 496 -15 q 427 -8 440 -15 q 410 15 414 0 q 406 50 406 31 l 406 374 l 76 867 q 65 910 60 892 q 97 950 69 929 q 147 968 128 972 q 183 936 167 964 l 468 489 l 751 936 q 789 967 771 964 q 839 951 807 969 m 265 189 q 236 192 249 189 q 216 207 224 196 q 208 239 208 218 q 215 273 208 263 q 235 288 222 283 q 265 292 249 292 l 654 292 q 685 288 672 292 q 704 273 697 283 q 711 239 711 263 q 703 207 711 218 q 683 192 696 196 q 654 189 671 189 l 265 189 m 265 358 q 236 362 249 358 q 216 377 224 365 q 208 410 208 389 q 222 451 208 440 q 264 463 235 463 l 656 463 q 699 451 686 463 q 711 410 711 439 q 703 376 711 388 q 683 362 696 365 q 654 358 671 358 l 265 358 z "},"+":{"ha":746,"x_min":51,"x_max":693,"o":"m 374 35 q 335 42 349 35 q 317 62 322 49 q 313 93 313 75 l 313 618 q 317 650 313 638 q 335 669 322 663 q 374 676 349 676 q 413 669 400 676 q 429 648 425 661 q 433 617 433 635 l 433 94 q 429 63 433 76 q 413 42 425 49 q 374 35 400 35 m 110 296 q 79 299 92 296 q 59 316 67 303 q 51 354 51 329 q 58 394 51 382 q 79 411 65 407 q 110 415 93 415 l 636 415 q 667 411 654 415 q 687 394 681 407 q 693 354 693 381 q 686 315 693 328 q 667 299 679 303 q 636 296 654 296 l 110 296 z "},"−":{"ha":783,"x_min":51,"x_max":732,"o":"m 110 294 q 80 299 93 294 q 59 315 67 303 q 51 354 51 328 q 59 394 51 382 q 80 411 67 407 q 108 415 93 415 l 675 415 q 706 411 693 415 q 725 394 718 407 q 732 354 732 382 q 724 315 732 328 q 703 299 717 303 q 672 294 690 294 l 110 294 z "},"×":{"ha":629,"x_min":50,"x_max":579,"o":"m 399 351 l 551 199 q 574 171 568 185 q 574 144 579 157 q 554 115 569 131 q 524 93 538 99 q 498 92 511 88 q 469 113 485 97 l 315 268 l 161 115 q 133 93 147 99 q 106 92 119 88 q 76 114 93 97 q 56 142 61 129 q 56 169 50 156 q 75 199 61 183 l 229 351 l 75 507 q 55 535 60 522 q 56 562 50 549 q 76 590 61 575 q 106 612 93 607 q 133 611 119 617 q 161 590 147 606 l 315 438 l 469 592 q 498 612 485 607 q 524 611 511 617 q 554 590 538 606 q 574 560 569 574 q 574 534 579 547 q 553 506 568 521 l 399 351 z "},"÷":{"ha":644,"x_min":51,"x_max":592,"o":"m 108 301 q 79 305 92 301 q 59 321 67 308 q 51 358 51 333 q 59 396 51 383 q 79 413 67 408 q 108 417 92 417 l 536 417 q 565 413 553 417 q 585 396 578 408 q 592 358 592 383 q 585 321 592 333 q 565 305 578 308 q 533 301 551 301 l 108 301 m 318 53 q 264 68 279 53 q 249 121 249 83 q 264 178 249 163 q 319 193 279 193 q 374 178 358 193 q 389 122 389 163 q 374 68 389 83 q 318 53 358 53 m 318 524 q 264 539 279 524 q 249 592 249 554 q 264 649 249 633 q 319 664 279 664 q 374 649 358 664 q 389 593 389 633 q 374 539 389 554 q 318 524 358 524 z "},"=":{"ha":646,"x_min":51,"x_max":594,"o":"m 108 436 q 79 440 92 436 q 60 456 67 443 q 53 494 53 468 q 59 532 53 519 q 78 549 65 544 q 107 553 92 553 l 540 553 q 569 549 557 553 q 588 532 581 544 q 594 493 594 519 q 588 456 594 468 q 567 440 581 443 q 538 436 554 436 l 108 436 m 108 160 q 79 163 92 160 q 59 179 67 167 q 51 217 51 192 q 58 256 51 243 q 78 272 65 268 q 107 276 92 276 l 540 276 q 569 272 557 276 q 588 256 581 268 q 594 217 594 243 q 588 179 594 192 q 567 163 581 167 q 538 160 554 160 l 108 160 z "},">":{"ha":713,"x_min":38,"x_max":675,"o":"m 142 1 q 113 -13 126 -8 q 85 -12 99 -18 q 58 14 72 -7 q 40 50 43 35 q 46 76 38 65 q 69 97 54 88 l 513 385 l 69 671 q 47 692 54 681 q 41 719 39 704 q 58 754 43 733 q 87 783 74 778 q 113 783 100 788 q 142 768 126 778 l 649 433 q 667 416 660 428 q 675 385 675 404 q 667 356 675 369 q 649 335 660 343 l 142 1 z "},"<":{"ha":713,"x_min":39,"x_max":675,"o":"m 571 1 l 65 335 q 46 356 53 343 q 39 385 39 369 q 47 416 39 404 q 65 433 54 428 l 572 768 q 600 783 588 778 q 626 783 613 788 q 656 754 640 778 q 673 719 671 733 q 667 692 675 704 q 643 671 660 681 l 200 385 l 644 97 q 667 76 660 88 q 673 50 675 65 q 656 14 671 35 q 627 -12 640 -7 q 601 -13 614 -18 q 571 1 588 -8 z "},"±":{"ha":696,"x_min":35,"x_max":661,"o":"m 92 329 q 63 333 75 329 q 42 348 50 336 q 35 383 35 360 q 42 422 35 410 q 61 438 49 433 q 90 442 74 442 l 606 442 q 635 438 622 442 q 654 421 647 433 q 661 383 661 408 q 653 348 661 360 q 633 333 646 336 q 603 329 621 329 l 92 329 m 349 167 q 309 174 322 167 q 292 194 296 181 q 288 225 288 207 l 288 549 q 292 581 288 568 q 310 600 296 593 q 349 607 324 607 q 388 599 375 607 q 403 578 400 592 q 407 547 407 565 l 407 226 q 403 194 407 208 q 388 174 400 181 q 349 167 375 167 m 92 -14 q 63 -10 75 -14 q 42 5 50 -7 q 35 42 35 17 q 42 78 35 67 q 61 94 49 90 q 90 99 74 99 l 606 99 q 635 94 622 99 q 654 78 647 90 q 661 40 661 67 q 653 5 661 17 q 633 -10 646 -7 q 603 -14 621 -14 l 92 -14 z "},"~":{"ha":767,"x_min":65,"x_max":699,"o":"m 272 485 q 332 474 306 485 q 381 449 358 464 q 424 419 404 435 q 464 394 444 404 q 503 383 483 383 q 531 392 518 383 q 557 413 544 400 q 582 438 569 425 q 606 463 594 451 q 633 476 615 474 q 668 467 651 478 q 692 445 685 457 q 699 417 699 433 q 681 367 699 394 q 635 317 664 340 q 572 279 607 294 q 500 264 536 264 q 437 274 464 264 q 388 299 410 283 q 348 328 367 314 q 310 353 329 343 q 269 364 292 364 q 239 356 254 364 q 210 337 224 349 q 185 313 197 325 q 160 290 172 300 q 144 281 153 283 q 123 282 135 279 q 100 292 111 285 q 71 325 76 307 q 76 364 65 343 q 105 404 86 383 q 150 443 124 425 q 207 473 176 461 q 272 485 238 485 z "},"¬":{"ha":718,"x_min":54,"x_max":671,"o":"m 615 176 q 579 183 592 176 q 563 203 567 190 q 558 231 558 215 l 558 382 l 110 382 q 81 385 93 382 q 61 402 68 389 q 54 443 54 415 q 61 484 54 471 q 81 501 68 497 q 108 506 93 506 l 615 506 q 658 492 646 506 q 671 449 671 479 l 671 232 q 667 203 671 215 q 651 183 663 190 q 615 176 639 176 z "},"^":{"ha":707,"x_min":42,"x_max":667,"o":"m 354 718 q 375 713 365 718 q 393 699 385 707 l 643 447 q 661 424 656 436 q 663 399 667 413 q 640 368 658 386 q 610 348 624 351 q 585 351 596 344 q 561 368 574 357 l 354 576 l 146 368 q 123 351 135 357 q 98 348 111 344 q 68 368 85 351 q 46 399 50 386 q 47 424 42 413 q 64 447 53 436 l 315 699 q 333 713 324 707 q 354 718 343 718 z "},"µ":{"ha":821,"x_min":88,"x_max":694,"o":"m 147 -290 q 110 -282 122 -290 q 92 -259 97 -274 q 88 -228 88 -244 l 88 599 q 92 633 88 619 q 111 652 97 646 q 149 658 125 658 q 188 651 175 658 q 206 629 201 643 q 210 596 210 615 l 210 296 q 229 194 210 238 q 288 127 249 151 q 385 103 326 103 q 485 127 443 103 q 551 195 528 151 q 574 296 574 239 l 574 597 q 577 631 574 617 q 594 652 581 644 q 635 660 607 660 q 674 651 661 660 q 690 629 686 643 q 694 596 694 615 l 694 47 q 690 16 694 29 q 674 -4 686 3 q 633 -11 661 -11 q 604 -8 615 -11 q 587 2 593 -4 q 578 17 581 8 q 575 36 575 25 l 581 96 q 546 57 565 76 q 502 22 526 38 q 447 -4 478 6 q 379 -14 417 -14 q 285 3 328 -14 q 208 51 242 21 l 208 -229 q 203 -260 208 -246 q 186 -282 199 -274 q 147 -290 174 -290 z "},"%":{"ha":1143,"x_min":42,"x_max":1107,"o":"m 293 -61 q 272 -43 278 -53 q 267 -19 265 -33 q 281 15 269 -4 l 778 954 q 799 985 789 975 q 821 995 808 994 q 849 988 833 996 q 869 969 863 979 q 872 945 875 958 q 858 911 869 932 l 360 -29 q 340 -58 350 -49 q 318 -69 329 -68 q 293 -61 307 -69 m 289 440 q 110 511 178 440 q 42 699 42 582 q 110 886 42 815 q 289 957 178 957 q 466 887 400 957 q 532 700 532 817 q 466 510 532 581 q 289 440 400 440 m 289 542 q 394 585 356 542 q 432 701 432 629 q 394 815 432 774 q 289 856 356 856 q 181 814 221 856 q 142 701 142 772 q 181 585 142 628 q 289 542 221 542 m 864 -15 q 685 56 753 -15 q 617 243 617 126 q 684 431 617 360 q 864 501 751 501 q 1041 432 975 501 q 1107 244 1107 363 q 1041 55 1107 125 q 864 -15 975 -15 m 864 86 q 969 130 931 86 q 1007 247 1007 174 q 969 359 1007 318 q 864 400 931 400 q 756 358 796 400 q 717 246 717 317 q 756 129 717 172 q 864 86 796 86 z "},"‰":{"ha":1690,"x_min":42,"x_max":1647,"o":"m 293 -61 q 272 -43 278 -53 q 267 -19 265 -33 q 281 15 269 -4 l 778 954 q 799 985 789 975 q 821 995 808 994 q 849 988 833 996 q 869 969 863 979 q 872 945 875 958 q 858 911 869 932 l 360 -29 q 340 -58 350 -49 q 318 -69 329 -68 q 293 -61 307 -69 m 289 440 q 110 511 178 440 q 42 699 42 582 q 110 886 42 815 q 289 957 178 957 q 466 887 400 957 q 532 700 532 817 q 466 510 532 581 q 289 440 400 440 m 289 542 q 394 585 356 542 q 432 701 432 629 q 394 815 432 774 q 289 856 356 856 q 181 814 221 856 q 142 701 142 772 q 181 585 142 628 q 289 542 221 542 m 865 -15 q 685 56 753 -15 q 617 243 617 126 q 685 431 617 360 q 864 501 753 501 q 1041 432 975 501 q 1107 244 1107 363 q 1042 55 1107 125 q 865 -15 976 -15 m 864 86 q 969 130 931 86 q 1008 247 1008 174 q 969 359 1008 318 q 864 400 931 400 q 756 358 796 400 q 717 246 717 317 q 756 129 717 172 q 864 86 796 86 m 1406 -15 q 1225 56 1293 -15 q 1157 243 1157 126 q 1225 431 1157 360 q 1404 501 1293 501 q 1581 431 1515 501 q 1647 244 1647 361 q 1582 55 1647 125 q 1406 -15 1517 -15 m 1404 86 q 1510 130 1471 86 q 1549 247 1549 174 q 1510 359 1549 318 q 1404 400 1471 400 q 1297 358 1336 400 q 1257 246 1257 317 q 1297 129 1257 172 q 1404 86 1336 86 z "},"ׁ":{"ha":0,"x_min":56,"x_max":161,"o":"m 108 803 q 71 820 86 803 q 56 861 56 838 q 72 900 56 883 q 108 917 88 917 q 144 900 128 917 q 161 861 161 883 q 145 820 161 838 q 108 803 129 803 z "},"ְ":{"ha":0,"x_min":56,"x_max":161,"o":"m 108 -304 q 71 -288 86 -304 q 56 -249 56 -272 q 72 -208 56 -226 q 108 -190 88 -190 q 145 -208 129 -190 q 161 -249 161 -225 q 145 -288 161 -272 q 108 -304 129 -304 m 108 -132 q 71 -116 86 -132 q 56 -76 56 -100 q 71 -37 56 -54 q 108 -21 86 -21 q 145 -37 129 -21 q 161 -78 161 -54 q 145 -116 161 -100 q 108 -132 129 -132 z "},"ֱ":{"ha":0,"x_min":82,"x_max":560,"o":"m 507 -304 q 469 -288 485 -304 q 454 -249 454 -272 q 470 -208 454 -226 q 506 -190 486 -190 q 544 -208 528 -190 q 560 -249 560 -225 q 544 -288 560 -272 q 507 -304 528 -304 m 222 -304 q 183 -288 200 -304 q 167 -249 167 -272 q 184 -208 167 -226 q 222 -190 201 -190 q 258 -208 243 -190 q 272 -249 272 -225 q 258 -288 272 -272 q 222 -304 243 -304 m 138 -132 q 99 -116 115 -132 q 82 -78 82 -100 q 99 -37 82 -54 q 138 -21 115 -21 q 174 -37 160 -21 q 188 -76 188 -53 q 174 -117 188 -101 q 138 -132 160 -132 m 310 -132 q 272 -116 288 -132 q 257 -76 257 -100 q 272 -37 257 -54 q 310 -21 288 -21 q 347 -37 332 -21 q 363 -78 363 -54 q 347 -116 363 -100 q 310 -132 332 -132 m 507 -132 q 469 -116 485 -132 q 454 -76 454 -100 q 469 -37 454 -54 q 507 -21 485 -21 q 544 -37 528 -21 q 560 -78 560 -54 q 544 -116 560 -100 q 507 -132 528 -132 z "},"ֲ":{"ha":0,"x_min":126,"x_max":538,"o":"m 164 -107 q 126 -71 126 -107 l 126 -65 q 136 -37 126 -47 q 164 -28 146 -28 l 322 -28 q 350 -37 340 -28 q 360 -65 360 -47 l 360 -71 q 322 -107 360 -107 l 164 -107 m 485 -304 q 447 -288 463 -304 q 432 -249 432 -272 q 448 -208 432 -226 q 485 -190 464 -190 q 522 -208 507 -190 q 538 -249 538 -225 q 522 -288 538 -272 q 485 -304 506 -304 m 485 -132 q 447 -116 463 -132 q 432 -76 432 -100 q 447 -37 432 -54 q 485 -21 463 -21 q 522 -37 506 -21 q 538 -78 538 -54 q 522 -116 538 -100 q 485 -132 506 -132 z "},"ֳ":{"ha":0,"x_min":99,"x_max":538,"o":"m 226 -257 q 198 -246 207 -257 q 190 -217 189 -235 l 206 -107 l 136 -107 q 99 -71 99 -107 l 99 -65 q 109 -37 99 -47 q 136 -28 119 -28 l 322 -28 q 350 -37 340 -28 q 360 -65 360 -47 l 360 -71 q 322 -107 360 -107 l 254 -107 l 265 -218 q 258 -247 268 -236 q 231 -257 249 -257 l 226 -257 m 485 -304 q 447 -288 463 -304 q 432 -249 432 -272 q 448 -208 432 -226 q 485 -190 464 -190 q 522 -208 507 -190 q 538 -249 538 -225 q 522 -288 538 -272 q 485 -304 506 -304 m 485 -132 q 447 -116 463 -132 q 432 -76 432 -100 q 447 -37 432 -54 q 485 -21 463 -21 q 522 -37 506 -21 q 538 -78 538 -54 q 522 -116 538 -100 q 485 -132 506 -132 z "},"ִ":{"ha":0,"x_min":56,"x_max":161,"o":"m 108 -139 q 71 -123 86 -139 q 56 -83 56 -107 q 71 -44 56 -61 q 108 -28 86 -28 q 145 -44 129 -28 q 161 -85 161 -61 q 145 -123 161 -107 q 108 -139 129 -139 z "},"ֵ":{"ha":0,"x_min":82,"x_max":368,"o":"m 315 -139 q 278 -123 293 -139 q 263 -83 263 -107 q 278 -44 263 -61 q 315 -28 293 -28 q 353 -44 338 -28 q 368 -85 368 -61 q 353 -123 368 -107 q 315 -139 338 -139 m 138 -139 q 99 -123 115 -139 q 82 -83 82 -107 q 99 -44 82 -61 q 138 -28 115 -28 q 173 -44 158 -28 q 188 -83 188 -61 q 173 -123 188 -107 q 138 -139 158 -139 z "}}}
